<svg width="218" height="283" viewBox="0 0 218 283" fill="none" xmlns="http://www.w3.org/2000/svg">
<path d="M108.681 0.714722C48.6584 0.714722 0 49.3512 0 109.349C0 169.348 48.6584 217.984 108.681 217.984C168.705 217.984 217.365 169.348 217.365 109.349C217.365 49.3512 168.705 0.714722 108.681 0.714722Z" fill="#186DBF"/>
<path d="M108.681 6.14745C51.6598 6.14745 5.4328 52.3519 5.4328 109.349C5.4328 166.347 51.6598 212.552 108.681 212.552C165.705 212.552 211.93 166.347 211.93 109.349C211.93 52.3519 165.705 6.14745 108.681 6.14745Z" fill="white"/>
<path d="M108.681 11.0348C54.3611 11.0348 10.3246 55.0519 10.3246 109.349C10.3246 163.647 54.3611 207.664 108.681 207.664C163.004 207.664 207.04 163.647 207.04 109.349C207.04 55.0519 163.004 11.0348 108.681 11.0348ZM108.681 170.726C74.7695 170.726 47.2769 143.25 47.2769 109.349C47.2769 75.4515 74.7695 47.9703 108.681 47.9703C142.598 47.9703 170.086 75.4515 170.086 109.349C170.086 143.25 142.598 170.726 108.681 170.726Z" fill="#E31536"/>
<path d="M54.6932 126.05C57.2717 134.377 61.6028 141.678 67.1514 147.677V122.196L52.7527 101.17C51.5644 109.253 52.1141 117.722 54.6932 126.05ZM83.765 146.225V117.059L67.2805 92.9869V70.9071C64.2291 74.1979 61.5889 77.8295 59.4076 81.7174L67.1514 93.0259V122.196L83.6359 146.266V159.97C87.6325 161.949 91.863 163.454 96.2412 164.446L83.765 146.225ZM100.377 111.92L116.859 135.987V165.157L100.377 141.088V111.92L83.8924 87.8472L83.8947 58.6811L100.377 82.7488V111.92ZM116.988 106.78L100.504 82.7098V53.5414L116.988 77.6114V106.78L133.47 130.849V160.018L116.988 135.948V106.78ZM91.9741 55.3834C83.5585 57.9887 76.1876 62.3789 70.1505 68.0088L83.765 87.8885V117.059L100.247 141.126V165.219C108.411 166.454 116.972 165.918 125.391 163.313C133.807 160.711 141.175 156.32 147.212 150.69L133.6 130.811V101.642L117.116 77.5707V53.4804C108.954 52.2426 100.39 52.7809 91.9741 55.3834ZM150.212 125.671V96.5004L133.73 72.4333V58.7265C129.731 56.7509 125.5 55.2427 121.122 54.2502L133.6 72.4717V101.642L150.082 125.712V147.792C153.136 144.499 155.774 140.87 157.955 136.981L150.212 125.671ZM162.67 92.6485C160.093 84.3227 155.76 77.0207 150.212 71.0228V96.5004L164.61 117.527C165.798 109.444 165.249 100.974 162.67 92.6485Z" fill="#186DBF"/>
<path d="M42.9278 129.657L45.718 135.596L41.1781 144.174C40.4964 145.449 39.906 146.493 39.906 146.493L39.9647 146.604C39.9647 146.604 41.1647 146.679 42.6049 146.802L52.2734 147.672L55.7361 153.248L34.8484 165.446L31.5055 160.095L40.2492 154.992C42.2873 153.813 43.8253 152.98 43.8253 152.98L43.7642 152.866C43.7642 152.866 42.7073 152.789 40.5034 152.464L31.6032 151.14L31.5445 151.028L35.2846 142.85C36.2112 140.825 36.7225 139.898 36.7225 139.898L36.6614 139.784C36.6614 139.784 35.1229 140.62 33.0237 141.687L23.9805 146.229L21.3106 140.513L42.9278 129.657Z" fill="white"/>
<path d="M58.9376 156.02L63.7521 160.297L54.0819 171.798C52.4956 173.708 52.5753 175.714 54.9747 177.603C57.3764 179.493 59.3465 179.1 60.8321 177.113L69.7526 165.019L75.04 168.696L65.8833 181.087C61.6866 186.774 56.2497 185.652 51.5481 181.953C46.8471 178.251 44.4843 173.231 49.0306 167.821L58.9376 156.02ZM68.5689 163.847L62.6272 167.996L62.5271 167.917L65.1696 161.169L68.5689 163.847Z" fill="white"/>
<path d="M78.7644 170.79L85.0511 173.084L88.6051 185.216C89.3752 187.839 89.6887 189.229 89.6887 189.229L89.8702 189.284C89.8702 189.284 90.2814 187.481 90.8817 185.271L93.4603 175.616L99.6044 177.069L93.3538 200.435L86.8461 198.872L82.7925 186.188C82.0089 183.727 81.6791 182.166 81.6791 182.166L81.4977 182.111C81.4977 182.111 80.959 184.008 80.2727 186.061L76.9734 195.897L71.0526 193.715L78.7644 170.79Z" fill="white"/>
<path d="M125.843 191.716C125.977 197.446 122.383 201.389 115.525 201.854C109.111 202.288 103.106 199.379 102.76 190.027C102.403 180.549 107.65 177.004 113.812 176.588C120.481 176.136 124.336 179.858 125 184.916L118.52 185.357C117.927 183.165 116.752 181.873 113.896 182.066C111.229 182.248 109.354 184.703 109.554 189.567C109.772 194.653 111.883 196.615 114.869 196.413C117.854 196.211 119.161 194.782 119.301 192.159L125.843 191.716Z" fill="white"/>
<path d="M127.279 175.003L133.289 172.684L136.697 180.851L144.198 177.433L140.267 169.507L145.958 166.493L156.685 188.176L150.993 191.19L146.747 182.565L138.899 186.141L142.625 195L136.615 197.317L127.292 175.032L127.279 175.003Z" fill="white"/>
<path d="M149.759 163.654L161.343 152.559L165.07 156.216L157.807 163.172L160.577 166.245L167.61 159.511L171.247 163.075L163.985 170.031L166.998 173.404L175.178 165.566L178.905 169.225L165.944 181.639L149.759 163.654Z" fill="white"/>
<path d="M164.235 149.128L167.56 143.32L180.127 141.871C182.844 141.555 184.266 141.483 184.266 141.483L184.353 141.312C184.353 141.312 182.644 140.604 180.565 139.638L171.481 135.465L173.951 129.657L195.936 139.766L193.296 145.914L180.104 147.76C177.543 148.119 175.948 148.178 175.948 148.178L175.862 148.349C175.862 148.349 177.643 149.2 179.552 150.223L188.693 155.137L185.539 160.601L164.235 149.128Z" fill="white"/>
<path d="M25.8593 69.0652L30.7127 70.9839L26.8365 81.7243L31.3694 83.2232L34.9979 73.1712L39.7309 75.0497L36.2112 84.8018L44.6891 87.5542L42.8667 93.7276L19.6814 86.1757L25.8593 69.0652Z" fill="white"/>
<path d="M55.4994 53.099C59.6827 56.8893 60.4052 62.079 56.2224 67.371C52.3962 72.213 46.5068 74.534 38.8881 68.8832C31.3694 63.3098 32.3623 56.7166 36.3479 51.6746C40.5691 46.3331 45.9542 45.8837 50.1329 48.8588L46.1089 53.9508C44.1411 52.8443 42.2984 52.9694 40.465 55.2904C38.6106 57.6364 39.0358 60.487 43.1098 63.5418C47.0088 66.4576 50.0532 66.3512 51.7505 64.2046C53.5659 61.9086 53.2117 60.0487 51.4347 58.2405L55.4994 53.099Z" fill="white"/>
<path d="M71.4045 25.7225C75.681 23.7463 79.8661 23.3195 81.7111 27.6894C83.2246 31.2663 82.2655 32.8309 80.3931 34.396L80.4617 34.5391C82.4539 34.0734 85.1284 34.171 86.8281 38.1526C88.8726 42.9533 85.7421 45.7336 81.4657 47.7069L72.4225 51.8838L61.5819 30.2581L71.4045 25.7225ZM75.0377 34.4867C76.7123 33.7123 77.1916 32.9309 76.5168 31.3163C75.8671 29.7581 74.7608 29.6401 73.1408 30.3849L69.5304 32.0541L71.5703 36.088L75.0377 34.4867ZM79.1233 43.3237C80.9707 42.4678 81.4796 41.7451 80.6955 39.8992C79.9638 38.1683 78.6847 38.1299 76.835 38.9834L73.7155 40.4236L75.9148 44.8045L79.1233 43.3237Z" fill="white"/>
<path d="M115.425 41.6137L108.556 41.5957L106.587 37.2642L98.2771 37.9776L97.0777 42.5836L90.3111 43.7714L97.016 18.4822L104.499 17.8391L115.425 41.6137ZM104.717 32.6042L102.649 27.8958C101.938 26.297 101.399 24.8731 101.399 24.8731L101.272 24.8841C101.272 24.8841 100.986 26.3789 100.556 28.0755L99.3247 33.0675L104.717 32.6042Z" fill="white"/>
<path d="M121.535 34.5141L115.919 17.3467L123.173 18.7252L125.371 26.0039C125.784 27.3964 126.147 28.8749 126.147 28.8749L126.272 28.9023C126.272 28.9023 127.215 27.7074 128.17 26.6126L133.189 20.8962L140.364 22.6497L128.129 35.9449L126.257 43.969L119.913 42.5922L121.535 34.5141Z" fill="white"/>
<path d="M145.183 24.7347L160.414 33.0925L157.762 37.5892L148.362 32.4315L146.481 36.1153L155.158 40.8776L152.568 45.2609L144.17 40.6526L142.109 44.6749L151.257 49.6942L148.605 54.1915L134.211 46.2924L145.183 24.7347Z" fill="white"/>
<path d="M168.834 39.6421L176.223 47.5435C180.004 51.5861 180.906 55.488 176.407 59.4306C173.53 61.9452 171.434 62.64 168.9 61.6545L165.038 71.4019L160.475 65.8238L164.008 57.8637L161.902 55.6107L156.217 61.2702L151.547 56.8346L168.834 39.6421ZM165.512 52.0199L168.012 54.6909C169.402 56.1787 170.57 56.2194 172.126 54.8519C173.658 53.51 173.633 52.2268 172.243 50.739L169.614 47.9273L165.512 52.0199Z" fill="white"/>
<path d="M174.937 93.68L172.729 87.3635L179.87 76.93C181.397 74.7131 182.292 73.5503 182.292 73.5503L182.219 73.3735C182.219 73.3735 180.563 74.198 178.471 75.1335L169.363 79.2534L166.596 73.5823L188.643 63.6168L191.556 69.6397L184.305 80.8069C182.912 82.9326 181.897 84.2157 181.897 84.2157L181.969 84.3931C181.969 84.3931 183.778 83.607 185.803 82.8372L195.505 79.158L197.568 85.1222L174.937 93.68Z" fill="white"/>
<path d="M67.0831 253.084H61.8824V245.439C61.8824 245.316 61.8708 245.091 61.8504 244.764C61.83 244.439 61.7597 244.113 61.6369 243.785C61.5142 243.461 61.3007 243.165 60.9942 242.9C60.6894 242.634 60.2304 242.502 59.6168 242.502C58.924 242.502 58.3947 242.634 58.0265 242.9C57.6583 243.165 57.3838 243.511 57.1994 243.94C57.0179 244.367 56.9039 244.849 56.8655 245.378C56.8224 245.907 56.8021 246.418 56.8021 246.906C56.8021 247.803 56.8655 248.619 56.9859 249.352C57.1086 250.088 57.2924 250.79 57.5379 251.464C57.781 252.137 58.0765 252.799 58.4244 253.451C58.7693 254.103 59.1898 254.798 59.6784 255.532C60.085 256.184 60.4939 256.815 60.9029 257.428C61.31 258.039 61.7393 258.673 62.1889 259.325C62.8003 260.181 63.432 261.119 64.084 262.139C64.8204 263.32 65.4108 264.412 65.861 265.412C66.3083 266.41 66.6561 267.337 66.9016 268.194C67.1447 269.05 67.2989 269.845 67.3605 270.578C67.4199 271.314 67.4513 271.986 67.4513 272.597C67.4513 272.843 67.4309 273.372 67.3902 274.187C67.3489 275.005 67.1767 275.911 66.8696 276.91C66.5631 277.91 66.0948 278.909 65.4608 279.908C64.8291 280.907 63.9025 281.673 62.6775 282.202C62.3093 282.363 61.8213 282.518 61.21 282.661C60.5963 282.804 59.8215 282.874 58.8833 282.874C57.129 282.874 55.7522 282.588 54.7523 282.018C53.7524 281.448 53.0276 280.875 52.5803 280.306C51.6828 279.286 51.1512 278.205 50.9895 277.062C50.826 275.922 50.7236 274.719 50.6829 273.454V266.297H55.9453V274.187C55.9453 275.25 56.0383 276.033 56.2204 276.542C56.4042 277.053 56.7201 277.471 57.1697 277.798C57.2924 277.88 57.4972 277.991 57.781 278.135C58.0672 278.278 58.4331 278.348 58.8833 278.348C59.5761 278.348 60.117 278.175 60.5056 277.828C60.8918 277.482 61.1687 277.053 61.3327 276.542C61.4938 276.033 61.5846 275.484 61.6073 274.891C61.6276 274.301 61.6369 273.76 61.6369 273.269C61.6369 271.72 61.4845 270.417 61.178 269.356C60.8738 268.296 60.3305 267.092 59.5557 265.748C58.7402 264.319 57.8741 262.963 56.9562 261.68C56.0384 260.394 55.1705 259.059 54.355 257.671C54.1095 257.305 53.8048 256.806 53.4366 256.172C53.0689 255.541 52.7118 254.798 52.3669 253.94C52.019 253.084 51.7125 252.116 51.4484 251.035C51.1826 249.956 51.0511 248.782 51.0511 247.517C51.0511 245.153 51.467 243.308 52.3052 241.982C53.1416 240.658 54.0072 239.729 54.907 239.198C55.3543 238.914 55.9773 238.648 56.7724 238.403C57.5676 238.16 58.5762 238.037 59.8012 238.037C60.085 238.037 60.544 238.058 61.178 238.098C61.812 238.139 62.4734 238.28 63.1685 238.526C63.8612 238.771 64.5342 239.18 65.1863 239.75C65.8383 240.322 66.3292 241.135 66.6561 242.196C66.7789 242.604 66.8696 243.032 66.9313 243.481C66.9923 243.931 67.0424 244.582 67.0831 245.439V253.084Z" fill="white"/>
<path d="M88.7212 239.093L81.4614 260.799L90.0253 282.874H84.1923L77.6782 265.698C77.4717 265.159 77.285 264.623 77.1192 264.085C76.9534 263.549 76.7673 262.991 76.5626 262.411V282.874H70.9163V239.093H76.6242V258.132C76.6242 258.628 76.6039 259.145 76.5626 259.681C76.7266 259.061 76.8924 258.432 77.0581 257.789C77.2239 257.151 77.4077 256.5 77.6171 255.839L82.8271 239.093H88.7212Z" fill="white"/>
<path d="M107.641 239.093V244.551H99.0185V257.387H106.712V262.845H99.0795V277.356H107.641V282.874H93.1855V239.093H107.641Z" fill="white"/>
<path d="M129.511 239.093V244.303H122.685V282.874H116.791V244.303H110.154V239.093H129.511Z" fill="white"/>
<path d="M181.777 277.481H191.331V282.874H176.005V239.093H181.777V277.481Z" fill="white"/>
<path d="M200.449 277.481H210.003V282.874H194.68V239.093H200.449V277.481Z" fill="white"/>
<path d="M19.0023 268.72C19.0204 270.022 19.0204 271.326 18.975 272.62C18.9366 273.767 19.0204 275.041 18.5661 276.12C18.1141 277.192 17.3027 277.462 16.208 277.496C15.9713 277.503 12.9902 277.546 12.9902 277.464C12.9902 272.388 12.9902 267.285 12.9925 262.209C14.1152 262.214 15.2395 262.216 16.3622 262.22C17.294 262.222 18.1572 262.379 18.5981 263.31C18.8843 263.914 18.9069 264.605 18.925 265.273C18.9546 266.415 18.9866 267.567 19.0023 268.72ZM13.0653 244.303C13.747 244.303 14.4584 244.296 15.1401 244.292C15.5397 244.29 15.9102 244.294 16.3075 244.301C16.7077 244.31 17.1212 244.319 17.4935 244.478C18.6592 244.975 18.8866 246.506 18.8662 247.614C18.8505 248.582 18.8662 249.33 18.8662 249.906V254.094C18.8662 255.059 18.7546 256.254 18.0118 256.967C17.5505 257.41 17.0119 257.403 16.4192 257.403H13.0653V244.303ZM19.2775 259.663C20.5455 259.583 24.3304 258.971 24.3304 254.462V244.265C24.3304 238.848 18.8662 239.053 18.8662 239.053H7.35791V259.672H7.37827V282.874H18.5638C18.5638 282.874 24.3514 283.103 24.3514 277.003V265.52C24.3514 260.417 20.5269 259.745 19.2775 259.663Z" fill="white"/>
<path d="M144.073 268.72C144.089 270.022 144.089 271.326 144.043 272.62C144.005 273.767 144.089 275.041 143.637 276.12C143.182 277.192 142.373 277.462 141.278 277.496C141.042 277.503 138.061 277.546 138.061 277.464C138.061 272.388 138.061 267.285 138.061 262.209C139.185 262.214 140.308 262.216 141.43 262.22C142.364 262.222 143.228 262.379 143.668 263.31C143.952 263.914 143.975 264.605 143.993 265.273C144.025 266.415 144.055 267.567 144.073 268.72ZM138.133 244.303C138.815 244.303 139.526 244.296 140.21 244.292C140.608 244.29 140.978 244.294 141.378 244.301C141.776 244.31 142.189 244.319 142.562 244.478C143.73 244.975 143.955 246.506 143.936 247.614C143.918 248.582 143.936 249.33 143.936 249.906V254.094C143.936 255.059 143.823 256.254 143.08 256.967C142.621 257.41 142.08 257.403 141.487 257.403H138.133V244.303ZM144.346 259.663C145.615 259.583 149.401 258.971 149.401 254.462V244.265C149.401 238.848 143.936 239.053 143.936 239.053H132.425V259.672H132.446V282.874H143.634C143.634 282.874 149.421 283.103 149.421 277.003V265.52C149.421 260.417 145.595 259.745 144.346 259.663Z" fill="white"/>
<path d="M37.3022 249.917L36.7479 254.367L34.8871 269.604H40.0995L37.3022 249.917ZM47.6042 282.874H41.9602L40.8423 274.814H34.2665L33.2736 282.874H27.6297L33.8326 239.093H40.8423L47.6042 282.874Z" fill="white"/>
<path d="M162.193 249.917L161.641 254.367L159.778 269.604H164.99L162.193 249.917ZM172.497 282.874H166.851L165.735 274.814H159.157L158.164 282.874H152.52L158.723 239.093H165.735L172.497 282.874Z" fill="white"/>
</svg>
