<svg
          width="476"
          height="72"
          viewBox="0 0 476 72"
          fill="none"
          xmlns="http://www.w3.org/2000/svg"
        >
          <g clipPath="url(#clip0_264_643)">
            <path
              d="M43.4235 31.969C45.3349 28.4963 46.6531 25.5373 46.6531 21.5621C46.6531 16.2358 44.3353 11.9256 40.4356 9.46904C36.9534 7.35862 32.7242 6.84497 26.3419 6.84497H0V70.6154H25.7817C33.8227 70.6154 38.8758 69.175 42.4349 66.1266C46.1698 63.0782 48.0702 58.3437 48.0702 52.3363C48.0702 48.0261 46.9058 44.6427 45.247 42.3537C43.7531 40.3214 42.0175 38.8921 40.0292 37.5298C41.0178 35.9219 42.2701 33.8896 43.4235 31.9467M38.5352 22.2209C38.5352 24.9231 37.5356 27.0447 36.0526 29.6576C35.2178 31.0981 34.317 32.6167 33.4052 34.1353H7.95311V14.639H25.8586C30.0878 14.639 33.1526 14.8958 35.1409 15.9901C37.5466 17.2631 38.5352 19.206 38.5352 22.2432M39.9413 52.3475C39.9413 55.8983 38.9417 58.6006 36.6238 60.3872C34.3829 62.0733 31.2412 62.8326 25.8476 62.8326H7.95311V41.9405H27.6821C31.2412 41.9405 33.8117 42.3648 35.8878 43.7941C38.7879 45.8264 39.9523 48.5286 39.9523 52.3363"
              fill="white"
            />
            <path
              d="M106.62 6.85608L88.6265 48.294L70.6441 6.85608H59.5383V70.6154H67.4145V17.933L84.7378 57.9305H92.4492L109.762 17.933V70.6154H117.638V6.85608H106.62Z"
              fill="white"
            />
            <path
              d="M192.654 6.85608L181.713 61.0571L169.366 16.4926H160.336L148.066 61.0571L137.048 6.85608H128.919L141.849 70.6154H152.878L164.807 27.1563L176.825 70.6154H187.854L200.695 6.85608H192.654Z"
              fill="white"
            />
            <path
              d="M379.717 1.71955L379.915 0.100445C381.288 0.066946 382.683 0.0446135 384.067 0.0334473L383.946 1.64139C382.518 1.66372 381.112 1.69722 379.706 1.73072"
              fill="white"
            />
            <path
              d="M474.561 47.6129C475.099 46.9205 475.571 46.2059 475.989 45.4913L475 43.7382C474.517 44.6873 473.924 45.6253 473.232 46.5409C467.97 53.397 456.6 59.1141 440.376 63.0781C424.821 66.8746 405.663 68.8846 384.979 68.8846V70.6153C405.795 70.6153 425.085 68.5942 440.771 64.7642C457.38 60.7109 469.068 54.7704 474.572 47.6017"
              fill="white"
            />
            <path
              d="M391.877 45.536C389.658 45.5918 387.406 45.6253 385.133 45.6253V53.2296C387.527 53.2296 389.922 53.1849 392.295 53.1291L391.877 45.536Z"
              fill="white"
            />
            <path
              d="M392.383 54.6476L392.844 63.0334C390.449 63.0893 388.022 63.1116 385.572 63.1228C385.418 63.1228 385.275 63.1228 385.122 63.1228V54.7481C387.549 54.7481 389.966 54.7034 392.372 54.6476"
              fill="white"
            />
            <path
              d="M447.944 47.4566L450.778 54.7705C453.503 53.8325 456.029 52.8387 458.303 51.7779L455.315 45.0447C453.096 45.8933 450.625 46.7084 447.933 47.4678"
              fill="white"
            />
            <path
              d="M411.233 52.0795L409.991 44.5646C412.243 44.3747 414.462 44.1514 416.637 43.9058L418.252 51.376C415.956 51.6328 413.616 51.8673 411.233 52.0683"
              fill="white"
            />
            <path
              d="M402.577 54.2234L403.499 62.5981C406.158 62.4417 408.783 62.2519 411.343 62.0397L409.97 53.7097C407.531 53.9107 405.07 54.0782 402.577 54.2234Z"
              fill="white"
            />
            <path
              d="M418.571 52.8722L420.35 61.1241C417.912 61.4144 415.407 61.6824 412.858 61.9057L411.485 53.5757C413.88 53.3636 416.242 53.1291 418.571 52.8611"
              fill="white"
            />
            <path
              d="M427.161 50.2147L425.151 42.778C425.151 42.778 425.107 42.778 425.096 42.778C422.833 43.1241 420.515 43.4368 418.164 43.7159L419.779 51.1861C422.306 50.8847 424.766 50.5608 427.172 50.1923"
              fill="white"
            />
            <path
              d="M427.556 51.6886L429.742 59.8065C427.205 60.2196 424.569 60.5993 421.866 60.9343L420.087 52.6936C422.624 52.3921 425.118 52.0571 427.556 51.6886Z"
              fill="white"
            />
            <path
              d="M400.05 45.2345C397.864 45.3462 395.645 45.4243 393.404 45.4913L393.832 53.0844C396.205 53.0174 398.556 52.9169 400.885 52.7941L400.05 45.2345Z"
              fill="white"
            />
            <path
              d="M401.05 54.3126L401.961 62.6873C399.468 62.8213 396.941 62.9218 394.371 62.9888L393.898 54.6029C396.293 54.5248 398.677 54.4355 401.039 54.3126"
              fill="white"
            />
            <path
              d="M408.464 44.6874C406.202 44.866 403.906 45.0224 401.577 45.1564L402.401 52.7159C404.872 52.5708 407.3 52.4033 409.706 52.2134L408.464 44.6985V44.6874Z"
              fill="white"
            />
            <path
              d="M428.677 49.9801L426.667 42.5434C429.16 42.1414 431.566 41.7059 433.873 41.2369L436.267 48.6513C433.829 49.1315 431.302 49.5781 428.677 49.9801Z"
              fill="white"
            />
            <path
              d="M438.245 49.8014L440.782 57.6402C443.814 56.9032 446.692 56.1215 449.339 55.2506L446.472 47.8585C443.913 48.5397 441.167 49.1873 438.245 49.7903"
              fill="white"
            />
            <path
              d="M436.74 50.103L439.299 58.0087C439.189 58.0311 439.08 58.0646 438.959 58.0981C436.498 58.6229 433.939 59.1142 431.258 59.572L429.072 51.4653C431.742 51.041 434.301 50.5943 436.74 50.1142"
              fill="white"
            />
            <path
              d="M460.819 42.5881C459.589 43.2358 458.226 43.8611 456.743 44.4752L459.687 51.108C462.225 49.8462 464.455 48.5062 466.355 47.0881L463.301 41.0583C462.543 41.6055 461.72 42.1303 460.83 42.5881"
              fill="white"
            />
            <path
              d="M391.789 44.0286C389.592 44.0844 387.373 44.1067 385.133 44.1179V35.7767C387.22 35.7767 389.296 35.7432 391.328 35.7097L391.789 44.0286Z"
              fill="white"
            />
            <path
              d="M416.319 42.4094L414.594 34.4032C412.573 34.593 410.508 34.7717 408.399 34.928L409.739 43.057C411.969 42.8672 414.166 42.6439 416.308 42.4094"
              fill="white"
            />
            <path
              d="M422.646 33.4764L424.755 41.2928C422.514 41.639 420.207 41.9405 417.835 42.2308L416.121 34.2581C418.241 34.0348 420.306 33.7891 422.328 33.5323C422.437 33.5211 422.547 33.4988 422.646 33.4876"
              fill="white"
            />
            <path
              d="M433.4 39.763L430.951 32.1812C428.776 32.572 426.513 32.9405 424.173 33.2643L426.271 41.0472C428.732 40.6563 431.105 40.2209 433.4 39.763Z"
              fill="white"
            />
            <path
              d="M437.772 48.3498L435.377 40.9243C438.069 40.3436 440.639 39.7183 443.056 39.0483L445.912 46.4404C443.363 47.1215 440.639 47.758 437.772 48.3498Z"
              fill="white"
            />
            <path
              d="M454.711 43.6489L451.471 36.3239C449.307 37.139 447 37.9095 444.539 38.6353L447.406 46.0385C450.065 45.2904 452.514 44.4976 454.722 43.6489"
              fill="white"
            />
            <path
              d="M392.306 25.7047C394.195 25.6712 396.063 25.6154 397.897 25.5596L398.82 33.9678C396.842 34.0571 394.821 34.1241 392.778 34.1688L392.306 25.7047Z"
              fill="white"
            />
            <path
              d="M398.985 35.464C396.974 35.5533 394.931 35.6092 392.866 35.665L393.327 43.9727C395.546 43.9057 397.732 43.8275 399.896 43.7159L398.985 35.464Z"
              fill="white"
            />
            <path
              d="M405.257 25.2246L406.63 33.5435C404.576 33.6775 402.478 33.8003 400.347 33.9008L399.424 25.5038C401.401 25.4256 403.345 25.3363 405.257 25.2358"
              fill="white"
            />
            <path
              d="M408.223 43.1799L406.883 35.0397C404.796 35.1848 402.676 35.2965 400.511 35.397L401.412 43.6377C403.719 43.5037 405.993 43.3585 408.223 43.1799Z"
              fill="white"
            />
            <path
              d="M414.275 32.9181C412.276 33.108 410.233 33.2866 408.157 33.4318L406.784 25.1353C408.739 25.0236 410.65 24.8896 412.518 24.7556L414.275 32.907V32.9181Z"
              fill="white"
            />
            <path
              d="M414.045 24.6439L415.792 32.7729C417.956 32.5496 420.065 32.3039 422.119 32.0359C422.163 32.0359 422.196 32.0248 422.24 32.0248L420.109 24.1079C418.142 24.3089 416.121 24.4876 414.045 24.6551"
              fill="white"
            />
            <path
              d="M428.029 23.1588L430.478 30.7295C428.325 31.1204 426.084 31.4665 423.778 31.7903L421.657 23.9293C423.865 23.6948 425.997 23.438 428.029 23.1588Z"
              fill="white"
            />
            <path
              d="M429.567 22.9467L431.994 30.4504C434.488 29.9814 436.872 29.4678 439.135 28.9095L436.388 21.8301C434.268 22.2209 431.983 22.6005 429.567 22.9467Z"
              fill="white"
            />
            <path
              d="M439.684 30.3387L442.507 37.6191C440.101 38.2779 437.564 38.8921 434.905 39.4616L432.467 31.9132C434.993 31.433 437.399 30.9082 439.695 30.3499"
              fill="white"
            />
            <path
              d="M443.968 37.206C446.406 36.5025 448.702 35.7432 450.844 34.9392L447.768 28.005C445.703 28.7085 443.495 29.3561 441.167 29.9703L443.968 37.206Z"
              fill="white"
            />
            <path
              d="M451.339 17.4976L454.426 23.5832C453.701 24.0187 452.888 24.4318 452.009 24.8003C450.921 25.2581 449.79 25.6936 448.593 26.1179L445.726 19.6415C447.988 18.9715 449.867 18.2457 451.339 17.4976Z"
              fill="white"
            />
            <path
              d="M452.262 34.3809C453.349 33.9454 454.393 33.4987 455.392 33.0409C456.458 32.5496 457.457 31.9801 458.369 31.3548L455.118 24.9342C454.349 25.392 453.514 25.8052 452.602 26.1848C451.526 26.6315 450.394 27.067 449.208 27.4913L452.262 34.3809Z"
              fill="white"
            />
            <path
              d="M456.128 43.0905L452.888 35.7767C453.986 35.3412 455.03 34.8834 456.04 34.4144C457.073 33.9342 458.095 33.3647 459.061 32.7059L462.598 39.6848C461.84 40.2432 461.017 40.7791 460.116 41.2481C458.918 41.8734 457.578 42.4876 456.139 43.0794"
              fill="white"
            />
            <path
              d="M390.779 25.7271C388.922 25.7605 387.033 25.7717 385.133 25.7829V34.2692C387.198 34.2692 389.23 34.2357 391.24 34.2022L390.768 25.7382L390.779 25.7271Z"
              fill="white"
            />
            <path
              d="M388.845 1.60794C387.901 1.60794 386.967 1.58561 386.011 1.58561V0C386.923 0 387.824 0 388.725 0L388.845 1.59677V1.60794Z"
              fill="white"
            />
            <path
              d="M394.788 1.71955L394.591 0.100445C393.217 0.066946 391.833 0.0446135 390.438 0.0334473L390.559 1.64139C391.987 1.66372 393.393 1.69722 394.799 1.73072"
              fill="white"
            />
            <path
              d="M396.502 1.76431L396.304 0.134033C397.886 0.178698 399.457 0.223363 401.006 0.290361L401.269 1.94297C399.699 1.87597 398.117 1.82014 396.513 1.76431"
              fill="white"
            />
            <path
              d="M407.948 2.28913L407.619 0.614188C406.004 0.524858 404.378 0.435528 402.73 0.36853L402.994 2.02114C404.675 2.0993 406.333 2.18863 407.959 2.28913"
              fill="white"
            />
            <path
              d="M409.684 2.4007L409.354 0.7146C411.013 0.826262 412.661 0.937925 414.265 1.06075L414.693 2.76919C413.056 2.6352 411.386 2.51237 409.684 2.4007Z"
              fill="white"
            />
            <path
              d="M421.756 3.43918L421.207 1.69725C419.526 1.51859 417.813 1.36226 416.055 1.20593L416.484 2.91437C418.285 3.0707 420.054 3.24936 421.756 3.42802"
              fill="white"
            />
            <path
              d="M423.591 3.64025L423.042 1.89832C425.151 2.13281 427.194 2.38963 429.149 2.66879L429.808 4.45539C427.82 4.16506 425.744 3.89707 423.58 3.65142"
              fill="white"
            />
            <path
              d="M378.003 1.76431L378.201 0.134033C376.619 0.178698 375.048 0.223363 373.5 0.290361L373.236 1.94297C374.807 1.87597 376.389 1.82014 377.992 1.76431"
              fill="white"
            />
            <path
              d="M366.513 2.28913L366.842 0.614188C368.457 0.524858 370.083 0.435528 371.731 0.36853L371.467 2.02114C369.786 2.0993 368.128 2.18863 366.502 2.28913"
              fill="white"
            />
            <path
              d="M437.717 5.78416L436.894 3.93056C435.048 3.58441 433.104 3.24942 431.061 2.93677L431.72 4.73453C433.84 5.05836 435.839 5.41568 437.706 5.78416"
              fill="white"
            />
            <path
              d="M440.618 28.541L437.904 21.5397C440.233 21.0708 442.353 20.5794 444.254 20.0658L447.154 26.6092C445.11 27.3015 442.924 27.938 440.618 28.541Z"
              fill="white"
            />
            <path
              d="M447.11 8.15131L446.253 6.16372C444.122 5.50491 441.661 4.89077 438.926 4.32129L439.75 6.19722C442.551 6.8002 445.011 7.45901 447.11 8.15131Z"
              fill="white"
            />
            <path
              d="M449.285 8.94412L448.395 6.88953C448.691 7.00119 448.988 7.10169 449.274 7.21335C451.229 7.97265 452.712 8.73196 453.997 9.96025C453.997 9.96025 454.019 9.97141 454.019 9.98258C454.052 10.0161 454.107 10.0719 454.184 10.1501C454.799 10.7642 455.37 11.5012 455.93 12.4057C456.029 12.5396 456.084 12.6178 456.084 12.6178L459.083 17.7431C458.841 19.5409 457.655 21.2717 455.7 22.7456L452.657 16.7493C452.723 16.7047 452.789 16.66 452.844 16.6265C452.844 16.6265 452.855 16.6265 452.866 16.6153C452.921 16.5707 452.976 16.5372 453.03 16.4925C453.03 16.4925 453.052 16.4813 453.063 16.4702C453.118 16.4367 453.173 16.392 453.217 16.3585C453.217 16.3585 453.239 16.3473 453.25 16.3362C453.294 16.3027 453.349 16.258 453.393 16.2245C453.404 16.2245 453.415 16.2022 453.426 16.191C453.47 16.1575 453.514 16.1129 453.558 16.0794C453.558 16.0794 453.58 16.057 453.591 16.0459C453.635 16.0124 453.679 15.9677 453.711 15.9342C453.711 15.9342 453.733 15.9119 453.744 15.9007C453.788 15.8672 453.821 15.8225 453.865 15.789C453.865 15.789 453.887 15.7667 453.898 15.7555C453.931 15.722 453.975 15.6774 454.008 15.6439L454.03 15.6215C454.063 15.5769 454.107 15.5434 454.14 15.4987C454.14 15.4987 454.151 15.4875 454.162 15.4764C454.195 15.4429 454.228 15.3982 454.261 15.3535C454.261 15.3535 454.261 15.3424 454.272 15.3312C454.305 15.2865 454.338 15.2419 454.371 15.2084C454.733 14.7059 454.92 14.2034 454.92 13.6898C454.92 12.0037 452.91 10.4069 449.263 8.94412"
              fill="white"
            />
            <path
              d="M456.392 24.1079L459.599 30.4392C461.478 28.9094 462.884 27.1563 463.587 25.4367L460.171 19.5856C459.512 21.2382 458.226 22.7791 456.392 24.1079Z"
              fill="white"
            />
            <path
              d="M464.532 27.0334L468.058 33.0632C467.124 35.0173 465.729 36.9826 463.796 38.7022L460.302 31.8014C462.071 30.4168 463.576 28.7754 464.532 27.0334Z"
              fill="white"
            />
            <path
              d="M469.958 36.3127L468.959 34.6042C467.915 36.5248 466.443 38.4343 464.499 40.0869L467.542 46.0943C468.827 45.0335 469.991 43.9392 470.914 42.8003C471.002 42.6886 471.046 42.577 471.134 42.4653C471.672 41.5608 472.1 40.6899 472.265 40.0757C471.474 38.7246 470.793 37.5745 469.958 36.3015"
              fill="white"
            />
            <path
              d="M312.83 70.5373H307.249V25.8052H312.83V31.0645C314.631 29.7804 316.224 28.7643 318.278 27.7593C320.794 26.5199 324.155 25.4926 327.978 24.8114L328.307 24.7556V30.5174L328.077 30.5621C325.078 31.1539 322.617 31.9244 320.069 33.0521C317.795 34.0683 315.356 35.4864 312.83 37.2953V70.5596V70.5373Z"
              fill="white"
            />
            <path
              d="M373.323 70.5372H365.546L365.469 70.459L343.884 47.9478V70.5372H338.314V6.88953H343.884V44.6761L363.503 25.8052H371.467L350.178 46.3399L373.323 70.5372Z"
              fill="white"
            />
            <path
              d="M249.655 11.8362C246.37 8.33004 242.196 6.90076 235.21 6.90076H211.801V70.5484H217.458V45.871C225.675 45.871 234.1 45.871 237.703 45.536C243.866 44.9777 247.612 43.2916 250.248 39.9082C252.961 36.402 254.181 31.9355 254.181 25.4256C254.181 19.9653 252.445 14.7618 249.655 11.8474V11.8362ZM246.261 35.464C244.514 38.1216 241.878 39.3946 237.165 39.8524C232.87 40.2655 225.06 40.2655 217.469 40.2655V12.4839H234.803C239.175 12.4839 242.559 12.9529 244.898 15.2531C247.062 17.3747 248.348 21.1712 248.348 25.4256C248.348 30.0931 247.7 33.1973 246.25 35.4752L246.261 35.464Z"
              fill="white"
            />
            <path
              d="M296.923 28.9318C290.519 26.5087 284.994 24.4207 279.688 24.4207C272.174 24.4207 267.791 26.4976 264.562 31.5782C261.673 36.1787 261.057 43.0683 261.057 48.0484C261.057 55.273 262.079 61.5708 263.804 64.9095C266.319 69.8115 270.098 72.0001 276.063 72.0001C279.853 72.0001 282.917 70.2916 286.927 67.3437C288.553 66.1043 289.981 64.9206 291.585 63.4802V70.5819H297.165V29.0211L296.912 28.9318H296.923ZM291.596 56.613C290.036 58.0087 287.103 60.5881 284.291 62.7879C280.973 65.412 278.436 66.5733 276.063 66.5733C272.273 66.5733 270.087 65.1216 268.494 61.5484C267.396 59.0807 266.715 53.9107 266.715 48.0261C266.715 42.1415 267.582 37.7532 269.153 34.9504C271.175 31.3102 274.228 29.8251 279.688 29.8251C283.686 29.8251 287.707 31.2991 291.596 32.7507V56.6018V56.613Z"
              fill="white"
            />
          </g>
          <defs>
            <clipPath id="clip0_264_643">
              <rect width="476" height="72" fill="white" />
            </clipPath>
          </defs>
        </svg>