<svg width="144" height="22" viewBox="0 0 144 22" fill="none" xmlns="http://www.w3.org/2000/svg">
<path d="M117.637 0.491315C117.494 0.491315 117.352 0.489619 117.21 0.487918C117.068 0.486207 116.924 0.484491 116.779 0.484491V0H117.6L117.637 0.487903V0.491315Z" fill="white"/>
<path d="M114.935 0.0306914L114.875 0.525418L114.872 0.52883C115.297 0.518594 115.722 0.508359 116.154 0.501535L116.191 0.01022C115.772 0.0136319 115.35 0.0204557 114.935 0.0306914Z" fill="white"/>
<path fill-rule="evenodd" clip-rule="evenodd" d="M14.1139 6.58841C14.1139 7.80305 13.7151 8.70721 13.1368 9.76831V9.76149C12.8082 10.3207 12.453 10.904 12.1629 11.3805L12.1099 11.4674C12.7115 11.8837 13.2365 12.3204 13.6885 12.9414C14.1903 13.6408 14.5426 14.6746 14.5426 15.9916C14.5426 17.8272 13.9677 19.2739 12.8377 20.2053C11.761 21.1368 10.2323 21.5769 7.79968 21.5769H0V2.09152H7.96917C9.89998 2.09152 11.1794 2.24846 12.2329 2.89332C13.4127 3.64394 14.1139 4.96093 14.1139 6.58841ZM10.9069 9.06205C11.355 8.26469 11.6572 7.61707 11.658 6.79292C11.6572 5.86696 11.3579 5.27432 10.6311 4.88587C10.0296 4.5515 9.1024 4.47303 7.82295 4.47303H2.40604V10.4302H10.106C10.3819 9.9662 10.6544 9.50218 10.9069 9.06205ZM11.0797 18.4516C11.7809 17.9057 12.0834 17.08 12.0834 15.995L12.0867 15.9916C12.0867 14.8282 11.7344 14.0025 10.8571 13.3815C10.229 12.9448 9.45134 12.8151 8.37461 12.8151H2.40604V19.1988H7.81962C9.45134 19.1988 10.4018 18.9668 11.0797 18.4516Z" fill="white"/>
<path d="M26.8121 14.7565L32.2556 2.09491H35.5888V21.5769H33.206V5.47952L27.9686 17.701H25.6356L20.3949 5.47952V21.5769H18.0121V2.09491H21.3719L26.8121 14.7565Z" fill="white"/>
<path d="M58.2833 2.09491L54.9733 18.6563L51.238 5.03939H48.5063L44.7942 18.6563L41.461 2.09491H39.0017L42.9132 21.5769H46.2498L49.8588 8.29776L53.4945 21.5769H56.831L60.7159 2.09491H58.2833Z" fill="white"/>
<path d="M143.568 14.5484C143.731 14.3368 143.874 14.1185 144 13.9001L143.701 13.3644C143.555 13.6544 143.375 13.941 143.166 14.2208C141.574 16.3157 138.134 18.0626 133.226 19.2739C128.52 20.4339 122.725 21.048 116.467 21.048V21.5769C122.764 21.5769 128.6 20.9593 133.346 19.7891C138.37 18.5505 141.906 16.7354 143.571 14.5449L143.568 14.5484Z" fill="white"/>
<path d="M116.513 13.9411C117.201 13.9411 117.883 13.9308 118.554 13.9138L118.68 16.2339C117.962 16.2509 117.238 16.2646 116.513 16.2646V13.9411Z" fill="white"/>
<path d="M118.707 16.6979L118.846 19.2602C118.122 19.2773 117.387 19.2841 116.646 19.2875H116.51V16.7286C117.245 16.7286 117.976 16.7149 118.703 16.6979H118.707Z" fill="white"/>
<path d="M135.517 14.5028L135.516 14.5006L135.512 14.504L135.517 14.5028Z" fill="white"/>
<path d="M136.373 16.7354L135.517 14.5028C136.329 14.2712 137.075 14.0225 137.746 13.7636L138.65 15.821C137.962 16.1452 137.197 16.4488 136.373 16.7354Z" fill="white"/>
<path d="M124.409 15.9132L124.034 13.6169C124.715 13.5589 125.386 13.4907 126.044 13.4156L126.533 15.6982C125.838 15.7767 125.131 15.8483 124.409 15.9097V15.9132Z" fill="white"/>
<path d="M122.07 19.1272L121.791 16.5682C122.545 16.5239 123.29 16.4727 124.027 16.4113L124.443 18.9566C123.668 19.0214 122.874 19.0794 122.07 19.1272Z" fill="white"/>
<path d="M126.629 16.1554L127.168 18.6768C126.43 18.7655 125.672 18.8474 124.901 18.9156L124.486 16.3703C125.21 16.3055 125.925 16.2339 126.629 16.152V16.1554Z" fill="white"/>
<path d="M129.227 15.3373L129.228 15.3434L129.232 15.3365L129.227 15.3373Z" fill="white"/>
<path d="M128.62 13.071L129.227 15.3373C128.5 15.4496 127.758 15.5483 126.995 15.6402L126.506 13.3576C127.218 13.2723 127.919 13.1768 128.603 13.071H128.62Z" fill="white"/>
<path d="M129.348 15.7937L130.009 18.2742C129.241 18.4004 128.444 18.5164 127.626 18.6188L127.088 16.1008C127.856 16.0087 128.61 15.9063 129.348 15.7937Z" fill="white"/>
<path d="M119.016 13.9001C119.694 13.8796 120.365 13.8558 121.026 13.8216L121.279 16.1315C120.574 16.169 119.863 16.1997 119.145 16.2202L119.016 13.9001Z" fill="white"/>
<path d="M121.329 16.5955L121.605 19.1544C120.85 19.1954 120.086 19.2261 119.308 19.2466L119.165 16.6842C119.89 16.6603 120.611 16.633 121.325 16.5955H121.329Z" fill="white"/>
<path d="M121.488 13.7978C122.193 13.7568 122.887 13.7091 123.572 13.6545V13.6579L123.947 15.9541C123.22 16.0121 122.485 16.0633 121.738 16.1076L121.488 13.7978Z" fill="white"/>
<path d="M129.687 15.2717L129.079 12.9994C129.833 12.8765 130.561 12.7435 131.259 12.6002L131.983 14.8657C131.245 15.0124 130.481 15.1489 129.687 15.2717Z" fill="white"/>
<path d="M133.349 17.6123L132.581 15.2171V15.2137C133.465 15.0294 134.296 14.8316 135.07 14.6234L135.938 16.8821C135.137 17.1482 134.266 17.3871 133.349 17.6123Z" fill="white"/>
<path d="M132.126 15.3092L132.9 17.7249C132.874 17.7302 132.848 17.7376 132.821 17.7455L132.797 17.7522C132.053 17.9125 131.279 18.0627 130.468 18.2025L129.806 15.7255C130.614 15.5958 131.388 15.4594 132.126 15.3127V15.3092Z" fill="white"/>
<path d="M138.178 13.5896C138.626 13.402 139.038 13.2109 139.411 13.013H139.414C139.683 12.8731 139.932 12.7128 140.162 12.5456L141.086 14.388C140.511 14.8213 139.836 15.2308 139.068 15.6163L138.178 13.5896Z" fill="white"/>
<path d="M118.527 13.4532C117.863 13.4702 117.191 13.477 116.513 13.4805V10.9318C117.145 10.9318 117.773 10.9215 118.388 10.9113L118.527 13.4532Z" fill="white"/>
<path d="M125.426 10.5121L125.948 12.9584H125.945C125.297 13.0301 124.632 13.0983 123.958 13.1563L123.552 10.6724C124.19 10.6247 124.815 10.5701 125.426 10.5121Z" fill="white"/>
<path d="M127.862 10.2289L128.5 12.6172C127.822 12.723 127.125 12.8151 126.407 12.9038L125.888 10.4677C126.53 10.3995 127.154 10.3244 127.766 10.246C127.784 10.2441 127.802 10.2413 127.819 10.2385C127.834 10.2362 127.849 10.2339 127.862 10.2323V10.2289Z" fill="white"/>
<path d="M130.375 9.83312L131.116 12.1498C130.421 12.2897 129.703 12.4228 128.959 12.5422L128.324 10.1641C129.032 10.0651 129.717 9.95254 130.375 9.83312Z" fill="white"/>
<path d="M132.438 14.7735L131.714 12.5046C132.528 12.3272 133.306 12.1361 134.037 11.9314L134.901 14.1901C134.13 14.3982 133.306 14.5927 132.438 14.7735Z" fill="white"/>
<path d="M136.583 11.0989L137.563 13.3372H137.566C136.898 13.5965 136.157 13.8387 135.353 14.0673L134.486 11.8052C135.23 11.5834 135.928 11.348 136.583 11.0989Z" fill="white"/>
<path d="M118.683 7.85422C119.255 7.84398 119.82 7.82692 120.375 7.80986L120.654 10.379C120.056 10.4063 119.445 10.4268 118.826 10.4404L118.683 7.85422Z" fill="white"/>
<path d="M118.853 10.8976C119.478 10.8806 120.096 10.8635 120.704 10.8362L120.98 13.3576C120.325 13.3917 119.664 13.4156 118.993 13.4361L118.853 10.8976Z" fill="white"/>
<path d="M122.602 7.70751L123.017 10.2494C122.396 10.2903 121.761 10.3279 121.116 10.3586L120.837 7.79281C121.435 7.76893 122.023 7.74163 122.602 7.71093V7.70751Z" fill="white"/>
<path d="M123.093 10.7066L123.499 13.1938C122.824 13.2484 122.136 13.2928 121.438 13.3337L121.166 10.8157C121.821 10.785 122.462 10.7509 123.093 10.7066Z" fill="white"/>
<path d="M125.33 10.0583C124.725 10.1163 124.107 10.1709 123.479 10.2153L123.063 7.68022C123.655 7.6461 124.233 7.60515 124.798 7.56421L125.33 10.0549V10.0583Z" fill="white"/>
<path d="M125.261 7.53343L125.26 7.53007V7.53348L125.261 7.53343Z" fill="white"/>
<path d="M125.261 7.53343L125.789 10.0139C126.443 9.9457 127.081 9.87064 127.703 9.78876C127.706 9.78876 127.709 9.78855 127.712 9.78824C127.715 9.78791 127.718 9.78748 127.721 9.78705L127.726 9.78631C127.73 9.78576 127.735 9.78534 127.739 9.78534L127.095 7.3663C126.5 7.42769 125.889 7.48226 125.261 7.53343Z" fill="white"/>
<path d="M129.491 7.0763L130.232 9.38957C129.58 9.50899 128.903 9.61476 128.205 9.7137L127.563 7.31172C128.231 7.24007 128.876 7.1616 129.491 7.0763Z" fill="white"/>
<path d="M130.69 9.30429L129.956 7.01149C130.687 6.90572 131.378 6.78971 132.02 6.6703L132.851 8.83345C132.166 9.00404 131.445 9.16099 130.69 9.30429Z" fill="white"/>
<path d="M133.017 9.27017L133.018 9.27403C132.324 9.44446 131.597 9.60466 130.833 9.75124L131.571 12.0577C132.375 11.8837 133.143 11.696 133.871 11.4947L133.018 9.27403L133.02 9.27358L133.017 9.27017Z" fill="white"/>
<path d="M136.393 10.6759C135.745 10.9215 135.05 11.1535 134.313 11.3685L133.465 9.15757C134.17 8.96992 134.838 8.77203 135.463 8.55708L136.393 10.6759Z" fill="white"/>
<path d="M136.543 5.34647L137.477 7.20596C137.257 7.33903 137.011 7.46527 136.745 7.57786C136.416 7.71775 136.074 7.85081 135.712 7.98047L134.845 6.00156C135.529 5.79684 136.097 5.57507 136.543 5.34647Z" fill="white"/>
<path d="M137.769 10.0958C137.467 10.2357 137.151 10.3722 136.822 10.5053L135.898 8.40011C136.257 8.27045 136.599 8.13739 136.925 8.00091C137.201 7.88491 137.453 7.75867 137.686 7.61878L138.67 9.58063C138.394 9.77169 138.091 9.9457 137.769 10.0958Z" fill="white"/>
<path d="M137.992 13.1665L137.011 10.9317C137.344 10.7987 137.659 10.6588 137.965 10.5155C138.277 10.3688 138.586 10.1948 138.879 9.99347L139.949 12.1259C139.72 12.2965 139.47 12.4603 139.198 12.6036C138.836 12.7946 138.43 12.9823 137.995 13.1631L137.992 13.1665Z" fill="white"/>
<path d="M116.513 7.8781C117.088 7.87469 117.66 7.87127 118.222 7.86104L118.218 7.86445L118.361 10.4507C117.753 10.4609 117.138 10.4711 116.513 10.4711V7.8781Z" fill="white"/>
<path d="M119.375 0.0306914L119.435 0.525418L119.438 0.52883C119.012 0.518594 118.587 0.508359 118.155 0.501535L118.119 0.01022C118.541 0.0136319 118.959 0.0204557 119.375 0.0306914Z" fill="white"/>
<path d="M119.953 0.539093L119.893 0.0409546C120.372 0.0546022 120.847 0.0682498 121.316 0.0887213L121.395 0.593684C120.92 0.573212 120.441 0.556153 119.956 0.539093H119.953Z" fill="white"/>
<path d="M123.416 0.699455L123.316 0.187668C122.828 0.160373 122.336 0.133078 121.837 0.112606L121.917 0.617569C122.424 0.641398 122.925 0.668833 123.416 0.699455Z" fill="white"/>
<path d="M123.941 0.733548L123.841 0.21835C124.343 0.252469 124.841 0.286588 125.327 0.324119L125.456 0.846141C124.961 0.805198 124.456 0.767667 123.941 0.733548Z" fill="white"/>
<path d="M127.592 1.04733L127.593 1.05086V1.04745L127.592 1.04733Z" fill="white"/>
<path d="M127.592 1.04733L127.427 0.518603C126.919 0.464013 126.4 0.416246 125.868 0.368479L125.998 0.890501C126.543 0.938234 127.077 0.99278 127.592 1.04733Z" fill="white"/>
<path d="M128.148 1.1123L127.982 0.58004C128.62 0.651691 129.238 0.730164 129.83 0.815462L130.029 1.36137C129.428 1.27266 128.799 1.19077 128.145 1.11571L128.148 1.1123Z" fill="white"/>
<path d="M114.416 0.0409546L114.357 0.539093H114.353C113.868 0.556153 113.39 0.573212 112.914 0.593684L112.994 0.0887213C113.463 0.0682498 113.938 0.0546022 114.416 0.0409546Z" fill="white"/>
<path d="M110.88 0.699245C111.371 0.668623 111.872 0.641398 112.379 0.617569L112.459 0.112606C111.961 0.133078 111.469 0.160373 110.98 0.187668L110.88 0.699245Z" fill="white"/>
<path d="M132.173 1.201L132.422 1.76738H132.418C131.854 1.65479 131.249 1.54561 130.607 1.44666L130.408 0.897345C131.026 0.992878 131.614 1.09524 132.173 1.201Z" fill="white"/>
<path d="M133.299 8.72085L132.478 6.58158C133.183 6.43828 133.824 6.28816 134.399 6.13121L135.277 8.13059C134.658 8.34213 133.997 8.53661 133.299 8.72085Z" fill="white"/>
<path d="M135.004 1.88336L135.263 2.49068C134.628 2.27914 133.884 2.07784 133.037 1.89359L132.787 1.32039C133.615 1.4944 134.359 1.68206 135.004 1.88336Z" fill="white"/>
<path d="M135.921 2.73292L135.652 2.10513C135.69 2.11962 135.728 2.13349 135.766 2.14727C135.817 2.16594 135.868 2.18445 135.918 2.20408C136.509 2.43609 136.958 2.6681 137.347 3.04341C137.347 3.04341 137.354 3.04682 137.354 3.05023L137.403 3.10141C137.589 3.28906 137.762 3.51425 137.932 3.79061C137.962 3.83156 137.978 3.85544 137.978 3.85544L138.886 5.42151C138.812 5.97082 138.454 6.49967 137.862 6.95004L136.941 5.11785C136.961 5.1042 136.981 5.09055 136.998 5.08032L136.998 5.08028L136.999 5.08013C137 5.08 137 5.07978 137.001 5.0794C137.002 5.07889 137.003 5.07811 137.005 5.0769C137.013 5.07008 137.021 5.06411 137.03 5.05814C137.034 5.05493 137.038 5.05171 137.043 5.04837C137.047 5.0455 137.051 5.04253 137.054 5.03937C137.054 5.03937 137.057 5.03818 137.059 5.0365L137.061 5.03523C137.062 5.03438 137.064 5.03346 137.064 5.03255C137.078 5.02429 137.091 5.01382 137.103 5.00471L137.111 4.99843C137.111 4.99843 137.118 4.99502 137.121 4.99161C137.126 4.98801 137.131 4.984 137.136 4.97986L137.142 4.97455L137.157 4.96332L137.164 4.95749C137.166 4.95749 137.169 4.95445 137.171 4.95142C137.172 4.95032 137.172 4.94921 137.173 4.94825L137.174 4.94725C137.181 4.94213 137.187 4.93616 137.194 4.93019L137.201 4.92429L137.205 4.92068L137.207 4.91833C137.21 4.91653 137.212 4.91479 137.214 4.91313L137.224 4.9029C137.237 4.89266 137.25 4.87901 137.26 4.86878L137.27 4.85854C137.277 4.85342 137.283 4.84745 137.289 4.84148C137.295 4.83551 137.3 4.82954 137.307 4.82442L137.357 4.77324C137.362 4.76642 137.368 4.76045 137.373 4.75448C137.379 4.74851 137.385 4.74254 137.39 4.73571L137.397 4.72889C137.407 4.71865 137.417 4.70501 137.427 4.69136C137.427 4.69136 137.427 4.68795 137.43 4.68453C137.44 4.67089 137.45 4.65724 137.46 4.647C137.57 4.49347 137.626 4.33993 137.626 4.18298C137.626 3.66779 137.018 3.17988 135.915 2.73292H135.921Z" fill="white"/>
<path d="M139.042 9.30085L138.071 7.3663C138.626 6.96028 139.015 6.48944 139.215 5.98448L140.248 7.77232C140.035 8.29775 139.61 8.83342 139.042 9.30085Z" fill="white"/>
<path d="M140.534 8.26021L141.601 10.1026C141.318 10.6997 140.896 11.3002 140.311 11.8257L139.254 9.7171C139.789 9.29402 140.245 8.79247 140.534 8.26021Z" fill="white"/>
<path d="M141.873 10.5735L142.176 11.0955V11.0921C142.428 11.4811 142.634 11.8325 142.873 12.2453C142.824 12.433 142.694 12.6991 142.531 12.9755C142.518 12.9926 142.508 13.0096 142.498 13.0267C142.488 13.0437 142.478 13.0608 142.465 13.0779C142.186 13.4259 141.833 13.7602 141.444 14.0844L140.524 12.2488C141.112 11.7438 141.557 11.1604 141.873 10.5735Z" fill="white"/>
<path d="M94.6397 21.553H92.9515V7.88493H94.6397V9.49194C95.1848 9.09957 95.6666 8.78909 96.2881 8.48201C97.0491 8.10329 98.066 7.7894 99.2225 7.58127L99.3222 7.56421V9.32475L99.2524 9.3384C98.3452 9.51923 97.6008 9.75466 96.8298 10.0993C96.1419 10.4097 95.4041 10.8431 94.6397 11.3958V21.553Z" fill="white"/>
<path d="M110.588 21.553H112.941L105.939 14.1594L112.379 7.8849H109.97L104.035 13.651V2.10513H102.35V21.553H104.035V14.6507L110.565 21.5291L110.588 21.553Z" fill="white"/>
<path fill-rule="evenodd" clip-rule="evenodd" d="M75.5276 3.61663C74.534 2.54529 73.2711 2.10856 71.1575 2.10856H64.0757V21.5564H65.7872V14.0161C68.273 14.0161 70.8219 14.0161 71.9119 13.9138C73.7763 13.7432 74.9095 13.228 75.7071 12.1942C76.5279 11.1228 76.8968 9.75806 76.8968 7.76892C76.8968 6.1005 76.3717 4.51055 75.5276 3.62004V3.61663ZM74.5007 10.8362C73.9723 11.6483 73.1748 12.0372 71.7491 12.1771C70.4497 12.3033 68.0869 12.3033 65.7905 12.3033V3.81452H71.0346C72.3572 3.81452 73.3808 3.95782 74.0887 4.66067C74.7433 5.30893 75.1322 6.46898 75.1322 7.76892C75.1322 9.1951 74.9361 10.1436 74.4974 10.8396L74.5007 10.8362Z" fill="white"/>
<path fill-rule="evenodd" clip-rule="evenodd" d="M84.6134 7.46186C86.2186 7.46186 87.8902 8.09989 89.8276 8.84027H89.8243L89.9007 8.86757V21.5667H88.2125V19.3967C87.7273 19.8369 87.2953 20.1985 86.8035 20.5772C85.5905 21.478 84.6633 22 83.5168 22C81.7122 22 80.569 21.3313 79.808 19.8334C79.2863 18.8133 78.9772 16.889 78.9772 14.6815C78.9772 13.1597 79.1633 11.0546 80.0373 9.64889C81.0143 8.09648 82.3403 7.46186 84.6134 7.46186ZM86.0059 19.1852C86.8566 18.513 87.7439 17.7249 88.2158 17.2984V10.0071C87.0394 9.5636 85.8231 9.11322 84.6134 9.11322C82.9618 9.11322 82.0379 9.56701 81.4264 10.6793C80.9512 11.5357 80.6887 12.8766 80.6887 14.6746C80.6887 16.4727 80.8947 18.0524 81.227 18.8065C81.7089 19.8983 82.3702 20.3418 83.5168 20.3418C84.2346 20.3418 85.0022 19.987 86.0059 19.1852Z" fill="white"/>
</svg>

