<svg
          width="345"
          height="292"
          viewBox="0 0 345 292"
          fill="none"
          xmlns="http://www.w3.org/2000/svg"
        >
          <path
            d="M274.312 109.095C274.312 165.214 228.82 210.708 172.699 210.708C116.578 210.708 71.0857 165.214 71.0857 109.095C71.0857 52.9732 116.578 7.48167 172.699 7.48167C228.82 7.48167 274.312 52.9732 274.312 109.095ZM172.699 0.412354C112.675 0.412354 64.0164 49.0705 64.0164 109.095C64.0164 169.117 112.675 217.777 172.699 217.777C232.722 217.777 281.381 169.117 281.381 109.095C281.381 49.0705 232.722 0.412354 172.699 0.412354Z"
            fill="white"
          />
          <path
            d="M225.368 62.9864C226.844 64.5729 228.974 67.1301 230.165 68.6806L252.176 54.7089C251.076 53.2694 249.328 51.0865 248.017 49.5484L234.078 58.7653L233.133 59.5845L233.839 58.5472L239.991 46.2644L235.645 41.914L223.357 48.0691L222.321 48.7766L223.147 47.8241L232.369 33.8922C230.746 32.5103 229.191 31.2462 227.197 29.711L213.223 51.7029C214.995 53.0666 217.325 55.0627 218.812 56.4247L231.965 49.5997L232.808 48.9811L232.187 49.8247L225.368 62.9864Z"
            fill="white"
          />
          <path
            d="M175.439 35.1204L181.449 21.6516L181.836 20.4588L181.722 21.7046L182.36 39.7021C184.468 39.9049 186.644 40.196 188.797 40.552L187.817 13.8925C184.81 13.561 181.819 13.3228 178.828 13.1958L172.91 27.8979L172.699 28.9904L172.488 27.8979L166.57 13.1958C163.579 13.3228 160.588 13.561 157.581 13.8925L156.601 40.552C158.754 40.196 160.93 39.9049 163.038 39.7021L163.676 21.7046L163.562 20.4588L163.949 21.6516L169.959 35.1204H175.439Z"
            fill="white"
          />
          <path
            d="M109.645 58.9812C109.645 58.9812 116.794 51.4311 119.118 49.0147C120.047 48.0531 120.639 47.4749 121.283 47.1587C122.103 46.7537 123.003 46.6757 123.812 47.2123C124.604 47.7398 124.968 48.6586 124.769 49.5644C124.53 50.641 123.653 51.6692 122.918 52.4571C121.938 53.5115 113.462 62.5791 113.45 62.5905L109.645 58.9812ZM102.297 52.0076C106.079 47.3815 110.101 43.1849 111.923 41.5204C112.499 40.9952 113.125 40.4768 113.883 40.2655C115.119 39.9271 116.39 40.8038 116.68 42.0695C116.971 43.3404 116.167 44.5463 115.284 45.5432C113.279 47.7973 105.948 55.4722 105.948 55.4722L102.297 52.0076ZM126.797 56.362C130.272 52.702 132.243 48.4695 128.762 44.4307C126.871 42.2347 123.698 41.7562 121.061 42.842L120.799 42.9468L120.884 42.7149C121.277 41.6759 121.522 38.3537 118.691 36.0575C117.312 34.9404 115.581 34.5262 113.826 34.7045C110.562 35.0338 108.05 37.2634 101.209 44.8939C99.1464 47.1924 96.1443 50.8239 94.3386 53.176C94.3386 53.1777 113.12 70.9928 113.12 70.9928C119.357 64.095 121.892 61.5315 126.797 56.362Z"
            fill="white"
          />
          <path
            d="M237.149 109.095H172.699V44.6443C208.319 44.6443 237.149 73.4759 237.149 109.095Z"
            fill="white"
          />
          <path
            d="M172.699 109.095L172.699 173.543C137.079 173.543 108.249 144.716 108.249 109.095H172.699Z"
            fill="white"
          />
          <path
            d="M172.699 44.6466L172.699 109.095H108.249C108.249 73.4759 137.079 44.6466 172.699 44.6466Z"
            fill="#186DBF"
          />
          <path
            d="M237.149 109.095C237.149 144.716 208.319 173.543 172.699 173.543L172.699 109.095H237.149Z"
            fill="#186DBF"
          />
          <path
            d="M0.397217 282.911V250.597H11.377C13.9263 250.597 16.0102 251.054 17.6286 251.969C19.2576 252.874 20.4634 254.1 21.2462 255.646C22.029 257.192 22.4203 258.917 22.4203 260.821C22.4203 262.725 22.029 264.456 21.2462 266.012C20.474 267.569 19.2787 268.81 17.6603 269.736C16.0419 270.651 13.9686 271.109 11.4405 271.109H4.23562V267.638H11.3136C13.0589 267.638 14.4605 267.338 15.5183 266.738C16.5761 266.139 17.343 265.329 17.819 264.308C18.3055 263.277 18.5488 262.115 18.5488 260.821C18.5488 259.527 18.3055 258.37 17.819 257.35C17.343 256.33 16.5708 255.53 15.5024 254.952C14.434 254.363 13.0166 254.068 11.2501 254.068H4.33218V282.911H0.397217Z"
            fill="white"
          />
          <path
            d="M28.2514 282.911V258.675H31.869V262.336H32.1229C32.5672 261.137 33.3711 260.164 34.5346 259.417C35.6982 258.67 37.0099 258.297 38.4696 258.297C38.7446 258.297 39.0884 258.302 39.501 258.312C39.9135 258.323 40.2255 258.339 40.4371 258.36V262.147C40.3102 262.115 40.0193 262.068 39.5644 262.005C39.1202 261.931 38.6494 261.894 38.1523 261.894C36.9676 261.894 35.9098 262.141 34.9789 262.636C34.0586 263.12 33.3288 263.793 32.7893 264.655C32.2604 265.507 31.996 266.48 31.996 267.574V282.911H28.2514Z"
            fill="white"
          />
          <path
            d="M44.8758 282.911V258.675H48.6204V282.911H44.8758ZM46.7799 254.636C46.05 254.636 45.4206 254.389 44.8917 253.894C44.3734 253.4 44.1142 252.806 44.1142 252.111C44.1142 251.417 44.3734 250.823 44.8917 250.329C45.4206 249.834 46.05 249.587 46.7799 249.587C47.5097 249.587 48.1338 249.834 48.6521 250.329C49.181 250.823 49.4455 251.417 49.4455 252.111C49.4455 252.806 49.181 253.4 48.6521 253.894C48.1338 254.389 47.5097 254.636 46.7799 254.636Z"
            fill="white"
          />
          <path
            d="M59.2234 268.332V282.911H55.4788V258.675H59.0965V262.462H59.4138C59.985 261.231 60.8524 260.243 62.016 259.496C63.1795 258.738 64.6816 258.36 66.5221 258.36C68.1723 258.36 69.6161 258.696 70.8538 259.37C72.0914 260.032 73.054 261.042 73.7415 262.399C74.4291 263.746 74.7729 265.45 74.7729 267.511V282.911H71.0283V267.764C71.0283 265.86 70.5311 264.377 69.5368 263.314C68.5425 262.241 67.178 261.705 65.4432 261.705C64.2479 261.705 63.1795 261.963 62.2381 262.478C61.3072 262.993 60.5721 263.746 60.0326 264.734C59.4931 265.723 59.2234 266.922 59.2234 268.332Z"
            fill="white"
          />
          <path
            d="M91.5163 283.416C89.2315 283.416 87.264 282.88 85.6139 281.807C83.9637 280.734 82.6944 279.256 81.8058 277.373C80.9173 275.49 80.473 273.339 80.473 270.919C80.473 268.458 80.9279 266.286 81.8376 264.403C82.7578 262.51 84.0378 261.032 85.6773 259.969C87.3275 258.896 89.2526 258.36 91.4528 258.36C93.1665 258.36 94.7108 258.675 96.0859 259.306C97.4611 259.938 98.5876 260.821 99.4656 261.957C100.344 263.093 100.888 264.419 101.1 265.933H97.3553C97.0697 264.829 96.435 263.851 95.4513 262.999C94.4781 262.136 93.1665 261.705 91.5163 261.705C90.0566 261.705 88.7766 262.084 87.6765 262.841C86.587 263.588 85.7355 264.645 85.122 266.012C84.519 267.369 84.2176 268.963 84.2176 270.793C84.2176 272.666 84.5138 274.296 85.1061 275.685C85.7091 277.073 86.5553 278.151 87.6448 278.919C88.7449 279.687 90.0354 280.071 91.5163 280.071C92.4895 280.071 93.3727 279.903 94.1661 279.566C94.9594 279.23 95.6311 278.746 96.1812 278.115C96.7312 277.483 97.1226 276.726 97.3553 275.842H101.1C100.888 277.273 100.365 278.562 99.529 279.708C98.704 280.844 97.6092 281.749 96.2446 282.422C94.8906 283.085 93.3145 283.416 91.5163 283.416Z"
            fill="white"
          />
          <path
            d="M106.574 282.911V258.675H110.318V282.911H106.574ZM108.478 254.636C107.748 254.636 107.119 254.389 106.59 253.894C106.071 253.4 105.812 252.806 105.812 252.111C105.812 251.417 106.071 250.823 106.59 250.329C107.119 249.834 107.748 249.587 108.478 249.587C109.208 249.587 109.832 249.834 110.35 250.329C110.879 250.823 111.144 251.417 111.144 252.111C111.144 252.806 110.879 253.4 110.35 253.894C109.832 254.389 109.208 254.636 108.478 254.636Z"
            fill="white"
          />
          <path
            d="M117.177 292V258.675H120.795V262.525H121.239C121.514 262.105 121.895 261.568 122.381 260.916C122.878 260.253 123.587 259.664 124.507 259.149C125.438 258.623 126.697 258.36 128.284 258.36C130.336 258.36 132.145 258.87 133.71 259.89C135.276 260.911 136.497 262.357 137.375 264.229C138.253 266.102 138.692 268.311 138.692 270.856C138.692 273.423 138.253 275.648 137.375 277.531C136.497 279.403 135.281 280.855 133.726 281.886C132.171 282.906 130.378 283.416 128.347 283.416C126.782 283.416 125.528 283.158 124.587 282.643C123.645 282.117 122.921 281.523 122.413 280.86C121.905 280.187 121.514 279.629 121.239 279.187H120.921V292H117.177ZM120.858 270.793C120.858 272.624 121.128 274.238 121.667 275.637C122.207 277.026 122.995 278.115 124.031 278.903C125.068 279.682 126.337 280.071 127.839 280.071C129.405 280.071 130.711 279.661 131.758 278.84C132.816 278.009 133.61 276.894 134.139 275.495C134.678 274.086 134.948 272.518 134.948 270.793C134.948 269.089 134.683 267.553 134.154 266.186C133.636 264.808 132.848 263.719 131.79 262.92C130.743 262.11 129.426 261.705 127.839 261.705C126.316 261.705 125.036 262.089 124 262.857C122.963 263.614 122.18 264.676 121.651 266.044C121.122 267.401 120.858 268.984 120.858 270.793Z"
            fill="white"
          />
          <path
            d="M151.576 283.479C150.032 283.479 148.63 283.19 147.371 282.611C146.113 282.022 145.113 281.176 144.373 280.071C143.632 278.956 143.262 277.61 143.262 276.032C143.262 274.643 143.537 273.518 144.087 272.655C144.637 271.782 145.372 271.098 146.292 270.604C147.213 270.11 148.228 269.741 149.339 269.499C150.46 269.247 151.587 269.047 152.719 268.9C154.199 268.71 155.4 268.568 156.32 268.474C157.251 268.369 157.928 268.195 158.351 267.953C158.785 267.711 159.002 267.29 159.002 266.691V266.565C159.002 265.008 158.573 263.798 157.717 262.936C156.87 262.073 155.585 261.642 153.861 261.642C152.073 261.642 150.672 262.031 149.656 262.809C148.641 263.588 147.927 264.419 147.514 265.302L143.96 264.04C144.595 262.567 145.441 261.421 146.499 260.6C147.567 259.769 148.731 259.191 149.989 258.865C151.259 258.528 152.507 258.36 153.734 258.36C154.517 258.36 155.416 258.454 156.431 258.644C157.457 258.823 158.446 259.196 159.398 259.764C160.361 260.332 161.16 261.189 161.794 262.336C162.429 263.483 162.746 265.018 162.746 266.943V282.911H159.002V279.629H158.811C158.558 280.155 158.134 280.718 157.542 281.318C156.95 281.917 156.162 282.427 155.178 282.848C154.194 283.269 152.994 283.479 151.576 283.479ZM152.147 280.134C153.628 280.134 154.876 279.845 155.892 279.266C156.918 278.688 157.69 277.941 158.208 277.026C158.737 276.111 159.002 275.148 159.002 274.138V270.73C158.843 270.919 158.494 271.093 157.955 271.251C157.426 271.398 156.812 271.53 156.114 271.645C155.426 271.75 154.755 271.845 154.099 271.929C153.454 272.003 152.93 272.066 152.528 272.119C151.555 272.245 150.645 272.45 149.799 272.734C148.963 273.008 148.286 273.423 147.768 273.981C147.26 274.528 147.007 275.274 147.007 276.221C147.007 277.515 147.488 278.493 148.45 279.156C149.424 279.808 150.656 280.134 152.147 280.134Z"
            fill="white"
          />
          <path
            d="M173.326 250.597V282.911H169.581V250.597H173.326Z"
            fill="white"
          />
          <path
            d="M193.258 282.911V250.597H204.238C206.787 250.597 208.871 251.054 210.49 251.969C212.119 252.874 213.324 254.1 214.107 255.646C214.89 257.192 215.281 258.917 215.281 260.821C215.281 262.725 214.89 264.456 214.107 266.012C213.335 267.569 212.14 268.81 210.521 269.736C208.903 270.651 206.83 271.109 204.302 271.109H197.193V267.638H204.175C205.92 267.638 207.322 267.338 208.379 266.738C209.437 266.139 210.204 265.329 210.68 264.308C211.167 263.277 211.41 262.115 211.41 260.821C211.41 259.527 211.167 258.37 210.68 257.35C210.204 256.33 209.432 255.53 208.363 254.952C207.295 254.363 205.878 254.068 204.111 254.068H197.193V282.911H193.258Z"
            fill="white"
          />
          <path
            d="M228.284 283.479C226.74 283.479 225.338 283.19 224.079 282.611C222.821 282.022 221.821 281.176 221.081 280.071C220.34 278.956 219.97 277.61 219.97 276.032C219.97 274.643 220.245 273.518 220.795 272.655C221.345 271.782 222.08 271.098 223.001 270.604C223.921 270.11 224.936 269.741 226.047 269.499C227.168 269.247 228.295 269.047 229.427 268.9C230.908 268.71 232.108 268.568 233.028 268.474C233.959 268.369 234.636 268.195 235.059 267.953C235.493 267.711 235.71 267.29 235.71 266.691V266.565C235.71 265.008 235.281 263.798 234.425 262.936C233.578 262.073 232.293 261.642 230.569 261.642C228.781 261.642 227.38 262.031 226.364 262.809C225.349 263.588 224.635 264.419 224.222 265.302L220.668 264.04C221.303 262.567 222.149 261.421 223.207 260.6C224.275 259.769 225.439 259.191 226.698 258.865C227.967 258.528 229.215 258.36 230.442 258.36C231.225 258.36 232.124 258.454 233.139 258.644C234.165 258.823 235.155 259.196 236.107 259.764C237.069 260.332 237.868 261.189 238.502 262.336C239.137 263.483 239.454 265.018 239.454 266.943V282.911H235.71V279.629H235.519C235.266 280.155 234.842 280.718 234.25 281.318C233.658 281.917 232.87 282.427 231.886 282.848C230.902 283.269 229.702 283.479 228.284 283.479ZM228.855 280.134C230.336 280.134 231.585 279.845 232.6 279.266C233.626 278.688 234.398 277.941 234.917 277.026C235.445 276.111 235.71 275.148 235.71 274.138V270.73C235.551 270.919 235.202 271.093 234.663 271.251C234.134 271.398 233.52 271.53 232.822 271.645C232.135 271.75 231.463 271.845 230.807 271.929C230.162 272.003 229.638 272.066 229.236 272.119C228.263 272.245 227.353 272.45 226.507 272.734C225.671 273.008 224.994 273.423 224.476 273.981C223.968 274.528 223.715 275.274 223.715 276.221C223.715 277.515 224.196 278.493 225.158 279.156C226.132 279.808 227.364 280.134 228.855 280.134Z"
            fill="white"
          />
          <path
            d="M246.289 282.911V258.675H249.907V262.336H250.161C250.605 261.137 251.409 260.164 252.572 259.417C253.736 258.67 255.048 258.297 256.507 258.297C256.782 258.297 257.126 258.302 257.539 258.312C257.951 258.323 258.263 258.339 258.475 258.36V262.147C258.348 262.115 258.057 262.068 257.602 262.005C257.158 261.931 256.687 261.894 256.19 261.894C255.005 261.894 253.947 262.141 253.017 262.636C252.096 263.12 251.366 263.793 250.827 264.655C250.298 265.507 250.034 266.48 250.034 267.574V282.911H246.289Z"
            fill="white"
          />
          <path
            d="M275.04 258.675V261.831H262.41V258.675H275.04ZM266.091 252.869H269.835V275.969C269.835 277.021 269.989 277.809 270.296 278.335C270.613 278.851 271.015 279.198 271.501 279.377C271.999 279.545 272.522 279.629 273.072 279.629C273.485 279.629 273.823 279.608 274.088 279.566C274.352 279.514 274.564 279.471 274.722 279.44L275.484 282.785C275.23 282.88 274.876 282.974 274.421 283.069C273.966 283.174 273.39 283.227 272.691 283.227C271.634 283.227 270.597 283.001 269.582 282.548C268.577 282.096 267.741 281.407 267.075 280.481C266.419 279.556 266.091 278.388 266.091 276.978V252.869Z"
            fill="white"
          />
          <path
            d="M284.417 268.332V282.911H280.672V258.675H284.29V262.462H284.607C285.179 261.231 286.046 260.243 287.21 259.496C288.373 258.738 289.875 258.36 291.716 258.36C293.366 258.36 294.81 258.696 296.047 259.37C297.285 260.032 298.248 261.042 298.935 262.399C299.623 263.746 299.966 265.45 299.966 267.511V282.911H296.222V267.764C296.222 265.86 295.725 264.377 294.73 263.314C293.736 262.241 292.372 261.705 290.637 261.705C289.441 261.705 288.373 261.963 287.432 262.478C286.501 262.993 285.766 263.746 285.226 264.734C284.687 265.723 284.417 266.922 284.417 268.332Z"
            fill="white"
          />
          <path
            d="M317.027 283.416C314.679 283.416 312.653 282.901 310.95 281.87C309.258 280.828 307.951 279.377 307.031 277.515C306.121 275.643 305.667 273.465 305.667 270.983C305.667 268.5 306.121 266.312 307.031 264.419C307.951 262.515 309.231 261.032 310.871 259.969C312.521 258.896 314.446 258.36 316.646 258.36C317.916 258.36 319.169 258.57 320.407 258.991C321.644 259.412 322.771 260.095 323.786 261.042C324.802 261.978 325.611 263.22 326.214 264.766C326.817 266.312 327.119 268.216 327.119 270.478V272.056H308.332V268.837H323.31C323.31 267.469 323.035 266.249 322.485 265.176C321.946 264.103 321.174 263.256 320.169 262.636C319.175 262.015 318 261.705 316.646 261.705C315.155 261.705 313.864 262.073 312.775 262.809C311.696 263.535 310.866 264.482 310.284 265.649C309.702 266.817 309.411 268.069 309.411 269.405V271.551C309.411 273.381 309.729 274.932 310.363 276.205C311.008 277.468 311.902 278.43 313.045 279.093C314.187 279.745 315.515 280.071 317.027 280.071C318.011 280.071 318.9 279.934 319.693 279.661C320.497 279.377 321.19 278.956 321.771 278.399C322.353 277.83 322.803 277.126 323.12 276.284L326.738 277.294C326.357 278.514 325.717 279.587 324.818 280.513C323.919 281.428 322.808 282.143 321.486 282.659C320.164 283.164 318.677 283.416 317.027 283.416Z"
            fill="white"
          />
          <path
            d="M332.815 282.911V258.675H336.432V262.336H336.686C337.13 261.137 337.934 260.164 339.098 259.417C340.262 258.67 341.573 258.297 343.033 258.297C343.308 258.297 343.652 258.302 344.064 258.312C344.477 258.323 344.789 258.339 345 258.36V262.147C344.873 262.115 344.583 262.068 344.128 262.005C343.683 261.931 343.213 261.894 342.716 261.894C341.531 261.894 340.473 262.141 339.542 262.636C338.622 263.12 337.892 263.793 337.353 264.655C336.824 265.507 336.559 266.48 336.559 267.574V282.911H332.815Z"
            fill="white"
          />
        </svg>