<svg width="198" height="27" viewBox="0 0 198 27" fill="none" xmlns="http://www.w3.org/2000/svg">
<path d="M10.71 0.96875C5.18726 0.96875 0.710152 5.47936 0.710152 11.0436C0.710152 16.608 5.18726 21.1186 10.71 21.1186C16.2329 21.1186 20.7102 16.608 20.7102 11.0436C20.7102 5.47936 16.2329 0.96875 10.71 0.96875Z" fill="#186DBF"/>
<path d="M10.71 1.47259C5.46343 1.47259 1.21003 5.75765 1.21003 11.0436C1.21003 16.3298 5.46343 20.6148 10.71 20.6148C15.9569 20.6148 20.2101 16.3298 20.2101 11.0436C20.2101 5.75765 15.9569 1.47259 10.71 1.47259Z" fill="white"/>
<path d="M10.71 1.92585C5.71197 1.92585 1.66013 6.00806 1.66013 11.0436C1.66013 16.0793 5.71197 20.1615 10.71 20.1615C15.7083 20.1615 19.7602 16.0793 19.7602 11.0436C19.7602 6.00806 15.7083 1.92585 10.71 1.92585ZM10.71 16.7358C7.58978 16.7358 5.06015 14.1876 5.06015 11.0436C5.06015 7.89994 7.58978 5.3513 10.71 5.3513C13.8307 5.3513 16.36 7.89994 16.36 11.0436C16.36 14.1876 13.8307 16.7358 10.71 16.7358Z" fill="#E31536"/>
<path d="M5.74253 12.5925C5.97979 13.3647 6.3783 14.0419 6.88882 14.5982V12.2351L5.56399 10.2851C5.45465 11.0348 5.50522 11.8202 5.74253 12.5925ZM8.41746 14.4636V11.7587L6.90071 9.5262V7.47849C6.61994 7.78368 6.37701 8.12048 6.17631 8.48105L6.88882 9.52981V12.2351L8.40558 14.4674V15.7383C8.77332 15.9218 9.16257 16.0614 9.56541 16.1534L8.41746 14.4636ZM9.94594 11.282L11.4625 13.514V16.2194L9.94594 13.9872V11.282L8.42918 9.04954L8.4294 6.34464L9.94594 8.5767V11.282ZM11.4744 10.8054L9.95766 8.57309V5.86797L11.4744 8.10025V10.8054L12.9909 13.0376V15.7427L11.4744 13.5105V10.8054ZM9.17279 6.03879C8.39846 6.28041 7.72026 6.68757 7.16477 7.20969L8.41746 9.05336V11.7587L9.934 13.9907V16.2251C10.6852 16.3397 11.4729 16.29 12.2475 16.0483C13.0218 15.807 13.6998 15.3998 14.2553 14.8777L13.0028 13.034V10.3289L11.4861 8.09648V5.86231C10.7351 5.74751 9.94717 5.79744 9.17279 6.03879ZM14.5313 12.5574V9.85205L13.0148 7.62003V6.34884C12.6468 6.16562 12.2575 6.02575 11.8547 5.9337L13.0028 7.62359V10.3289L14.5194 12.5612V14.6089C14.8004 14.3035 15.0431 13.9669 15.2438 13.6063L14.5313 12.5574ZM15.6776 9.49482C15.4405 8.72267 15.0418 8.04547 14.5313 7.48922V9.85205L15.8561 11.8021C15.9654 11.0524 15.9149 10.267 15.6776 9.49482Z" fill="#186DBF"/>
<path d="M4.65998 12.927L4.91672 13.4778L4.49899 14.2734C4.43627 14.3916 4.38195 14.4885 4.38195 14.4885L4.38735 14.4988C4.38735 14.4988 4.49776 14.5057 4.63028 14.5171L5.51989 14.5978L5.83849 15.1149L3.91659 16.2461L3.60901 15.7499L4.41352 15.2766C4.60106 15.1673 4.74256 15.09 4.74256 15.09L4.73694 15.0794C4.73694 15.0794 4.6397 15.0723 4.43691 15.0422L3.618 14.9194L3.6126 14.909L3.95673 14.1506C4.04199 13.9627 4.08903 13.8768 4.08903 13.8768L4.08341 13.8662C4.08341 13.8662 3.94185 13.9437 3.7487 14.0427L2.91662 14.464L2.67097 13.9338L4.65998 12.927Z" fill="white"/>
<path d="M6.13307 15.372L6.57605 15.7687L5.68628 16.8353C5.54033 17.0124 5.54767 17.1984 5.76844 17.3736C5.98942 17.5489 6.17069 17.5125 6.30738 17.3282L7.12817 16.2065L7.61466 16.5475L6.77215 17.6968C6.386 18.2242 5.88575 18.1201 5.45315 17.777C5.0206 17.4337 4.8032 16.9682 5.22151 16.4664L6.13307 15.372ZM7.01925 16.0978L6.47255 16.4827L6.46334 16.4753L6.70648 15.8495L7.01925 16.0978Z" fill="white"/>
<path d="M7.95735 16.7418L8.5358 16.9545L8.8628 18.0797C8.93366 18.323 8.96251 18.4518 8.96251 18.4518L8.97921 18.4569C8.97921 18.4569 9.01705 18.2897 9.07228 18.0847L9.30953 17.1893L9.87487 17.3241L9.29974 19.4911L8.70096 19.3462L8.32798 18.1698C8.25589 17.9415 8.22554 17.7968 8.22554 17.7968L8.20884 17.7917C8.20884 17.7917 8.15928 17.9676 8.09613 18.158L7.79256 19.0702L7.24778 18.8678L7.95735 16.7418Z" fill="white"/>
<path d="M12.2891 18.6825C12.3015 19.2139 11.9707 19.5795 11.3398 19.6227C10.7495 19.663 10.197 19.3931 10.1652 18.5258C10.1324 17.6468 10.6152 17.318 11.1821 17.2795C11.7957 17.2376 12.1505 17.5828 12.2115 18.0518L11.6153 18.0927C11.5607 17.8895 11.4526 17.7696 11.1899 17.7875C10.9444 17.8044 10.7719 18.0321 10.7903 18.4832C10.8104 18.9549 11.0046 19.1368 11.2793 19.1181C11.5541 19.0993 11.6743 18.9668 11.6872 18.7235L12.2891 18.6825Z" fill="white"/>
<path d="M12.4212 17.1325L12.9742 16.9174L13.2878 17.6748L13.9779 17.3578L13.6162 16.6228L14.1399 16.3432L15.1269 18.3541L14.6032 18.6336L14.2125 17.8338L13.4904 18.1654L13.8333 18.987L13.2803 19.2019L12.4225 17.1352L12.4212 17.1325Z" fill="white"/>
<path d="M14.4897 16.0799L15.5555 15.051L15.8984 15.3901L15.2302 16.0353L15.485 16.3203L16.1321 15.6958L16.4668 16.0262L15.7986 16.6714L16.0759 16.9842L16.8285 16.2573L17.1714 16.5966L15.9788 17.7479L14.4897 16.0799Z" fill="white"/>
<path d="M15.8216 14.7328L16.1275 14.1942L17.2838 14.0598C17.5338 14.0305 17.6647 14.0238 17.6647 14.0238L17.6727 14.008C17.6727 14.008 17.5154 13.9423 17.3242 13.8527L16.4883 13.4656L16.7156 12.927L18.7385 13.8645L18.4955 14.4347L17.2817 14.606C17.0461 14.6392 16.8994 14.6447 16.8994 14.6447L16.8914 14.6605C16.8914 14.6605 17.0553 14.7395 17.2309 14.8343L18.072 15.2901L17.7818 15.7969L15.8216 14.7328Z" fill="white"/>
<path d="M3.08949 7.30767L3.53606 7.48561L3.1794 8.48169L3.59649 8.6207L3.93034 7.68846L4.36584 7.86268L4.04199 8.7671L4.82204 9.02236L4.65436 9.59489L2.52106 8.89451L3.08949 7.30767Z" fill="white"/>
<path d="M5.81671 5.82694C6.20163 6.17845 6.2681 6.65975 5.88323 7.15054C5.53118 7.5996 4.98929 7.81485 4.28829 7.29079C3.59649 6.7739 3.68784 6.16244 4.05456 5.69483C4.44296 5.19946 4.93845 5.15778 5.32293 5.43369L4.95268 5.90593C4.77163 5.80332 4.60207 5.81492 4.43338 6.03017C4.26276 6.24774 4.30188 6.51212 4.67673 6.79542C5.03548 7.06583 5.3156 7.05597 5.47177 6.85689C5.63881 6.64395 5.60622 6.47146 5.44271 6.30377L5.81671 5.82694Z" fill="white"/>
<path d="M7.28016 3.28801C7.67364 3.10473 8.05872 3.06515 8.22848 3.47042C8.36774 3.80215 8.27949 3.94725 8.10721 4.0924L8.11352 4.10567C8.29683 4.06248 8.54291 4.07153 8.6993 4.44079C8.88742 4.88601 8.59938 5.14386 8.2059 5.32687L7.37382 5.71424L6.37637 3.70864L7.28016 3.28801ZM7.61445 4.10081C7.76853 4.02899 7.81263 3.95652 7.75055 3.80678C7.69077 3.66227 7.58897 3.65133 7.43992 3.7204L7.10772 3.87521L7.29542 4.24931L7.61445 4.10081ZM7.99037 4.92036C8.16035 4.84099 8.20718 4.77397 8.13504 4.60277C8.06771 4.44224 7.95002 4.43868 7.77982 4.51784L7.4928 4.6514L7.69516 5.0577L7.99037 4.92036Z" fill="white"/>
<path d="M11.3306 4.76178L10.6985 4.76011L10.5173 4.35839L9.75273 4.42456L9.64237 4.85172L9.01978 4.96188L9.6367 2.61653L10.3252 2.55689L11.3306 4.76178ZM10.3453 3.92622L10.155 3.48956C10.0895 3.34128 10.04 3.20923 10.04 3.20923L10.0283 3.21025C10.0283 3.21025 10.002 3.34889 9.96243 3.50623L9.84912 3.96919L10.3453 3.92622Z" fill="white"/>
<path d="M11.8927 4.10335L11.3759 2.51122L12.0434 2.63906L12.2456 3.3141C12.2836 3.44324 12.3171 3.58037 12.3171 3.58037L12.3286 3.5829C12.3286 3.5829 12.4154 3.47209 12.5032 3.37056L12.965 2.84041L13.6252 3.00303L12.4994 4.23605L12.3272 4.98021L11.7435 4.85253L11.8927 4.10335Z" fill="white"/>
<path d="M14.0686 3.19639L15.47 3.97151L15.226 4.38854L14.3611 3.9102L14.188 4.25185L14.9864 4.69351L14.7481 5.10003L13.9754 4.67265L13.7858 5.04567L14.6274 5.51118L14.3835 5.92826L13.0591 5.19568L14.0686 3.19639Z" fill="white"/>
<path d="M16.2448 4.57893L16.9246 5.31172C17.2725 5.68663 17.3555 6.0485 16.9416 6.41414C16.6769 6.64735 16.4839 6.71178 16.2508 6.62039L15.8954 7.52438L15.4756 7.00706L15.8007 6.26882L15.6069 6.05988L15.0839 6.58474L14.6542 6.17338L16.2448 4.57893ZM15.9391 5.72686L16.1691 5.97457C16.2971 6.11256 16.4045 6.11633 16.5477 5.98951C16.6886 5.86506 16.6863 5.74605 16.5584 5.60807L16.3165 5.34731L15.9391 5.72686Z" fill="white"/>
<path d="M16.8063 9.59048L16.6031 9.00468L17.2602 8.03706C17.4007 7.83146 17.4831 7.72362 17.4831 7.72362L17.4764 7.70723C17.4764 7.70723 17.3239 7.78369 17.1314 7.87045L16.2935 8.25253L16.0389 7.72658L18.0674 6.80237L18.3354 7.36094L17.6683 8.39661C17.5401 8.59374 17.4467 8.71275 17.4467 8.71275L17.4534 8.72919C17.4534 8.72919 17.6198 8.65629 17.806 8.5849L18.6988 8.24369L18.8886 8.79681L16.8063 9.59048Z" fill="white"/>
<path d="M7.33218 24.2942H6.87016V23.6079C6.87016 23.5969 6.86913 23.5767 6.86732 23.5474C6.86551 23.5182 6.85926 23.4889 6.84836 23.4595C6.83745 23.4304 6.81849 23.4038 6.79126 23.38C6.76418 23.3561 6.72341 23.3443 6.66889 23.3443C6.60735 23.3443 6.56033 23.3561 6.52762 23.38C6.49491 23.4038 6.47052 23.4348 6.45414 23.4734C6.43802 23.5117 6.42789 23.5549 6.42448 23.6024C6.42065 23.6499 6.41884 23.6958 6.41884 23.7397C6.41884 23.8202 6.42448 23.8934 6.43517 23.9593C6.44608 24.0253 6.46241 24.0883 6.48421 24.1488C6.50581 24.2092 6.53206 24.2687 6.56296 24.3272C6.5936 24.3857 6.63096 24.4482 6.67437 24.514C6.71049 24.5725 6.74682 24.6292 6.78314 24.6842C6.81932 24.7391 6.85745 24.796 6.89739 24.8545C6.9517 24.9314 7.00782 25.0156 7.06575 25.1071C7.13117 25.2131 7.18361 25.3112 7.22361 25.4009C7.26335 25.4906 7.29425 25.5738 7.31605 25.6507C7.33765 25.7276 7.35135 25.7989 7.35682 25.8647C7.3621 25.9308 7.36489 25.9912 7.36489 26.046C7.36489 26.068 7.36308 26.1155 7.35946 26.1887C7.35579 26.2622 7.3405 26.3435 7.31321 26.4332C7.28598 26.5229 7.24438 26.6126 7.18806 26.7023C7.13194 26.792 7.04962 26.8607 6.9408 26.9083C6.90809 26.9227 6.86474 26.9366 6.81043 26.9495C6.75591 26.9623 6.68708 26.9686 6.60373 26.9686C6.44789 26.9686 6.32557 26.9429 6.23675 26.8917C6.14792 26.8406 6.08353 26.7892 6.0438 26.738C5.96407 26.6465 5.91684 26.5494 5.90247 26.4469C5.88795 26.3445 5.87886 26.2365 5.87524 26.1229V25.4804H6.34273V26.1887C6.34273 26.2842 6.351 26.3545 6.36717 26.4002C6.3835 26.446 6.41156 26.4836 6.4515 26.5129C6.46241 26.5203 6.4806 26.5302 6.50581 26.5431C6.53124 26.556 6.56374 26.5623 6.60373 26.5623C6.66528 26.5623 6.71333 26.5468 6.74785 26.5156C6.78216 26.4846 6.80676 26.446 6.82133 26.4002C6.83564 26.3545 6.84371 26.3052 6.84572 26.2519C6.84753 26.1989 6.84836 26.1504 6.84836 26.1064C6.84836 25.9673 6.83482 25.8503 6.80759 25.7551C6.78056 25.6599 6.7323 25.5518 6.66347 25.4311C6.59102 25.3029 6.51408 25.1811 6.43254 25.0659C6.351 24.9505 6.2739 24.8307 6.20145 24.7061C6.17965 24.6732 6.15257 24.6284 6.11986 24.5715C6.0872 24.5148 6.05548 24.4482 6.02483 24.3711C5.99393 24.2942 5.9667 24.2074 5.94324 24.1103C5.91963 24.0135 5.90795 23.908 5.90795 23.7945C5.90795 23.5822 5.94489 23.4167 6.01936 23.2976C6.09366 23.1787 6.17055 23.0954 6.25049 23.0477C6.29023 23.0221 6.34557 22.9983 6.41621 22.9763C6.48685 22.9545 6.57645 22.9435 6.68527 22.9435C6.71049 22.9435 6.75126 22.9453 6.80759 22.949C6.86391 22.9526 6.92266 22.9653 6.98441 22.9873C7.04596 23.0093 7.10574 23.046 7.16367 23.0972C7.22159 23.1486 7.26521 23.2216 7.29425 23.3168C7.30515 23.3535 7.31321 23.3918 7.31869 23.4322C7.32411 23.4725 7.32856 23.531 7.33218 23.6079V24.2942Z" fill="white"/>
<path d="M9.25444 23.0383L8.6095 24.9868L9.37029 26.9686H8.85211L8.27341 25.4266C8.25507 25.3783 8.23848 25.3302 8.22375 25.2818C8.20903 25.2338 8.19249 25.1836 8.1743 25.1316V26.9686H7.67271V23.0383H8.17978V24.7475C8.17978 24.7919 8.17797 24.8384 8.1743 24.8865C8.18887 24.8309 8.2036 24.7744 8.21833 24.7167C8.23305 24.6594 8.24938 24.6009 8.26799 24.5415L8.73083 23.0383H9.25444Z" fill="white"/>
<path d="M10.9352 23.0383V23.5282H10.1692V24.6806H10.8526V25.1705H10.1746V26.4732H10.9352V26.9686H9.65103V23.0383H10.9352Z" fill="white"/>
<path d="M12.878 23.0383V23.506H12.2717V26.9686H11.7481V23.506H11.1585V23.0383H12.878Z" fill="white"/>
<path d="M17.5212 26.4844H18.37V26.9686H17.0085V23.0383H17.5212V26.4844Z" fill="white"/>
<path d="M19.18 26.4844H20.0287V26.9686H18.6675V23.0383H19.18V26.4844Z" fill="white"/>
<path d="M3.06084 25.698C3.06244 25.8148 3.06244 25.9319 3.05841 26.0481C3.055 26.151 3.06244 26.2654 3.02208 26.3623C2.98193 26.4585 2.90985 26.4827 2.8126 26.4858C2.79157 26.4864 2.52674 26.4903 2.52674 26.4829C2.52674 26.0273 2.52674 25.5691 2.52695 25.1134C2.62668 25.1139 2.72656 25.1141 2.82629 25.1144C2.90907 25.1146 2.98576 25.1287 3.02492 25.2123C3.05035 25.2665 3.05236 25.3285 3.05396 25.3885C3.0566 25.491 3.05944 25.5944 3.06084 25.698ZM2.5334 23.506C2.59397 23.506 2.65716 23.5054 2.71772 23.5049C2.75322 23.5048 2.78614 23.5052 2.82143 23.5058C2.85698 23.5066 2.89372 23.5074 2.9268 23.5217C3.03035 23.5663 3.05055 23.7038 3.04875 23.8032C3.04735 23.8901 3.04875 23.9572 3.04875 24.009V24.385C3.04875 24.4716 3.03882 24.5789 2.97284 24.6429C2.93186 24.6826 2.88401 24.682 2.83135 24.682H2.5334V23.506ZM3.08528 24.8849C3.19793 24.8777 3.53417 24.8227 3.53417 24.418V23.5025C3.53417 23.0162 3.04875 23.0346 3.04875 23.0346H2.02638V24.8857H2.02819V26.9686H3.02188C3.02188 26.9686 3.53603 26.9892 3.53603 26.4416V25.4107C3.53603 24.9526 3.19627 24.8922 3.08528 24.8849Z" fill="white"/>
<path d="M14.1717 25.698C14.1731 25.8148 14.1731 25.9319 14.1691 26.0481C14.1657 26.151 14.1731 26.2654 14.1329 26.3623C14.0926 26.4585 14.0207 26.4827 13.9234 26.4858C13.9024 26.4864 13.6376 26.4903 13.6376 26.4829C13.6376 26.0273 13.6376 25.5691 13.6376 25.1134C13.7375 25.1139 13.8372 25.1141 13.9369 25.1144C14.0199 25.1146 14.0966 25.1287 14.1357 25.2123C14.161 25.2665 14.163 25.3285 14.1646 25.3885C14.1675 25.491 14.1701 25.5944 14.1717 25.698ZM13.6441 23.506C13.7046 23.506 13.7678 23.5054 13.8285 23.5049C13.8639 23.5048 13.8967 23.5052 13.9323 23.5058C13.9676 23.5066 14.0043 23.5074 14.0374 23.5217C14.1412 23.5663 14.1612 23.7038 14.1596 23.8032C14.158 23.8901 14.1596 23.9572 14.1596 24.009V24.385C14.1596 24.4716 14.1495 24.5789 14.0835 24.6429C14.0427 24.6826 13.9947 24.682 13.942 24.682H13.6441V23.506ZM14.1959 24.8849C14.3087 24.8777 14.645 24.8227 14.645 24.418V23.5025C14.645 23.0162 14.1596 23.0346 14.1596 23.0346H13.137V24.8857H13.1388V26.9686H14.1327C14.1327 26.9686 14.6468 26.9892 14.6468 26.4416V25.4107C14.6468 24.9526 14.3069 24.8922 14.1959 24.8849Z" fill="white"/>
<path d="M4.68654 24.01L4.63729 24.4094L4.47199 25.7773H4.93504L4.68654 24.01ZM5.60173 26.9686H5.10034L5.00103 26.245H4.41685L4.32865 26.9686H3.82726L4.37831 23.0383H5.00103L5.60173 26.9686Z" fill="white"/>
<path d="M15.7814 24.01L15.7324 24.4094L15.5669 25.7773H16.0299L15.7814 24.01ZM16.6968 26.9686H16.1952L16.0961 26.245H15.5118L15.4235 26.9686H14.9222L15.4732 23.0383H16.0961L16.6968 26.9686Z" fill="white"/>
<rect x="40.7102" y="1.45419" width="0.625728" height="25.0291" fill="#D9D9D9"/>
<path d="M84.7389 10.9915C84.7389 16.1667 80.5437 20.3622 75.3682 20.3622C70.1926 20.3622 65.9974 16.1667 65.9974 10.9915C65.9974 5.81591 70.1926 1.62068 75.3682 1.62068C80.5437 1.62068 84.7389 5.81591 84.7389 10.9915ZM75.3682 0.96875C69.8328 0.96875 65.3454 5.45601 65.3454 10.9915C65.3454 16.5267 69.8328 21.0142 75.3682 21.0142C80.9035 21.0142 85.3909 16.5267 85.3909 10.9915C85.3909 5.45601 80.9035 0.96875 75.3682 0.96875Z" fill="white"/>
<path d="M80.2253 6.73934C80.3614 6.88564 80.5579 7.12146 80.6677 7.26446L82.6975 5.97598C82.5961 5.84323 82.4348 5.64192 82.314 5.50008L81.0286 6.35007L80.9413 6.42561L81.0065 6.32995L81.5738 5.19723L81.173 4.79604L80.0399 5.36366L79.9443 5.4289L80.0204 5.34107L80.871 4.05627C80.7212 3.92882 80.5778 3.81225 80.394 3.67068L79.1053 5.69877C79.2687 5.82453 79.4836 6.00861 79.6207 6.13421L80.8337 5.50481L80.9114 5.44776L80.8541 5.52557L80.2253 6.73934Z" fill="white"/>
<path d="M75.6208 4.16953L76.1751 2.92744L76.2108 2.81744L76.2003 2.93233L76.2591 4.59205C76.4535 4.61075 76.6542 4.6376 76.8527 4.67043L76.7624 2.21189C76.485 2.18132 76.2092 2.15936 75.9334 2.14764L75.3876 3.50347L75.3682 3.60422L75.3487 3.50347L74.8029 2.14764C74.5271 2.15936 74.2513 2.18132 73.9739 2.21189L73.8836 4.67043C74.0821 4.6376 74.2828 4.61075 74.4772 4.59205L74.536 2.93233L74.5255 2.81744L74.5612 2.92744L75.1155 4.16953H75.6208Z" fill="white"/>
<path d="M69.5533 6.36998C69.5533 6.36998 70.2126 5.67371 70.4269 5.45086C70.5126 5.36219 70.5672 5.30886 70.6266 5.27971C70.7022 5.24236 70.7852 5.23516 70.8598 5.28465C70.9328 5.33329 70.9664 5.41803 70.9481 5.50155C70.926 5.60084 70.8451 5.69566 70.7773 5.76832C70.687 5.86556 69.9053 6.70178 69.9042 6.70283L69.5533 6.36998ZM68.8756 5.72687C69.2245 5.30025 69.5953 4.91324 69.7634 4.75974C69.8165 4.7113 69.8743 4.6635 69.9442 4.64401C70.0581 4.6128 70.1753 4.69365 70.2021 4.81038C70.2289 4.92758 70.1548 5.03879 70.0734 5.13072C69.8885 5.3386 69.2124 6.04638 69.2124 6.04638L68.8756 5.72687ZM71.1351 6.12843C71.4555 5.79091 71.6373 5.40059 71.3163 5.02813C71.1419 4.82561 70.8493 4.78149 70.6061 4.88161L70.5819 4.89128L70.5898 4.8699C70.626 4.77408 70.6486 4.46771 70.3875 4.25595C70.2604 4.15293 70.1007 4.11474 69.9389 4.13118C69.6379 4.16154 69.4062 4.36716 68.7753 5.07084C68.5851 5.28281 68.3083 5.61771 68.1418 5.83462C68.1418 5.83477 69.8738 7.47769 69.8738 7.47769C70.449 6.84157 70.6828 6.60517 71.1351 6.12843Z" fill="white"/>
<path d="M81.3117 10.9915H75.3682V5.04783C78.653 5.04783 81.3117 7.70668 81.3117 10.9915Z" fill="white"/>
<path d="M75.3682 10.9915L75.3681 16.9348C72.0833 16.9348 69.4246 14.2764 69.4246 10.9915H75.3682Z" fill="white"/>
<path d="M75.3681 5.04804L75.3682 10.9915H69.4246C69.4246 7.70668 72.0833 5.04804 75.3681 5.04804Z" fill="#186DBF"/>
<path d="M81.3117 10.9915C81.3117 14.2764 78.653 16.9348 75.3681 16.9348L75.3682 10.9915H81.3117Z" fill="#186DBF"/>
<path d="M82.4936 25.0508V26.4315C82.4936 26.5239 82.5108 26.5933 82.5394 26.6279C82.5681 26.6684 82.6253 26.6857 82.7055 26.6857C82.7685 26.6857 82.82 26.6857 82.8658 26.6741C82.9116 26.6626 82.9574 26.651 83.0032 26.6279L82.9861 26.8879C82.9288 26.911 82.8658 26.9283 82.8085 26.9399C82.7513 26.9514 82.6768 26.9572 82.5967 26.9572C82.465 26.9572 82.3676 26.9225 82.2989 26.8474C82.2302 26.7723 82.1959 26.651 82.1959 26.4719V25.045H81.9382V24.7909H82.1959V24.1381L82.4936 23.9706V24.7966H83.0147V25.0508H82.4936Z" fill="white"/>
<path d="M73.5838 24.1439L73.8816 23.9763V26.9225H73.5838V24.1439Z" fill="white"/>
<path d="M66.7527 24.3056C66.6839 24.271 66.6038 24.2594 66.5064 24.2594C66.4435 24.2594 66.3919 24.2767 66.3518 24.3056C66.3117 24.3345 66.2888 24.3923 66.2888 24.4847V24.8024H66.7011V25.0566H66.2888V26.9225H65.9911V25.0566H65.7048V24.8024H65.9911V24.5136C65.9911 24.3229 66.0369 24.1901 66.1285 24.1092C66.2201 24.0283 66.3404 23.9879 66.4893 23.9879C66.5522 23.9879 66.5981 23.9879 66.6381 23.9937C66.6708 23.9984 66.6997 24.0069 66.7309 24.0162L66.7527 24.0225V24.3056Z" fill="white"/>
<path d="M67.6173 24.2016C67.6173 24.2594 67.5944 24.3114 67.5543 24.3518C67.5142 24.3923 67.4627 24.4154 67.4054 24.4154C67.3424 24.4154 67.2909 24.3923 67.2508 24.3518C67.205 24.3114 67.1878 24.2594 67.1878 24.2016C67.1878 24.1381 67.2107 24.0861 67.2508 24.0457C67.2909 24.0052 67.3424 23.9821 67.4054 23.9821C67.4627 23.9821 67.5085 24.0052 67.5543 24.0457C67.5944 24.0861 67.6173 24.1381 67.6173 24.2016Z" fill="white"/>
<path d="M67.2508 26.9168V24.7966H67.5486V26.9168H67.2508Z" fill="white"/>
<path d="M64.9834 24.2594C65.0807 24.2594 65.1609 24.2709 65.2296 24.3056V24.0225L65.2079 24.0162C65.1766 24.0069 65.1477 23.9984 65.1151 23.9937C65.075 23.9879 65.0292 23.9879 64.9662 23.9879C64.8173 23.9879 64.6971 24.0283 64.6054 24.1092C64.5138 24.1901 64.468 24.3229 64.468 24.5136V24.8024H64.1817V25.0566H64.468V26.9225H64.7658V25.0566H65.178V24.8024H64.7658V24.4847C64.7658 24.3923 64.7887 24.3345 64.8288 24.3056C64.8688 24.2767 64.9204 24.2594 64.9834 24.2594Z" fill="white"/>
<path fill-rule="evenodd" clip-rule="evenodd" d="M63.5805 26.0907C63.6378 25.9116 63.6664 25.7152 63.6664 25.5014H63.6607C63.6607 25.2935 63.632 25.097 63.5748 24.918C63.5175 24.7389 63.4431 24.5829 63.34 24.4558C63.2369 24.3287 63.1167 24.2247 62.9735 24.1554C62.8304 24.0803 62.6701 24.0457 62.4983 24.0457C62.3265 24.0457 62.1662 24.0803 62.023 24.1554C61.8799 24.2247 61.7596 24.3287 61.6565 24.4558C61.5535 24.5829 61.479 24.7389 61.4218 24.918C61.3645 25.097 61.3359 25.2992 61.3359 25.5072C61.3359 25.7152 61.3588 25.9116 61.4161 26.0907C61.4733 26.2697 61.5477 26.4257 61.6508 26.5528C61.7539 26.6799 61.8741 26.7781 62.0173 26.8532C62.1604 26.9283 62.3208 26.963 62.4925 26.963C62.6643 26.963 62.8247 26.9283 62.9678 26.8532C63.111 26.7839 63.2369 26.6799 63.34 26.5528C63.4431 26.4257 63.5232 26.2697 63.5805 26.0907ZM63.2827 25.0219C63.3285 25.1664 63.3515 25.3281 63.3515 25.5072H63.3457C63.3457 25.6863 63.3285 25.848 63.2827 25.9925C63.2369 26.1369 63.1797 26.264 63.1052 26.3622C63.0308 26.4662 62.9392 26.547 62.8361 26.599C62.733 26.651 62.6185 26.6799 62.4983 26.6799C62.378 26.6799 62.2635 26.651 62.1604 26.599C62.0574 26.547 61.9657 26.4662 61.8913 26.3622C61.8169 26.2582 61.7596 26.1369 61.7138 25.9925C61.668 25.848 61.6451 25.6863 61.6451 25.5072C61.6451 25.3281 61.6623 25.1664 61.7081 25.0219C61.7539 24.8775 61.8054 24.7562 61.8856 24.6522C61.9658 24.5482 62.0516 24.4674 62.1547 24.4154C62.2578 24.3634 62.3666 24.3345 62.4868 24.3345C62.6071 24.3345 62.7159 24.3634 62.8247 24.4154C62.9335 24.4674 63.0251 24.5482 63.0995 24.6522C63.1797 24.7562 63.2369 24.8775 63.2827 25.0219Z" fill="white"/>
<path d="M69.3523 25.0682C69.4268 25.1086 69.5069 25.1606 69.5814 25.2299L69.5757 25.2241L69.7589 24.9988C69.673 24.9295 69.5814 24.866 69.4726 24.8198C69.3638 24.7735 69.2378 24.7504 69.0947 24.7504C68.9859 24.7504 68.8771 24.7735 68.7683 24.814C68.6595 24.8602 68.5621 24.9237 68.4762 25.0162C68.3904 25.1086 68.3216 25.2241 68.2701 25.3628C68.2186 25.5014 68.1899 25.669 68.1899 25.8654C68.1899 26.056 68.2186 26.212 68.2644 26.3506C68.3102 26.4893 68.3789 26.599 68.4591 26.6915C68.5392 26.7839 68.6308 26.8474 68.7396 26.8937C68.8484 26.9399 68.9572 26.963 69.0718 26.963C69.2206 26.963 69.3466 26.9341 69.4554 26.8821C69.5642 26.8301 69.6615 26.7608 69.7474 26.6684L69.5699 26.4719C69.5012 26.5413 69.4268 26.599 69.3523 26.6395C69.2779 26.6799 69.192 26.6972 69.0889 26.6972C68.9057 26.6972 68.7568 26.6221 68.6538 26.4662C68.5507 26.3102 68.4992 26.1022 68.4992 25.8423C68.4992 25.7094 68.5163 25.5939 68.545 25.4899C68.5736 25.3859 68.6137 25.2992 68.6652 25.2299C68.7167 25.1606 68.7797 25.1028 68.8484 25.0682C68.9172 25.0335 68.9973 25.0162 69.0775 25.0162C69.1863 25.0162 69.2779 25.0277 69.3523 25.0682Z" fill="white"/>
<path d="M70.698 24.2016C70.698 24.2594 70.6751 24.3114 70.635 24.3518C70.595 24.3923 70.5434 24.4154 70.4862 24.4154C70.4232 24.4154 70.3716 24.3923 70.3316 24.3518C70.2857 24.3114 70.2686 24.2594 70.2686 24.2016C70.2686 24.1381 70.2915 24.0861 70.3316 24.0457C70.3716 24.0052 70.4289 23.9821 70.4862 23.9821C70.5434 23.9821 70.5892 24.0052 70.635 24.0457C70.6751 24.0861 70.698 24.1381 70.698 24.2016Z" fill="white"/>
<path d="M70.3316 26.9168V24.7966H70.6293V26.9168H70.3316Z" fill="white"/>
<path fill-rule="evenodd" clip-rule="evenodd" d="M72.5532 26.6568V26.9168H72.851V25.4379C72.851 25.1953 72.7823 25.0162 72.6506 24.9122C72.5189 24.8024 72.3414 24.7504 72.1123 24.7504C71.9749 24.7504 71.8489 24.7678 71.7287 24.7966C71.6084 24.8255 71.4996 24.866 71.408 24.918L71.5225 25.1664C71.6084 25.1144 71.7 25.0739 71.7917 25.0451C71.889 25.0162 71.9863 25.0046 72.1009 25.0046C72.4043 25.0046 72.5589 25.1606 72.5589 25.4725V25.7209C72.496 25.6863 72.4215 25.6574 72.3299 25.6343C72.2383 25.6112 72.1352 25.5996 72.0321 25.5996C71.9291 25.5996 71.826 25.617 71.7287 25.6401C71.6313 25.6632 71.5454 25.7036 71.471 25.7614C71.3966 25.8192 71.3393 25.8885 71.2935 25.9751C71.2477 26.0618 71.2248 26.1658 71.2248 26.2813C71.2248 26.4084 71.242 26.5182 71.282 26.6048C71.3221 26.6915 71.3737 26.7608 71.4366 26.8128C71.4996 26.8705 71.5741 26.9052 71.6542 26.9283C71.7344 26.9514 71.8203 26.963 71.9005 26.963C72.0493 26.963 72.181 26.9283 72.2841 26.8705C72.3872 26.807 72.4788 26.7377 72.5532 26.6568ZM72.3242 25.8827C72.4101 25.9 72.4845 25.9289 72.5532 25.9694L72.5475 25.9809V26.4084C72.4845 26.495 72.4043 26.5701 72.3013 26.6337C72.1982 26.6972 72.0837 26.7261 71.9463 26.7261C71.8203 26.7261 71.7172 26.6857 71.6371 26.6164C71.5569 26.547 71.5168 26.4315 71.5168 26.2697C71.5168 26.1311 71.5626 26.0271 71.6485 25.9578C71.7344 25.8827 71.8546 25.848 72.0092 25.848C72.1352 25.848 72.244 25.8596 72.3242 25.8827Z" fill="white"/>
<path fill-rule="evenodd" clip-rule="evenodd" d="M77.5177 25.3108C77.5629 25.2025 77.5858 25.0774 77.5864 24.941C77.5858 24.799 77.5629 24.6739 77.5177 24.5713C77.4719 24.4616 77.4089 24.3749 77.3287 24.3056C77.2486 24.2363 77.157 24.1843 77.0482 24.1496C76.9394 24.115 76.8191 24.0976 76.6931 24.0976H75.6453V26.9225H75.9602V25.8134H76.6416C76.779 25.8134 76.905 25.7903 77.0252 25.7556C77.1398 25.7152 77.2428 25.6632 77.323 25.5881C77.4089 25.513 77.4719 25.4205 77.5177 25.3108ZM77.1169 24.5251C77.2199 24.6233 77.2715 24.762 77.2715 24.9468C77.2715 25.3281 77.0596 25.5188 76.6359 25.5188H75.9545V24.3749H76.676C76.8706 24.3749 77.0138 24.4269 77.1169 24.5251Z" fill="white"/>
<path fill-rule="evenodd" clip-rule="evenodd" d="M79.3214 26.9168V26.6568C79.247 26.7377 79.1554 26.807 79.0523 26.8705C78.9493 26.9283 78.8175 26.963 78.6687 26.963C78.5885 26.963 78.5026 26.9514 78.4225 26.9283C78.3423 26.9052 78.2678 26.8705 78.2049 26.8128C78.1419 26.7608 78.0904 26.6915 78.0503 26.6048C78.0102 26.5182 77.993 26.4084 77.993 26.2813C77.993 26.1658 78.0159 26.0618 78.0617 25.9751C78.1075 25.8885 78.1648 25.8192 78.2392 25.7614C78.3137 25.7036 78.3996 25.6632 78.4969 25.6401C78.5942 25.617 78.6973 25.5996 78.8004 25.5996C78.9034 25.5996 79.0065 25.6112 79.0981 25.6343C79.1897 25.6574 79.2642 25.6863 79.3272 25.7209V25.4725C79.3272 25.1606 79.1726 25.0046 78.8691 25.0046C78.7546 25.0046 78.6572 25.0162 78.5599 25.0451C78.4683 25.0739 78.3766 25.1144 78.2908 25.1664L78.1762 24.918C78.2678 24.866 78.3766 24.8255 78.4969 24.7966C78.6171 24.7678 78.7431 24.7504 78.8805 24.7504C79.1096 24.7504 79.2871 24.8024 79.4188 24.9122C79.5505 25.0162 79.6192 25.1953 79.6192 25.4379V26.9168H79.3214ZM79.3214 25.9694C79.2527 25.9289 79.1783 25.9 79.0924 25.8827C79.0122 25.8596 78.9034 25.848 78.7775 25.848C78.6229 25.848 78.5026 25.8827 78.4167 25.9578C78.3308 26.0271 78.285 26.1311 78.285 26.2697C78.285 26.4315 78.3251 26.547 78.4053 26.6164C78.4854 26.6857 78.5885 26.7261 78.7145 26.7261C78.8519 26.7261 78.9664 26.6972 79.0695 26.6337C79.1726 26.5701 79.2527 26.495 79.3157 26.4084V25.9809L79.3214 25.9694Z" fill="white"/>
<path d="M81.2797 25.0508C81.3312 25.0624 81.377 25.0855 81.4171 25.1086V25.1028L81.4915 24.7966C81.4572 24.7793 81.4114 24.7678 81.3598 24.7562C81.3083 24.7446 81.2453 24.7446 81.1651 24.7446C81.0506 24.7446 80.9476 24.7735 80.8559 24.8313C80.7643 24.8948 80.6899 24.9642 80.6441 25.0508V24.7909H80.3463V26.911H80.6441V25.669C80.6441 25.4668 80.6842 25.3108 80.7643 25.1952C80.8445 25.0855 80.9533 25.0277 81.1022 25.0277C81.1709 25.0277 81.2281 25.0393 81.2797 25.0508Z" fill="white"/>
<path d="M84.9214 25.6747V26.9168L84.9271 26.911H85.2249V25.617C85.2249 25.4668 85.2077 25.3339 85.1734 25.2241C85.139 25.1144 85.0932 25.0219 85.0245 24.9526C84.9558 24.8833 84.8813 24.8313 84.7897 24.7966C84.6981 24.762 84.6007 24.7446 84.4862 24.7446C84.3545 24.7446 84.24 24.7735 84.1427 24.8313C84.0453 24.8891 83.9709 24.9642 83.9079 25.0508V24.7909H83.6101V26.911H83.9079V25.669C83.9079 25.4379 83.9594 25.2703 84.0568 25.1664C84.1598 25.0624 84.2801 25.0104 84.429 25.0104C84.595 25.0104 84.721 25.0682 84.8012 25.1721C84.8813 25.2761 84.9214 25.4437 84.9214 25.6747Z" fill="white"/>
<path fill-rule="evenodd" clip-rule="evenodd" d="M87.5497 25.796V25.8885C87.5497 25.9116 87.5497 25.9347 87.5383 25.9636H86.1354C86.1469 26.1946 86.2041 26.3737 86.3072 26.5066C86.4103 26.6395 86.5477 26.703 86.7195 26.703C86.8397 26.703 86.9485 26.6857 87.0287 26.651C87.1088 26.6164 87.2005 26.5644 87.2978 26.5008L87.4352 26.7203C87.4065 26.7388 87.3777 26.7561 87.35 26.7727C87.3171 26.7924 87.2857 26.8113 87.2577 26.8301C87.2005 26.859 87.1431 26.8879 87.0859 26.9052C87.0287 26.9225 86.9657 26.9399 86.9027 26.9514C86.8397 26.963 86.7653 26.9687 86.6851 26.9687C86.5878 26.9687 86.4904 26.9514 86.3874 26.911C86.2843 26.8763 86.1927 26.8128 86.1125 26.7203C86.0323 26.6337 85.9636 26.5182 85.9121 26.3737C85.8606 26.2293 85.8319 26.056 85.8319 25.848C85.8319 25.6805 85.8548 25.5245 85.9006 25.3917C85.9464 25.2588 86.0037 25.1433 86.0839 25.0508C86.164 24.9584 86.2557 24.8833 86.3587 24.8313C86.4618 24.7793 86.5763 24.7562 86.7023 24.7562C86.8397 24.7562 86.96 24.7793 87.063 24.8313C87.1661 24.8833 87.2577 24.9526 87.3264 25.045C87.4009 25.1375 87.4524 25.2472 87.4868 25.3743C87.5211 25.5014 87.5383 25.6401 87.5383 25.7903L87.5497 25.796ZM87.2692 25.7209C87.2577 25.513 87.2062 25.3454 87.1146 25.2126C87.0229 25.0797 86.8855 25.0162 86.7023 25.0162C86.5477 25.0162 86.416 25.0739 86.3186 25.1895C86.2213 25.305 86.1583 25.4841 86.1411 25.7209H87.2692Z" fill="white"/>
<path d="M89.1072 25.0508C89.1587 25.0624 89.2045 25.0855 89.2446 25.1086V25.1028L89.3191 24.7966C89.2847 24.7793 89.2389 24.7678 89.1874 24.7562C89.1358 24.7446 89.0729 24.7446 88.9927 24.7446C88.8782 24.7446 88.7751 24.7735 88.6835 24.8313C88.5919 24.8948 88.5174 24.9642 88.4716 25.0508V24.7909H88.1739V26.911H88.4716V25.669C88.4716 25.4668 88.5117 25.3108 88.5919 25.1952C88.672 25.0855 88.7808 25.0277 88.9297 25.0277C88.9984 25.0277 89.0557 25.0393 89.1072 25.0508Z" fill="white"/>
<path d="M181.072 7.62245C180.985 7.62245 180.898 7.62143 180.812 7.6204C180.725 7.61937 180.637 7.61833 180.549 7.61833V7.32574H181.049L181.072 7.62039V7.62245Z" fill="white"/>
<path d="M179.424 7.34428L179.387 7.64305L179.385 7.64511C179.645 7.63893 179.904 7.63275 180.168 7.62863L180.19 7.33192C179.935 7.33398 179.677 7.3381 179.424 7.34428Z" fill="white"/>
<path fill-rule="evenodd" clip-rule="evenodd" d="M117.928 11.3045C117.928 12.0381 117.685 12.5841 117.332 13.2249V13.2208C117.131 13.5585 116.915 13.9108 116.738 14.1985L116.706 14.251C117.072 14.5024 117.393 14.7661 117.668 15.1412C117.974 15.5636 118.189 16.1879 118.189 16.9832C118.189 18.0918 117.839 18.9654 117.149 19.5279C116.493 20.0904 115.56 20.3562 114.076 20.3562H109.319V8.58883H114.18C115.358 8.58883 116.138 8.68361 116.781 9.07304C117.5 9.52635 117.928 10.3217 117.928 11.3045ZM115.972 12.7984C116.245 12.3169 116.429 11.9258 116.43 11.428C116.429 10.8688 116.247 10.511 115.804 10.2764C115.437 10.0744 114.871 10.027 114.091 10.027H110.787V13.6246H115.483C115.651 13.3444 115.818 13.0642 115.972 12.7984ZM116.077 18.4688C116.505 18.1392 116.689 17.6405 116.689 16.9853L116.691 16.9832C116.691 16.2806 116.476 15.782 115.941 15.407C115.558 15.1432 115.084 15.0649 114.427 15.0649H110.787V18.9201H114.089C115.084 18.9201 115.664 18.78 116.077 18.4688Z" fill="white"/>
<path d="M125.673 16.2373L128.993 8.59088H131.026V20.3562H129.573V10.6349L126.379 18.0155H124.956L121.759 10.6349V20.3562H120.306V8.59088H122.355L125.673 16.2373Z" fill="white"/>
<path d="M144.869 8.59088L142.85 18.5924L140.572 10.3691H138.906L136.641 18.5924L134.608 8.59088H133.108L135.494 20.3562H137.529L139.731 12.3368L141.948 20.3562H143.983L146.353 8.59088H144.869Z" fill="white"/>
<path d="M196.889 16.1116C196.988 15.9839 197.075 15.852 197.152 15.7201L196.97 15.3966C196.88 15.5718 196.771 15.7449 196.643 15.9138C195.672 17.1789 193.574 18.2339 190.58 18.9654C187.71 19.666 184.175 20.0368 180.358 20.0368V20.3562C184.199 20.3562 187.759 19.9833 190.653 19.2765C193.718 18.5286 195.875 17.4324 196.891 16.1096L196.889 16.1116Z" fill="white"/>
<path d="M180.387 15.7449C180.806 15.7449 181.222 15.7387 181.631 15.7284L181.708 17.1295C181.27 17.1398 180.828 17.1481 180.387 17.1481V15.7449Z" fill="white"/>
<path d="M181.724 17.4097L181.81 18.9571C181.368 18.9674 180.92 18.9716 180.468 18.9736H180.385V17.4283C180.833 17.4283 181.278 17.42 181.722 17.4097H181.724Z" fill="white"/>
<path d="M191.978 16.0841L191.977 16.0828L191.975 16.0848L191.978 16.0841Z" fill="white"/>
<path d="M192.5 17.4324L191.978 16.0841C192.473 15.9442 192.928 15.7941 193.337 15.6377L193.889 16.8802C193.469 17.0759 193.003 17.2593 192.5 17.4324Z" fill="white"/>
<path d="M185.203 16.9358L184.974 15.5491C185.389 15.5141 185.799 15.4729 186.2 15.4276L186.498 16.806C186.074 16.8534 185.643 16.8967 185.203 16.9338V16.9358Z" fill="white"/>
<path d="M183.776 18.8768L183.606 17.3314C184.066 17.3047 184.52 17.2737 184.97 17.2367L185.223 18.7738C184.751 18.8129 184.266 18.848 183.776 18.8768Z" fill="white"/>
<path d="M186.557 17.0821L186.885 18.6048C186.435 18.6584 185.973 18.7078 185.503 18.7491L185.249 17.2119C185.691 17.1728 186.127 17.1295 186.557 17.0801V17.0821Z" fill="white"/>
<path d="M188.141 16.5881L188.142 16.5917L188.144 16.5876L188.141 16.5881Z" fill="white"/>
<path d="M187.771 15.2195L188.141 16.5881C187.698 16.6559 187.245 16.7155 186.78 16.771L186.482 15.3925C186.916 15.341 187.343 15.2833 187.761 15.2195H187.771Z" fill="white"/>
<path d="M188.215 16.8637L188.618 18.3617C188.15 18.4379 187.664 18.508 187.165 18.5698L186.837 17.0492C187.305 16.9935 187.765 16.9317 188.215 16.8637Z" fill="white"/>
<path d="M181.913 15.7201C182.326 15.7078 182.736 15.6934 183.139 15.6727L183.293 17.0677C182.864 17.0904 182.43 17.1089 181.992 17.1213L181.913 15.7201Z" fill="white"/>
<path d="M183.324 17.3479L183.492 18.8933C183.032 18.918 182.566 18.9365 182.091 18.9489L182.004 17.4015C182.446 17.3871 182.886 17.3706 183.322 17.3479H183.324Z" fill="white"/>
<path d="M183.421 15.6583C183.851 15.6336 184.274 15.6048 184.692 15.5718V15.5739L184.921 16.9606C184.477 16.9956 184.029 17.0265 183.573 17.0533L183.421 15.6583Z" fill="white"/>
<path d="M188.422 16.5484L188.051 15.1762C188.511 15.102 188.955 15.0216 189.38 14.9351L189.822 16.3032C189.372 16.3918 188.906 16.4743 188.422 16.5484Z" fill="white"/>
<path d="M190.655 17.9619L190.187 16.5155V16.5134C190.726 16.4022 191.233 16.2826 191.705 16.157L192.235 17.521C191.746 17.6817 191.215 17.8259 190.655 17.9619Z" fill="white"/>
<path d="M189.91 16.5711L190.382 18.0299C190.366 18.0332 190.35 18.0377 190.333 18.0424L190.319 18.0464C189.865 18.1433 189.393 18.2339 188.898 18.3184L188.495 16.8225C188.987 16.7442 189.46 16.6618 189.91 16.5732V16.5711Z" fill="white"/>
<path d="M193.601 15.5326C193.874 15.4193 194.126 15.3039 194.353 15.1844H194.355C194.519 15.0999 194.671 15.0031 194.811 14.9021L195.374 16.0148C195.024 16.2765 194.612 16.5237 194.144 16.7566L193.601 15.5326Z" fill="white"/>
<path d="M181.615 15.4502C181.21 15.4605 180.8 15.4646 180.387 15.4667V13.9275C180.772 13.9275 181.155 13.9213 181.53 13.9152L181.615 15.4502Z" fill="white"/>
<path d="M185.823 13.6741L186.141 15.1514H186.139C185.744 15.1947 185.339 15.2359 184.927 15.271L184.68 13.7709C185.069 13.7421 185.45 13.7091 185.823 13.6741Z" fill="white"/>
<path d="M187.309 13.5031L187.698 14.9454C187.285 15.0093 186.859 15.0649 186.421 15.1185L186.105 13.6473C186.496 13.6061 186.877 13.5608 187.25 13.5134C187.261 13.5123 187.272 13.5105 187.283 13.5089C187.292 13.5074 187.301 13.5061 187.309 13.5051V13.5031Z" fill="white"/>
<path d="M188.841 13.2641L189.293 14.6631C188.87 14.7476 188.432 14.828 187.978 14.9001L187.591 13.4639C188.022 13.4042 188.44 13.3362 188.841 13.2641Z" fill="white"/>
<path d="M190.1 16.2476L189.658 14.8774C190.155 14.7702 190.629 14.6549 191.075 14.5312L191.602 15.8953C191.132 16.021 190.629 16.1384 190.1 16.2476Z" fill="white"/>
<path d="M192.628 14.0285L193.226 15.3802H193.228C192.82 15.5368 192.368 15.6831 191.878 15.8211L191.349 14.455C191.803 14.3211 192.228 14.1789 192.628 14.0285Z" fill="white"/>
<path d="M181.71 12.069C182.059 12.0628 182.403 12.0525 182.742 12.0422L182.912 13.5937C182.547 13.6102 182.174 13.6226 181.797 13.6308L181.71 12.069Z" fill="white"/>
<path d="M181.814 13.9069C182.195 13.8966 182.572 13.8863 182.943 13.8698L183.111 15.3925C182.712 15.4131 182.308 15.4275 181.899 15.4399L181.814 13.9069Z" fill="white"/>
<path d="M184.1 11.9804L184.353 13.5154C183.974 13.5402 183.587 13.5628 183.194 13.5814L183.024 12.0319C183.389 12.0175 183.747 12.001 184.1 11.9824V11.9804Z" fill="white"/>
<path d="M184.4 13.7915L184.647 15.2936C184.236 15.3266 183.816 15.3534 183.391 15.3781L183.224 13.8575C183.624 13.8389 184.015 13.8183 184.4 13.7915Z" fill="white"/>
<path d="M185.764 13.4C185.395 13.4351 185.018 13.468 184.635 13.4948L184.382 11.9639C184.743 11.9433 185.095 11.9186 185.44 11.8938L185.764 13.398V13.4Z" fill="white"/>
<path d="M185.722 11.8752L185.722 11.8732V11.8753L185.722 11.8752Z" fill="white"/>
<path d="M185.722 11.8752L186.044 13.3732C186.443 13.332 186.833 13.2867 187.212 13.2373C187.214 13.2373 187.215 13.2371 187.217 13.2369C187.219 13.2367 187.221 13.2365 187.223 13.2362L187.226 13.2358C187.228 13.2354 187.231 13.2352 187.234 13.2352L186.841 11.7743C186.478 11.8114 186.105 11.8443 185.722 11.8752Z" fill="white"/>
<path d="M188.302 11.5992L188.754 12.9962C188.357 13.0683 187.943 13.1322 187.518 13.1919L187.126 11.7414C187.534 11.6981 187.927 11.6507 188.302 11.5992Z" fill="white"/>
<path d="M189.034 12.9447L188.586 11.56C189.032 11.4962 189.453 11.4261 189.845 11.354L190.351 12.6603C189.934 12.7634 189.494 12.8581 189.034 12.9447Z" fill="white"/>
<path d="M190.453 12.9241L190.454 12.9264C190.03 13.0293 189.587 13.1261 189.121 13.2146L189.571 14.6075C190.062 14.5024 190.53 14.3891 190.974 14.2675L190.454 12.9264L190.455 12.9261L190.453 12.9241Z" fill="white"/>
<path d="M192.512 13.773C192.117 13.9213 191.693 14.0615 191.243 14.1913L190.726 12.8561C191.156 12.7428 191.564 12.6232 191.945 12.4934L192.512 13.773Z" fill="white"/>
<path d="M192.603 10.5545L193.173 11.6775C193.039 11.7578 192.889 11.8341 192.727 11.9021C192.526 11.9866 192.318 12.0669 192.097 12.1452L191.568 10.9501C191.985 10.8265 192.332 10.6926 192.603 10.5545Z" fill="white"/>
<path d="M193.351 13.4227C193.167 13.5072 192.974 13.5896 192.774 13.67L192.21 12.3986C192.429 12.3203 192.638 12.24 192.837 12.1576C193.005 12.0875 193.159 12.0113 193.301 11.9268L193.901 13.1116C193.733 13.227 193.548 13.332 193.351 13.4227Z" fill="white"/>
<path d="M193.487 15.2771L192.889 13.9275C193.092 13.8472 193.285 13.7627 193.471 13.6761C193.662 13.5875 193.85 13.4825 194.028 13.3609L194.681 14.6487C194.541 14.7517 194.389 14.8506 194.223 14.9372C194.002 15.0525 193.755 15.1659 193.489 15.2751L193.487 15.2771Z" fill="white"/>
<path d="M180.387 12.0834C180.737 12.0813 181.086 12.0793 181.428 12.0731L181.426 12.0752L181.514 13.637C181.143 13.6432 180.768 13.6494 180.387 13.6494V12.0834Z" fill="white"/>
<path d="M182.132 7.34428L182.168 7.64305L182.17 7.64511C181.911 7.63893 181.651 7.63275 181.388 7.62863L181.366 7.33192C181.623 7.33398 181.878 7.3381 182.132 7.34428Z" fill="white"/>
<path d="M182.485 7.65131L182.448 7.35048C182.74 7.35872 183.03 7.36696 183.316 7.37932L183.364 7.68428C183.074 7.67191 182.783 7.66161 182.487 7.65131H182.485Z" fill="white"/>
<path d="M184.597 7.74815L184.536 7.43908C184.238 7.4226 183.938 7.40611 183.634 7.39375L183.682 7.6987C183.992 7.71309 184.297 7.72966 184.597 7.74815Z" fill="white"/>
<path d="M184.917 7.76874L184.856 7.45761C185.162 7.47821 185.466 7.49882 185.762 7.52148L185.841 7.83674C185.539 7.81201 185.231 7.78935 184.917 7.76874Z" fill="white"/>
<path d="M187.144 7.95824L187.145 7.96037V7.95831L187.144 7.95824Z" fill="white"/>
<path d="M187.144 7.95824L187.043 7.63893C186.733 7.60597 186.417 7.57712 186.093 7.54827L186.172 7.86353C186.504 7.89235 186.83 7.92529 187.144 7.95824Z" fill="white"/>
<path d="M187.483 7.99747L187.382 7.67604C187.771 7.71931 188.148 7.7667 188.509 7.81821L188.63 8.14789C188.264 8.09431 187.88 8.04486 187.481 7.99953L187.483 7.99747Z" fill="white"/>
<path d="M179.108 7.35048L179.071 7.65131H179.069C178.773 7.66161 178.481 7.67191 178.191 7.68428L178.24 7.37932C178.526 7.36696 178.816 7.35872 179.108 7.35048Z" fill="white"/>
<path d="M176.951 7.74802C177.25 7.72953 177.556 7.71309 177.865 7.6987L177.914 7.39375C177.61 7.40611 177.31 7.4226 177.012 7.43908L176.951 7.74802Z" fill="white"/>
<path d="M189.938 8.05104L190.09 8.39308H190.088C189.743 8.32509 189.374 8.25915 188.983 8.1994L188.862 7.86766C189.239 7.92535 189.597 7.98717 189.938 8.05104Z" fill="white"/>
<path d="M190.625 12.5923L190.124 11.3004C190.554 11.2139 190.945 11.1232 191.296 11.0284L191.831 12.2359C191.454 12.3636 191.051 12.4811 190.625 12.5923Z" fill="white"/>
<path d="M191.665 8.46312L191.823 8.82989C191.436 8.70214 190.982 8.58057 190.465 8.4693L190.313 8.12314C190.818 8.22823 191.272 8.34155 191.665 8.46312Z" fill="white"/>
<path d="M192.224 8.97618L192.06 8.59705C192.083 8.6058 192.107 8.61418 192.13 8.6225C192.161 8.63378 192.192 8.64495 192.222 8.65681C192.583 8.79692 192.857 8.93703 193.094 9.16368C193.094 9.16368 193.098 9.16574 193.098 9.1678L193.128 9.19871C193.242 9.31204 193.347 9.44803 193.451 9.61493C193.469 9.63965 193.479 9.65408 193.479 9.65408L194.032 10.5998C193.988 10.9316 193.769 11.2509 193.408 11.5229L192.847 10.4165C192.859 10.4082 192.871 10.4 192.881 10.3938L192.881 10.3938L192.882 10.3937C192.882 10.3936 192.883 10.3935 192.883 10.3932C192.884 10.3929 192.884 10.3925 192.885 10.3917C192.89 10.3876 192.895 10.384 192.9 10.3804C192.903 10.3785 192.906 10.3765 192.909 10.3745C192.911 10.3728 192.913 10.371 192.916 10.3691C192.916 10.3691 192.917 10.3683 192.919 10.3673L192.92 10.3666C192.92 10.366 192.921 10.3655 192.922 10.3649C192.93 10.36 192.938 10.3536 192.945 10.3481L192.95 10.3443C192.95 10.3443 192.954 10.3423 192.956 10.3402C192.959 10.338 192.962 10.3356 192.965 10.3331L192.969 10.3299L192.978 10.3231L192.982 10.3196C192.984 10.3196 192.985 10.3178 192.987 10.3159C192.987 10.3153 192.988 10.3146 192.988 10.314L192.989 10.3134C192.993 10.3103 192.997 10.3067 193.001 10.3031L193.005 10.2996L193.007 10.2974L193.009 10.296C193.01 10.2949 193.012 10.2938 193.013 10.2928L193.019 10.2866C193.027 10.2805 193.035 10.2722 193.041 10.266L193.047 10.2599C193.051 10.2568 193.055 10.2532 193.059 10.2496C193.062 10.246 193.066 10.2423 193.07 10.2393L193.1 10.2083C193.103 10.2042 193.107 10.2006 193.11 10.197C193.114 10.1934 193.117 10.1898 193.12 10.1857L193.124 10.1816C193.13 10.1754 193.137 10.1671 193.143 10.1589C193.143 10.1589 193.143 10.1568 193.145 10.1548C193.151 10.1465 193.157 10.1383 193.163 10.1321C193.23 10.0394 193.264 9.94667 193.264 9.85188C193.264 9.54075 192.893 9.2461 192.22 8.97618H192.224Z" fill="white"/>
<path d="M194.128 12.9426L193.536 11.7743C193.874 11.5291 194.112 11.2448 194.233 10.9398L194.864 12.0195C194.734 12.3368 194.474 12.6603 194.128 12.9426Z" fill="white"/>
<path d="M195.038 12.3142L195.689 13.4268C195.516 13.7874 195.259 14.15 194.902 14.4674L194.257 13.194C194.584 12.9385 194.862 12.6356 195.038 12.3142Z" fill="white"/>
<path d="M195.855 13.7112L196.039 14.0264V14.0244C196.193 14.2593 196.319 14.4715 196.465 14.7208C196.435 14.8341 196.355 14.9949 196.256 15.1618C196.248 15.1721 196.242 15.1824 196.236 15.1927C196.23 15.203 196.224 15.2133 196.216 15.2236C196.045 15.4337 195.83 15.6357 195.593 15.8314L195.032 14.7229C195.391 14.4179 195.662 14.0656 195.855 13.7112Z" fill="white"/>
<path d="M167.045 20.3418H166.015V12.0875H167.045V13.058C167.377 12.8211 167.671 12.6335 168.05 12.4481C168.514 12.2194 169.135 12.0298 169.84 11.9041L169.901 11.8938V12.957L169.858 12.9653C169.305 13.0745 168.851 13.2167 168.381 13.4248C167.961 13.6123 167.511 13.874 167.045 14.2078V20.3418Z" fill="white"/>
<path d="M176.772 20.3418H178.207L173.937 15.8767L177.865 12.0875H176.395L172.775 15.5697V8.59705H171.747V20.3418H172.775V16.1734L176.758 20.3274L176.772 20.3418Z" fill="white"/>
<path fill-rule="evenodd" clip-rule="evenodd" d="M155.387 9.50986C154.781 8.86287 154.011 8.59912 152.722 8.59912H148.402V20.3439H149.446V15.7902C150.962 15.7902 152.517 15.7902 153.182 15.7284C154.319 15.6254 155.01 15.3142 155.497 14.6899C155.997 14.0429 156.222 13.2187 156.222 12.0175C156.222 11.0099 155.902 10.0497 155.387 9.51192V9.50986ZM154.761 13.8698C154.439 14.3602 153.952 14.5951 153.083 14.6796C152.29 14.7558 150.849 14.7558 149.448 14.7558V9.62936H152.647C153.453 9.62936 154.078 9.7159 154.51 10.1404C154.909 10.5319 155.146 11.2324 155.146 12.0175C155.146 12.8787 155.026 13.4516 154.759 13.8719L154.761 13.8698Z" fill="white"/>
<path fill-rule="evenodd" clip-rule="evenodd" d="M160.929 11.832C161.908 11.832 162.928 12.2173 164.11 12.6645H164.108L164.154 12.6809V20.35H163.124V19.0396C162.828 19.3054 162.565 19.5238 162.265 19.7525C161.525 20.2965 160.96 20.6117 160.26 20.6117C159.16 20.6117 158.462 20.2079 157.998 19.3033C157.68 18.6872 157.491 17.5251 157.491 16.192C157.491 15.273 157.605 14.0017 158.138 13.1528C158.734 12.2153 159.543 11.832 160.929 11.832ZM161.778 18.9118C162.297 18.5059 162.839 18.0299 163.126 17.7724V13.3691C162.409 13.1013 161.667 12.8293 160.929 12.8293C159.922 12.8293 159.358 13.1033 158.985 13.7751C158.695 14.2922 158.535 15.102 158.535 16.1879C158.535 17.2738 158.661 18.2278 158.864 18.6831C159.158 19.3425 159.561 19.6103 160.26 19.6103C160.698 19.6103 161.166 19.396 161.778 18.9118Z" fill="white"/>
</svg>
