<svg width="138" height="55" viewBox="0 0 138 55" fill="none" xmlns="http://www.w3.org/2000/svg">
<path d="M21.5552 0.96875C10.082 0.96875 0.781219 10.2415 0.781219 21.6802C0.781219 33.1192 10.082 42.3919 21.5552 42.3919C33.0284 42.3919 42.3295 33.1192 42.3295 21.6802C42.3295 10.2415 33.0284 0.96875 21.5552 0.96875Z" fill="#186DBF"/>
<path d="M21.5552 2.00452C10.6557 2.00452 1.81967 10.8136 1.81967 21.6802C1.81967 32.5472 10.6557 41.3563 21.5552 41.3563C32.455 41.3563 41.2906 32.5472 41.2906 21.6802C41.2906 10.8136 32.455 2.00452 21.5552 2.00452Z" fill="white"/>
<path d="M21.5552 2.93631C11.1721 2.93631 2.75473 11.3283 2.75473 21.6802C2.75473 32.0323 11.1721 40.4244 21.5552 40.4244C31.9387 40.4244 40.356 32.0323 40.356 21.6802C40.356 11.3283 31.9387 2.93631 21.5552 2.93631ZM21.5552 33.382C15.0731 33.382 9.81798 28.1435 9.81798 21.6802C9.81798 15.2176 15.0731 9.9782 21.5552 9.9782C28.0382 9.9782 33.2925 15.2176 33.2925 21.6802C33.2925 28.1435 28.0382 33.382 21.5552 33.382Z" fill="#E31536"/>
<path d="M11.2356 24.8644C11.7284 26.4519 12.5563 27.8439 13.6169 28.9875V24.1296L10.8647 20.1209C10.6375 21.662 10.7426 23.2766 11.2356 24.8644ZM16.7925 28.7109V23.1502L13.6416 18.5608V14.3512C13.0583 14.9786 12.5536 15.671 12.1367 16.4122L13.6169 18.5682V24.1296L16.7678 28.7186V31.3313C17.5318 31.7085 18.3404 31.9955 19.1773 32.1848L16.7925 28.7109ZM19.9678 22.1703L23.1183 26.7588V32.3203L19.9678 27.7314V22.1703L16.8169 17.5809L16.8173 12.0203L19.9678 16.6088V22.1703ZM23.143 21.1904L19.9921 16.6014V11.0404L23.143 15.6294V21.1904L26.2935 25.7794V31.3404L23.143 26.7515V21.1904ZM18.3616 11.3915C16.753 11.8882 15.3441 12.7253 14.1902 13.7986L16.7925 17.5887V23.1502L19.943 27.7387V32.3321C21.5035 32.5676 23.14 32.4654 24.7491 31.9687C26.3577 31.4726 27.7662 30.6355 28.9202 29.5621L26.3183 25.772V20.211L23.1673 15.6216V11.0287C21.6073 10.7927 19.9704 10.8954 18.3616 11.3915ZM29.4935 24.7921V19.2306L26.343 14.6422V12.0289C25.5787 11.6522 24.7699 11.3647 23.933 11.1755L26.3183 14.6495V20.211L29.4687 24.7999V29.0096C30.0525 28.3818 30.5567 27.6898 30.9736 26.9485L29.4935 24.7921ZM31.8749 18.4963C31.3823 16.9089 30.5541 15.5168 29.4935 14.3732V19.2306L32.2457 23.2394C32.4728 21.6984 32.3677 20.0836 31.8749 18.4963Z" fill="#186DBF"/>
<path d="M8.98666 25.552L9.52001 26.6843L8.65222 28.3198C8.52192 28.5628 8.40906 28.762 8.40906 28.762L8.42029 28.7831C8.42029 28.7831 8.64967 28.7974 8.92496 28.8208L10.773 28.9867L11.4349 30.0497L7.44233 32.3753L6.80335 31.3552L8.47466 30.3822C8.86425 30.1574 9.15822 29.9986 9.15822 29.9986L9.14654 29.9769C9.14654 29.9769 8.94452 29.9622 8.52325 29.9003L6.82203 29.6479L6.8108 29.6266L7.52571 28.0674C7.70283 27.6812 7.80056 27.5045 7.80056 27.5045L7.78888 27.4828C7.78888 27.4828 7.4948 27.6422 7.09354 27.8457L5.36498 28.7116L4.85465 27.6218L8.98666 25.552Z" fill="white"/>
<path d="M12.0469 30.5783L12.9671 31.3937L11.1187 33.5864C10.8155 33.9506 10.8308 34.3329 11.2894 34.6932C11.7485 35.0534 12.125 34.9786 12.409 34.5997L14.1141 32.2939L15.1248 32.9949L13.3745 35.3575C12.5723 36.4417 11.5331 36.2277 10.6344 35.5224C9.73582 34.8166 9.28419 33.8597 10.1532 32.8282L12.0469 30.5783ZM13.8878 32.0705L12.7521 32.8616L12.733 32.8464L13.2381 31.56L13.8878 32.0705Z" fill="white"/>
<path d="M15.8367 33.3942L17.0383 33.8315L17.7177 36.1446C17.8649 36.6448 17.9248 36.9097 17.9248 36.9097L17.9595 36.9201C17.9595 36.9201 18.0381 36.5764 18.1528 36.155L18.6457 34.3143L19.8201 34.5914L18.6254 39.0462L17.3815 38.7482L16.6066 36.3299C16.4569 35.8606 16.3938 35.5631 16.3938 35.5631L16.3591 35.5527C16.3591 35.5527 16.2562 35.9143 16.125 36.3057L15.4943 38.181L14.3626 37.7649L15.8367 33.3942Z" fill="white"/>
<path d="M24.8355 37.3839C24.8612 38.4763 24.1741 39.228 22.8633 39.3168C21.6372 39.3995 20.4894 38.8448 20.4233 37.0618C20.3552 35.2548 21.358 34.5789 22.5358 34.4996C23.8105 34.4135 24.5476 35.1231 24.6744 36.0874L23.4357 36.1714C23.3224 35.7536 23.0978 35.5072 22.5519 35.544C22.042 35.5787 21.6837 36.0467 21.7219 36.9742C21.7636 37.9438 22.1671 38.3179 22.7378 38.2793C23.3085 38.2408 23.5582 37.9684 23.5851 37.4683L24.8355 37.3839Z" fill="white"/>
<path d="M25.11 34.1974L26.2588 33.7553L26.9102 35.3124L28.3439 34.6607L27.5925 33.1496L28.6805 32.5749L30.7308 36.7088L29.6429 37.2835L28.8312 35.6392L27.331 36.3209L28.0434 38.01L26.8946 38.4517L25.1126 34.203L25.11 34.1974Z" fill="white"/>
<path d="M29.407 32.0337L31.6211 29.9185L32.3335 30.6156L30.9454 31.9419L31.4748 32.5277L32.819 31.2439L33.5144 31.9233L32.1262 33.2496L32.7022 33.8926L34.2656 32.3983L34.978 33.0958L32.5006 35.4627L29.407 32.0337Z" fill="white"/>
<path d="M32.1741 29.2642L32.8095 28.157L35.2116 27.8807C35.731 27.8205 36.0029 27.8067 36.0029 27.8067L36.0194 27.7742C36.0194 27.7742 35.6928 27.6392 35.2954 27.4551L33.5591 26.6593L34.0312 25.552L38.2336 27.4793L37.7289 28.6515L35.2073 29.0035C34.7178 29.0719 34.413 29.0832 34.413 29.0832L34.3964 29.1157C34.3964 29.1157 34.7369 29.2781 35.1017 29.473L36.849 30.41L36.2461 31.4517L32.1741 29.2642Z" fill="white"/>
<path d="M5.7241 14L6.65181 14.3658L5.91089 16.4135L6.77734 16.6993L7.4709 14.7828L8.3756 15.141L7.70283 17.0002L9.32333 17.525L8.97499 18.702L4.54322 17.2622L5.7241 14Z" fill="white"/>
<path d="M11.3897 10.956C12.1893 11.6786 12.3274 12.6681 11.5279 13.677C10.7965 14.6002 9.67077 15.0427 8.21449 13.9653C6.77734 12.9027 6.96713 11.6457 7.72896 10.6844C8.53581 9.66606 9.56515 9.58037 10.3639 10.1476L9.59472 11.1184C9.21859 10.9074 8.86636 10.9313 8.51591 11.3738C8.16146 11.8211 8.24274 12.3646 9.02146 12.947C9.76673 13.5029 10.3487 13.4826 10.6731 13.0733C11.0201 12.6356 10.9524 12.281 10.6127 11.9362L11.3897 10.956Z" fill="white"/>
<path d="M14.4299 5.73658C15.2473 5.3598 16.0472 5.27844 16.3999 6.11158C16.6892 6.79352 16.5059 7.09181 16.148 7.39021L16.1611 7.41749C16.5419 7.3287 17.0531 7.34732 17.378 8.10641C17.7688 9.02169 17.1704 9.55176 16.353 9.92798L14.6244 10.7243L12.5523 6.6013L14.4299 5.73658ZM15.1243 7.40751C15.4444 7.25986 15.536 7.11088 15.4071 6.80305C15.2829 6.50598 15.0714 6.48347 14.7617 6.62547L14.0716 6.94371L14.4616 7.71279L15.1243 7.40751ZM15.9053 9.0923C16.2584 8.92913 16.3557 8.79135 16.2058 8.4394C16.0659 8.10941 15.8214 8.10209 15.4679 8.26481L14.8716 8.53938L15.292 9.37463L15.9053 9.0923Z" fill="white"/>
<path d="M22.8442 8.76629L21.5313 8.76286L21.1548 7.93703L19.5664 8.07305L19.3372 8.95119L18.0438 9.17765L19.3254 4.35618L20.7556 4.23358L22.8442 8.76629ZM20.7973 7.04858L20.4021 6.15093C20.2661 5.84609 20.1633 5.57463 20.1633 5.57463L20.1389 5.57673C20.1389 5.57673 20.0842 5.86173 20.002 6.18518L19.7667 7.13693L20.7973 7.04858Z" fill="white"/>
<path d="M24.0121 7.41272L22.9385 4.13969L24.3252 4.40251L24.7452 5.79022C24.8242 6.0557 24.8937 6.3376 24.8937 6.3376L24.9176 6.34281C24.9176 6.34281 25.0978 6.11501 25.2802 5.90628L26.2396 4.81642L27.6112 5.15074L25.2725 7.68551L24.9146 9.21534L23.702 8.95285L24.0121 7.41272Z" fill="white"/>
<path d="M28.5324 5.54824L31.4436 7.14169L30.9367 7.999L29.14 7.01566L28.7804 7.718L30.4389 8.62596L29.9438 9.46165L28.3387 8.58306L27.9448 9.34991L29.6932 10.3069L29.1865 11.1643L26.4351 9.65829L28.5324 5.54824Z" fill="white"/>
<path d="M33.0531 8.3904L34.4654 9.89683C35.1881 10.6676 35.3606 11.4115 34.5007 12.1631C33.9508 12.6426 33.55 12.775 33.0656 12.5871L32.3274 14.4455L31.4553 13.382L32.1306 11.8644L31.728 11.4349L30.6414 12.5139L29.7488 11.6682L33.0531 8.3904ZM32.4181 10.7503L32.8959 11.2595C33.1617 11.5432 33.385 11.5509 33.6824 11.2902C33.9751 11.0344 33.9703 10.7897 33.7046 10.5061L33.2021 9.96999L32.4181 10.7503Z" fill="white"/>
<path d="M34.2196 18.6929L33.7976 17.4887L35.1626 15.4995C35.4544 15.0768 35.6255 14.8551 35.6255 14.8551L35.6116 14.8214C35.6116 14.8214 35.295 14.9786 34.8951 15.1569L33.1543 15.9424L32.6254 14.8612L36.8394 12.9613L37.3962 14.1095L36.0103 16.2386C35.744 16.6439 35.5499 16.8885 35.5499 16.8885L35.5638 16.9223C35.5638 16.9223 35.9096 16.7725 36.2965 16.6257L38.1511 15.9242L38.5454 17.0613L34.2196 18.6929Z" fill="white"/>
<path d="M14.5379 48.9203H13.5781V47.5094C13.5781 47.4868 13.576 47.4452 13.5722 47.3849C13.5685 47.325 13.5555 47.2646 13.5328 47.2042C13.5102 47.1444 13.4708 47.0899 13.4142 47.0408C13.358 46.9918 13.2733 46.9674 13.16 46.9674C13.0322 46.9674 12.9345 46.9918 12.8665 47.0408C12.7986 47.0899 12.7479 47.1536 12.7139 47.2328C12.6804 47.3115 12.6593 47.4005 12.6523 47.4981C12.6443 47.5958 12.6406 47.6901 12.6406 47.7802C12.6406 47.9458 12.6523 48.0962 12.6745 48.2316C12.6971 48.3674 12.731 48.4969 12.7763 48.6214C12.8212 48.7455 12.8758 48.8678 12.9399 48.9881C13.0036 49.1084 13.0812 49.2367 13.1714 49.3721C13.2464 49.4924 13.3219 49.609 13.3974 49.722C13.4725 49.8348 13.5517 49.9518 13.6347 50.0721C13.7475 50.2301 13.8641 50.4032 13.9844 50.5914C14.1203 50.8093 14.2293 51.0109 14.3124 51.1954C14.3949 51.3797 14.4591 51.5508 14.5044 51.7088C14.5493 51.8669 14.5777 52.0136 14.5891 52.1489C14.6001 52.2847 14.6059 52.4087 14.6059 52.5215C14.6059 52.5668 14.6021 52.6644 14.5946 52.8149C14.587 52.9659 14.5552 53.133 14.4985 53.3175C14.442 53.5019 14.3555 53.6864 14.2385 53.8707C14.122 54.0552 13.9509 54.1964 13.7249 54.2941C13.6569 54.3238 13.5669 54.3524 13.454 54.3788C13.3408 54.4052 13.1978 54.4182 13.0246 54.4182C12.7009 54.4182 12.4468 54.3654 12.2623 54.2601C12.0777 54.155 11.944 54.0493 11.8614 53.9441C11.6958 53.7559 11.5977 53.5564 11.5678 53.3456C11.5377 53.1352 11.5188 52.9131 11.5113 52.6796V51.3588H12.4824V52.8149C12.4824 53.0111 12.4996 53.1557 12.5332 53.2496C12.5671 53.3439 12.6254 53.421 12.7084 53.4813C12.731 53.4965 12.7688 53.5169 12.8212 53.5435C12.874 53.5698 12.9416 53.5828 13.0246 53.5828C13.1525 53.5828 13.2523 53.551 13.324 53.4868C13.3953 53.4231 13.4464 53.3439 13.4767 53.2496C13.5064 53.1557 13.5232 53.0543 13.5274 52.9448C13.5311 52.8359 13.5328 52.7361 13.5328 52.6456C13.5328 52.3597 13.5047 52.1191 13.4481 51.9234C13.392 51.7277 13.2917 51.5055 13.1487 51.2574C12.9982 50.9938 12.8384 50.7435 12.669 50.5067C12.4996 50.2695 12.3394 50.023 12.1889 49.7669C12.1436 49.6994 12.0874 49.6072 12.0194 49.4903C11.9516 49.3737 11.8857 49.2367 11.822 49.0782C11.7578 48.9203 11.7013 48.7417 11.6525 48.5422C11.6035 48.3431 11.5792 48.1264 11.5792 47.8929C11.5792 47.4566 11.656 47.1163 11.8106 46.8715C11.965 46.6271 12.1247 46.4557 12.2908 46.3576C12.3734 46.3052 12.4883 46.2561 12.6351 46.211C12.7818 46.1661 12.968 46.1435 13.194 46.1435C13.2464 46.1435 13.3311 46.1472 13.4481 46.1547C13.5651 46.1622 13.6872 46.1883 13.8155 46.2336C13.9433 46.2788 14.0675 46.3543 14.1879 46.4595C14.3082 46.565 14.3988 46.7152 14.4591 46.9109C14.4818 46.9863 14.4985 47.0652 14.5099 47.1481C14.5212 47.2311 14.5304 47.3513 14.5379 47.5094V48.9203Z" fill="white"/>
<path d="M18.5313 46.3383L17.1914 50.3441L18.7719 54.4182H17.6954L16.4933 51.2482C16.4552 51.1488 16.4207 51.0499 16.3901 50.9505C16.3595 50.8517 16.3252 50.7486 16.2874 50.6417V54.4182H15.2453V46.3383H16.2987V49.852C16.2987 49.9434 16.295 50.0389 16.2874 50.1378C16.3176 50.0235 16.3482 49.9074 16.3788 49.7887C16.4094 49.671 16.4433 49.5507 16.482 49.4287L17.4435 46.3383H18.5313Z" fill="white"/>
<path d="M22.0229 46.3383V47.3456H20.4316V49.7145H21.8514V50.7218H20.4429V53.3997H22.0229V54.4182H19.3551V46.3383H22.0229Z" fill="white"/>
<path d="M26.059 46.3383V47.2998H24.7993V54.4182H23.7115V47.2998H22.4867V46.3383H26.059Z" fill="white"/>
<path d="M35.7047 53.4227H37.468V54.4182H34.6396V46.3383H35.7047V53.4227Z" fill="white"/>
<path d="M39.1508 53.4227H40.914V54.4182H38.0861V46.3383H39.1508V53.4227Z" fill="white"/>
<path d="M5.66457 51.806C5.6679 52.0462 5.6679 52.2869 5.65953 52.5257C5.65244 52.7374 5.6679 52.9725 5.58406 53.1717C5.50065 53.3694 5.3509 53.4193 5.14887 53.4256C5.10518 53.4269 4.55503 53.4349 4.55503 53.4197C4.55503 52.483 4.55503 51.5411 4.55546 50.6044C4.76264 50.6052 4.97014 50.6057 5.17732 50.6064C5.34929 50.6068 5.5086 50.6358 5.58997 50.8076C5.64278 50.9191 5.64697 51.0466 5.65029 51.1697C5.65577 51.3806 5.66167 51.5932 5.66457 51.806ZM4.56888 47.2998C4.69469 47.2998 4.82597 47.2986 4.95178 47.2977C5.02553 47.2974 5.09391 47.2981 5.16723 47.2994C5.24108 47.3011 5.31741 47.3027 5.38611 47.3321C5.60124 47.4239 5.64321 47.7064 5.63945 47.9109C5.63655 48.0895 5.63945 48.2275 5.63945 48.3339V49.1068C5.63945 49.2849 5.61884 49.5054 5.48176 49.637C5.39663 49.7187 5.29723 49.7174 5.18784 49.7174H4.56888V47.2998ZM5.71535 50.1345C5.94936 50.1198 6.64788 50.0067 6.64788 49.1747V47.2928C6.64788 46.293 5.63945 46.3308 5.63945 46.3308H3.51558V50.1362H3.51934V54.4182H5.58363C5.58363 54.4182 6.65174 54.4604 6.65174 53.3346V51.2155C6.65174 50.2737 5.94593 50.1496 5.71535 50.1345Z" fill="white"/>
<path d="M28.7465 51.806C28.7494 52.0462 28.7494 52.2869 28.741 52.5257C28.7339 52.7374 28.7494 52.9725 28.6659 53.1717C28.5821 53.3694 28.4328 53.4193 28.2306 53.4256C28.1871 53.4269 27.6369 53.4349 27.6369 53.4197C27.6369 52.483 27.6369 51.5411 27.6369 50.6044C27.8444 50.6052 28.0516 50.6057 28.2588 50.6064C28.4311 50.6068 28.5905 50.6358 28.6717 50.8076C28.7242 50.9191 28.7284 51.0466 28.7317 51.1697C28.7376 51.3806 28.7431 51.5932 28.7465 51.806ZM27.6503 47.2998C27.7761 47.2998 27.9073 47.2986 28.0336 47.2977C28.107 47.2974 28.1753 47.2981 28.2491 47.2994C28.3225 47.3011 28.3988 47.3027 28.4676 47.3321C28.6831 47.4239 28.7247 47.7064 28.7212 47.9109C28.7179 48.0895 28.7212 48.2275 28.7212 48.3339V49.1068C28.7212 49.2849 28.7003 49.5054 28.5632 49.637C28.4785 49.7187 28.3787 49.7174 28.2692 49.7174H27.6503V47.2998ZM28.7968 50.1345C29.0311 50.1198 29.7298 50.0067 29.7298 49.1747V47.2928C29.7298 46.293 28.7212 46.3308 28.7212 46.3308H26.5969V50.1362H26.6007V54.4182H28.6655C28.6655 54.4182 29.7335 54.4604 29.7335 53.3346V51.2155C29.7335 50.2737 29.0274 50.1496 28.7968 50.1345Z" fill="white"/>
<path d="M9.04183 48.3359L8.93953 49.1571L8.59613 51.9691H9.55807L9.04183 48.3359ZM10.9431 54.4182H9.90147L9.69515 52.9307H8.48159L8.29834 54.4182H7.25675L8.40151 46.3383H9.69515L10.9431 54.4182Z" fill="white"/>
<path d="M32.0906 48.3359L31.9887 49.1571L31.6448 51.9691H32.6068L32.0906 48.3359ZM33.9922 54.4182H32.9502L32.7443 52.9307H31.5303L31.3471 54.4182H30.3055L31.4502 46.3383H32.7443L33.9922 54.4182Z" fill="white"/>
<rect x="61.0795" y="2.66446" width="1.25146" height="50.0582" fill="#D9D9D9"/>
<path d="M127.915 21.7354C127.915 32.0922 119.52 40.4882 109.162 40.4882C98.8052 40.4882 90.4096 32.0922 90.4096 21.7354C90.4096 11.3781 98.8052 2.9826 109.162 2.9826C119.52 2.9826 127.915 11.3781 127.915 21.7354ZM109.162 1.67795C98.0851 1.67795 89.105 10.6579 89.105 21.7354C89.105 32.8126 98.0851 41.7929 109.162 41.7929C120.24 41.7929 129.22 32.8126 129.22 21.7354C129.22 10.6579 120.24 1.67795 109.162 1.67795Z" fill="white"/>
<path d="M118.883 13.2261C119.155 13.5188 119.548 13.9908 119.768 14.2769L123.83 11.6984C123.627 11.4328 123.304 11.0299 123.063 10.7461L120.49 12.4471L120.316 12.5982L120.446 12.4068L121.581 10.14L120.779 9.33712L118.512 10.473L118.32 10.6036L118.473 10.4278L120.175 7.85669C119.875 7.60165 119.588 7.36837 119.22 7.08505L116.641 11.1437C116.968 11.3953 117.398 11.7637 117.673 12.0151L120.1 10.7555L120.256 10.6414L120.141 10.7971L118.883 13.2261Z" fill="white"/>
<path d="M109.668 8.08335L110.777 5.59768L110.849 5.37754L110.828 5.60746L110.945 8.92891C111.334 8.96633 111.736 9.02006 112.133 9.08576L111.953 4.16572C111.398 4.10454 110.846 4.06059 110.294 4.03715L109.201 6.75042L109.162 6.95206L109.124 6.75042L108.031 4.03715C107.479 4.06059 106.927 4.10454 106.372 4.16572L106.192 9.08576C106.589 9.02006 106.991 8.96633 107.379 8.92891L107.497 5.60746L107.476 5.37754L107.548 5.59768L108.657 8.08335H109.668Z" fill="white"/>
<path d="M97.5258 12.4869C97.5258 12.4869 98.8451 11.0935 99.2741 10.6476C99.4454 10.4701 99.5548 10.3634 99.6736 10.305C99.825 10.2303 99.991 10.2159 100.14 10.3149C100.286 10.4123 100.354 10.5819 100.317 10.749C100.273 10.9477 100.111 11.1375 99.9753 11.2829C99.7945 11.4774 98.2302 13.1509 98.228 13.153L97.5258 12.4869ZM96.1696 11.1999C96.8677 10.3462 97.6099 9.57167 97.9463 9.26448C98.0525 9.16755 98.1681 9.07188 98.3079 9.03288C98.5361 8.97043 98.7705 9.13223 98.8241 9.36582C98.8777 9.60037 98.7295 9.82292 98.5666 10.0069C98.1965 10.4229 96.8435 11.8393 96.8435 11.8393L96.1696 11.1999ZM100.691 12.0035C101.333 11.3281 101.696 10.5469 101.054 9.80158C100.705 9.39631 100.119 9.308 99.6326 9.50838L99.5842 9.52772L99.6 9.48493C99.6725 9.29318 99.7177 8.68007 99.1952 8.25629C98.9408 8.05013 98.6212 7.9737 98.2974 8.00661C97.6951 8.06737 97.2314 8.47885 95.9688 9.88705C95.5883 10.3113 95.0342 10.9814 94.701 11.4155C94.701 11.4158 98.1671 14.7036 98.1671 14.7036C99.3182 13.4306 99.7861 12.9576 100.691 12.0035Z" fill="white"/>
<path d="M121.057 21.7354H109.162V9.84101C115.736 9.84101 121.057 15.1619 121.057 21.7354Z" fill="white"/>
<path d="M109.162 21.7354L109.162 33.6293C102.589 33.6293 97.2682 28.3092 97.2682 21.7354H109.162Z" fill="white"/>
<path d="M109.162 9.84143L109.162 21.7354H97.2682C97.2682 15.1619 102.589 9.84143 109.162 9.84143Z" fill="#186DBF"/>
<path d="M121.057 21.7354C121.057 28.3092 115.736 33.6293 109.162 33.6293L109.162 21.7354H121.057Z" fill="#186DBF"/>
<path d="M123.422 49.871V52.6341C123.422 52.819 123.456 52.9578 123.514 53.0271C123.571 53.108 123.685 53.1427 123.846 53.1427C123.972 53.1427 124.075 53.1427 124.167 53.1196C124.258 53.0965 124.35 53.0734 124.442 53.0271L124.407 53.5473C124.293 53.5936 124.167 53.6283 124.052 53.6514C123.938 53.6745 123.789 53.6861 123.628 53.6861C123.365 53.6861 123.17 53.6167 123.032 53.4664C122.895 53.3161 122.826 53.0734 122.826 52.715V49.8595H122.31V49.3508H122.826V48.0445L123.422 47.7092V49.3624H124.465V49.871H123.422Z" fill="white"/>
<path d="M105.592 48.056L106.187 47.7208V53.6167H105.592V48.056Z" fill="white"/>
<path d="M91.9211 48.3797C91.7835 48.3104 91.6231 48.2872 91.4283 48.2872C91.3023 48.2872 91.1991 48.3219 91.1189 48.3797C91.0387 48.4375 90.9929 48.5531 90.9929 48.7381V49.3739H91.8179V49.8826H90.9929V53.6167H90.397V49.8826H89.8241V49.3739H90.397V48.7959C90.397 48.4144 90.4887 48.1485 90.672 47.9867C90.8554 47.8248 91.096 47.7439 91.3939 47.7439C91.52 47.7439 91.6117 47.7439 91.6919 47.7554C91.7573 47.7649 91.815 47.782 91.8776 47.8005L91.9211 47.8132V48.3797Z" fill="white"/>
<path d="M93.6514 48.1716C93.6514 48.2872 93.6055 48.3913 93.5253 48.4722C93.4451 48.5531 93.342 48.5994 93.2274 48.5994C93.1013 48.5994 92.9982 48.5531 92.918 48.4722C92.8263 48.3913 92.7919 48.2872 92.7919 48.1716C92.7919 48.0445 92.8378 47.9404 92.918 47.8595C92.9982 47.7786 93.1013 47.7323 93.2274 47.7323C93.342 47.7323 93.4336 47.7786 93.5253 47.8595C93.6055 47.9404 93.6514 48.0445 93.6514 48.1716Z" fill="white"/>
<path d="M92.918 53.6052V49.3624H93.5139V53.6052H92.918Z" fill="white"/>
<path d="M88.3803 48.2872C88.5751 48.2872 88.7356 48.3104 88.8731 48.3797V47.8132L88.8296 47.8005C88.767 47.782 88.7093 47.7649 88.6439 47.7554C88.5637 47.7439 88.472 47.7439 88.346 47.7439C88.048 47.7439 87.8074 47.8248 87.624 47.9867C87.4407 48.1485 87.349 48.4144 87.349 48.7959V49.3739H86.7761V49.8826H87.349V53.6167H87.9449V49.8826H88.7699V49.3739H87.9449V48.7381C87.9449 48.5531 87.9907 48.4375 88.0709 48.3797C88.1512 48.3219 88.2543 48.2872 88.3803 48.2872Z" fill="white"/>
<path fill-rule="evenodd" clip-rule="evenodd" d="M85.5729 51.952C85.6875 51.5936 85.7448 51.2005 85.7448 50.7728H85.7334C85.7334 50.3566 85.6761 49.9635 85.5615 49.6052C85.4469 49.2468 85.2979 48.9346 85.0916 48.6803C84.8854 48.426 84.6447 48.2179 84.3583 48.0791C84.0718 47.9289 83.751 47.8595 83.4072 47.8595C83.0634 47.8595 82.7426 47.9289 82.4561 48.0791C82.1696 48.2179 81.929 48.426 81.7227 48.6803C81.5164 48.9346 81.3675 49.2468 81.2529 49.6052C81.1383 49.9635 81.081 50.3682 81.081 50.7843C81.081 51.2005 81.1268 51.5936 81.2414 51.952C81.356 52.3104 81.505 52.6225 81.7112 52.8768C81.9175 53.1312 82.1581 53.3277 82.4446 53.478C82.7311 53.6283 83.0519 53.6976 83.3957 53.6976C83.7395 53.6976 84.0603 53.6283 84.3468 53.478C84.6333 53.3393 84.8854 53.1312 85.0916 52.8768C85.2979 52.6225 85.4583 52.3104 85.5729 51.952ZM84.9771 49.8132C85.0687 50.1023 85.1146 50.426 85.1146 50.7843H85.1031C85.1031 51.1427 85.0687 51.4664 84.9771 51.7554C84.8854 52.0445 84.7708 52.2988 84.6218 52.4953C84.4729 52.7034 84.2895 52.8653 84.0833 52.9693C83.877 53.0734 83.6478 53.1312 83.4072 53.1312C83.1665 53.1312 82.9374 53.0734 82.7311 52.9693C82.5248 52.8653 82.3415 52.7034 82.1925 52.4953C82.0436 52.2872 81.929 52.0445 81.8373 51.7554C81.7456 51.4664 81.6998 51.1427 81.6998 50.7843C81.6998 50.426 81.7342 50.1023 81.8258 49.8132C81.9175 49.5242 82.0206 49.2815 82.1811 49.0734C82.3415 48.8653 82.5134 48.7034 82.7196 48.5994C82.9259 48.4953 83.1436 48.4375 83.3843 48.4375C83.6249 48.4375 83.8426 48.4953 84.0603 48.5994C84.2781 48.7034 84.4614 48.8653 84.6104 49.0734C84.7708 49.2815 84.8854 49.5242 84.9771 49.8132Z" fill="white"/>
<path d="M97.1235 49.9057C97.2725 49.9867 97.4329 50.0907 97.5819 50.2294L97.5704 50.2179L97.9371 49.767C97.7652 49.6283 97.5819 49.5011 97.3642 49.4086C97.1465 49.3161 96.8944 49.2699 96.6079 49.2699C96.3902 49.2699 96.1724 49.3161 95.9547 49.3971C95.737 49.4895 95.5422 49.6167 95.3703 49.8017C95.1984 49.9867 95.0609 50.2179 94.9578 50.4953C94.8547 50.7728 94.7974 51.108 94.7974 51.5011C94.7974 51.8826 94.8547 52.1947 94.9463 52.4722C95.038 52.7497 95.1755 52.9693 95.3359 53.1543C95.4964 53.3393 95.6797 53.4664 95.8974 53.5589C96.1151 53.6514 96.3329 53.6976 96.562 53.6976C96.86 53.6976 97.1121 53.6398 97.3298 53.5358C97.5475 53.4317 97.7423 53.293 97.9142 53.108L97.559 52.715C97.4215 52.8537 97.2725 52.9693 97.1235 53.0502C96.9746 53.1312 96.8027 53.1658 96.5964 53.1658C96.2297 53.1658 95.9318 53.0156 95.7255 52.7034C95.5193 52.3913 95.4161 51.9751 95.4161 51.4549C95.4161 51.189 95.4505 50.9578 95.5078 50.7497C95.5651 50.5416 95.6453 50.3682 95.7485 50.2294C95.8516 50.0907 95.9776 49.9751 96.1151 49.9057C96.2527 49.8364 96.4131 49.8017 96.5735 49.8017C96.7912 49.8017 96.9746 49.8248 97.1235 49.9057Z" fill="white"/>
<path d="M99.8165 48.1716C99.8165 48.2872 99.7707 48.3913 99.6905 48.4722C99.6103 48.5531 99.5071 48.5994 99.3925 48.5994C99.2665 48.5994 99.1634 48.5531 99.0832 48.4722C98.9915 48.3913 98.9571 48.2872 98.9571 48.1716C98.9571 48.0445 99.0029 47.9404 99.0832 47.8595C99.1634 47.7786 99.278 47.7323 99.3925 47.7323C99.5071 47.7323 99.5988 47.7786 99.6905 47.8595C99.7707 47.9404 99.8165 48.0445 99.8165 48.1716Z" fill="white"/>
<path d="M99.0832 53.6052V49.3624H99.679V53.6052H99.0832Z" fill="white"/>
<path fill-rule="evenodd" clip-rule="evenodd" d="M103.529 53.0849V53.6052H104.125V50.6456C104.125 50.1601 103.988 49.8017 103.724 49.5936C103.46 49.3739 103.105 49.2699 102.647 49.2699C102.372 49.2699 102.12 49.3046 101.879 49.3624C101.638 49.4202 101.421 49.5011 101.237 49.6052L101.467 50.1023C101.638 49.9982 101.822 49.9173 102.005 49.8595C102.2 49.8017 102.395 49.7786 102.624 49.7786C103.231 49.7786 103.541 50.0907 103.541 50.715V51.2121C103.415 51.1427 103.266 51.0849 103.082 51.0387C102.899 50.9924 102.693 50.9693 102.486 50.9693C102.28 50.9693 102.074 51.004 101.879 51.0502C101.684 51.0965 101.512 51.1774 101.363 51.293C101.214 51.4086 101.1 51.5474 101.008 51.7208C100.917 51.8942 100.871 52.1023 100.871 52.3335C100.871 52.5878 100.905 52.8075 100.985 52.9809C101.065 53.1543 101.169 53.293 101.295 53.3971C101.421 53.5127 101.57 53.582 101.73 53.6283C101.891 53.6745 102.062 53.6976 102.223 53.6976C102.521 53.6976 102.784 53.6283 102.991 53.5127C103.197 53.3855 103.38 53.2468 103.529 53.0849ZM103.071 51.5358C103.243 51.5705 103.392 51.6283 103.529 51.7092L103.518 51.7323V52.5878C103.392 52.7612 103.231 52.9115 103.025 53.0387C102.819 53.1658 102.59 53.2237 102.315 53.2237C102.062 53.2237 101.856 53.1427 101.696 53.004C101.535 52.8653 101.455 52.6341 101.455 52.3104C101.455 52.0329 101.547 51.8248 101.719 51.6861C101.891 51.5358 102.131 51.4664 102.441 51.4664C102.693 51.4664 102.91 51.4895 103.071 51.5358Z" fill="white"/>
<path fill-rule="evenodd" clip-rule="evenodd" d="M113.464 50.3913C113.554 50.1746 113.6 49.9242 113.602 49.6512C113.6 49.367 113.554 49.1168 113.464 48.9115C113.372 48.6919 113.246 48.5184 113.086 48.3797C112.925 48.241 112.742 48.1369 112.524 48.0676C112.307 47.9982 112.066 47.9635 111.814 47.9635H109.717V53.6167H110.347V51.3971H111.711C111.986 51.3971 112.238 51.3508 112.479 51.2815C112.708 51.2005 112.914 51.0965 113.074 50.9462C113.246 50.7959 113.372 50.6109 113.464 50.3913ZM112.662 48.819C112.868 49.0156 112.971 49.293 112.971 49.663C112.971 50.426 112.547 50.8075 111.699 50.8075H110.336V48.5184H111.78C112.169 48.5184 112.456 48.6225 112.662 48.819Z" fill="white"/>
<path fill-rule="evenodd" clip-rule="evenodd" d="M117.074 53.6052V53.0849C116.925 53.2468 116.741 53.3855 116.535 53.5127C116.329 53.6283 116.065 53.6976 115.767 53.6976C115.607 53.6976 115.435 53.6745 115.275 53.6283C115.114 53.582 114.965 53.5127 114.839 53.3971C114.713 53.293 114.61 53.1543 114.53 52.9809C114.45 52.8075 114.415 52.5878 114.415 52.3335C114.415 52.1023 114.461 51.8942 114.553 51.7208C114.644 51.5474 114.759 51.4086 114.908 51.293C115.057 51.1774 115.229 51.0965 115.424 51.0502C115.618 51.004 115.825 50.9693 116.031 50.9693C116.237 50.9693 116.443 50.9924 116.627 51.0387C116.81 51.0849 116.959 51.1427 117.085 51.2121V50.715C117.085 50.0907 116.776 49.7786 116.168 49.7786C115.939 49.7786 115.745 49.8017 115.55 49.8595C115.366 49.9173 115.183 49.9982 115.011 50.1023L114.782 49.6052C114.965 49.5011 115.183 49.4202 115.424 49.3624C115.664 49.3046 115.916 49.2699 116.191 49.2699C116.65 49.2699 117.005 49.3739 117.269 49.5936C117.532 49.8017 117.67 50.1601 117.67 50.6456V53.6052H117.074ZM117.074 51.7092C116.936 51.6283 116.787 51.5705 116.615 51.5358C116.455 51.4895 116.237 51.4664 115.985 51.4664C115.676 51.4664 115.435 51.5358 115.263 51.6861C115.091 51.8248 115 52.0329 115 52.3104C115 52.6341 115.08 52.8653 115.24 53.004C115.401 53.1427 115.607 53.2237 115.859 53.2237C116.134 53.2237 116.363 53.1658 116.57 53.0387C116.776 52.9115 116.936 52.7612 117.062 52.5878V51.7323L117.074 51.7092Z" fill="white"/>
<path d="M120.993 49.871C121.096 49.8942 121.187 49.9404 121.268 49.9867V49.9751L121.417 49.3624C121.348 49.3277 121.256 49.3046 121.153 49.2814C121.05 49.2583 120.924 49.2583 120.763 49.2583C120.534 49.2583 120.328 49.3161 120.145 49.4317C119.961 49.5589 119.812 49.6976 119.721 49.871V49.3508H119.125V53.5936H119.721V51.108C119.721 50.7034 119.801 50.3913 119.961 50.1601C120.122 49.9404 120.339 49.8248 120.637 49.8248C120.775 49.8248 120.889 49.8479 120.993 49.871Z" fill="white"/>
<path d="M128.28 51.1196V53.6051L128.292 53.5936H128.888V51.004C128.888 50.7034 128.853 50.4375 128.785 50.2179C128.716 49.9982 128.624 49.8132 128.487 49.6745C128.349 49.5358 128.2 49.4317 128.017 49.3624C127.833 49.293 127.639 49.2583 127.41 49.2583C127.146 49.2583 126.917 49.3161 126.722 49.4317C126.527 49.5473 126.378 49.6976 126.252 49.871V49.3508H125.656V53.5936H126.252V51.108C126.252 50.6456 126.355 50.3103 126.55 50.1023C126.756 49.8942 126.997 49.7901 127.295 49.7901C127.627 49.7901 127.879 49.9057 128.04 50.1138C128.2 50.3219 128.28 50.6572 128.28 51.1196Z" fill="white"/>
<path fill-rule="evenodd" clip-rule="evenodd" d="M133.54 51.3624V51.5473C133.54 51.5936 133.54 51.6398 133.517 51.6976H130.71C130.733 52.1601 130.847 52.5184 131.054 52.7843C131.26 53.0502 131.535 53.1774 131.879 53.1774C132.119 53.1774 132.337 53.1427 132.497 53.0734C132.658 53.004 132.841 52.8999 133.036 52.7728L133.311 53.2121C133.253 53.249 133.196 53.2836 133.141 53.3168C133.075 53.3564 133.012 53.3941 132.956 53.4317C132.841 53.4895 132.727 53.5474 132.612 53.582C132.497 53.6167 132.371 53.6514 132.245 53.6745C132.119 53.6976 131.97 53.7092 131.81 53.7092C131.615 53.7092 131.42 53.6745 131.214 53.5936C131.008 53.5242 130.824 53.3971 130.664 53.2121C130.504 53.0387 130.366 52.8075 130.263 52.5184C130.16 52.2294 130.103 51.8826 130.103 51.4664C130.103 51.1312 130.148 50.819 130.24 50.5531C130.332 50.2872 130.446 50.056 130.607 49.871C130.767 49.6861 130.95 49.5358 131.157 49.4317C131.363 49.3277 131.592 49.2815 131.844 49.2815C132.119 49.2815 132.36 49.3277 132.566 49.4317C132.772 49.5358 132.956 49.6745 133.093 49.8595C133.242 50.0445 133.345 50.2641 133.414 50.5184C133.483 50.7728 133.517 51.0502 133.517 51.3508L133.54 51.3624ZM132.979 51.2121C132.956 50.7959 132.853 50.4606 132.669 50.1947C132.486 49.9289 132.211 49.8017 131.844 49.8017C131.535 49.8017 131.271 49.9173 131.077 50.1485C130.882 50.3797 130.756 50.7381 130.721 51.2121H132.979Z" fill="white"/>
<path d="M136.657 49.871C136.76 49.8942 136.852 49.9404 136.932 49.9867V49.9751L137.081 49.3624C137.012 49.3277 136.921 49.3046 136.817 49.2814C136.714 49.2583 136.588 49.2583 136.428 49.2583C136.199 49.2583 135.992 49.3161 135.809 49.4317C135.626 49.5589 135.477 49.6976 135.385 49.871V49.3508H134.789V53.5936H135.385V51.108C135.385 50.7034 135.465 50.3913 135.626 50.1601C135.786 49.9404 136.004 49.8248 136.302 49.8248C136.439 49.8248 136.554 49.8479 136.657 49.871Z" fill="white"/>
</svg>
