<svg width="166" height="64" viewBox="0 0 166 64" fill="none" xmlns="http://www.w3.org/2000/svg">
<path d="M23.8525 1.16357C10.6792 1.16357 0 11.8379 0 25.0057C0 38.1738 10.6792 48.8482 23.8525 48.8482C37.0261 48.8482 47.7056 38.1738 47.7056 25.0057C47.7056 11.8379 37.0261 1.16357 23.8525 1.16357Z" fill="#186DBF"/>
<path d="M23.8526 2.35591C11.3379 2.35591 1.19235 12.4965 1.19235 25.0057C1.19235 37.5154 11.3379 47.656 23.8526 47.656C36.3677 47.656 46.5128 37.5154 46.5128 25.0057C46.5128 12.4965 36.3677 2.35591 23.8526 2.35591Z" fill="white"/>
<path d="M23.8526 3.42855C11.9307 3.42855 2.26597 13.0891 2.26597 25.0057C2.26597 36.9226 11.9307 46.5832 23.8526 46.5832C35.7749 46.5832 45.4396 36.9226 45.4396 25.0057C45.4396 13.0891 35.7749 3.42855 23.8526 3.42855ZM23.8526 38.4764C16.4098 38.4764 10.376 32.446 10.376 25.0057C10.376 17.5662 16.4098 11.5349 23.8526 11.5349C31.2963 11.5349 37.3293 17.5662 37.3293 25.0057C37.3293 32.446 31.2963 38.4764 23.8526 38.4764Z" fill="#E31536"/>
<path d="M12.0036 28.6712C12.5696 30.4987 13.5201 32.1011 14.7379 33.4176V27.8254L11.5778 23.2107C11.317 24.9848 11.4376 26.8434 12.0036 28.6712ZM18.3841 33.0991V26.698L14.7662 21.4148V16.5689C14.0965 17.2911 13.5171 18.0881 13.0383 18.9414L14.7379 21.4233V27.8254L18.3558 33.108V36.1157C19.2329 36.5499 20.1614 36.8803 21.1223 37.0981L18.3841 33.0991ZM22.0299 25.5699L25.6473 30.852V37.2542L22.0299 31.9716V25.5699L18.4121 20.2867L18.4126 13.8856L22.0299 19.1678V25.5699ZM25.6757 24.4419L22.0579 19.1592V12.7576L25.6757 18.0403V24.4419L29.293 29.7245V36.1261L25.6757 30.8436V24.4419ZM20.1858 13.1618C18.3388 13.7336 16.7211 14.6972 15.3961 15.9328L18.3841 20.2958V26.698L22.0015 31.98V37.2677C23.7932 37.5389 25.6722 37.4212 27.5198 36.8494C29.3668 36.2783 30.984 35.3147 32.309 34.079L29.3215 29.7161V23.3144L25.7036 18.0313V12.7442C23.9124 12.4725 22.0329 12.5907 20.1858 13.1618ZM32.9674 28.588V22.1859L29.35 16.9038V13.8956C28.4723 13.462 27.5437 13.1309 26.5828 12.9131L29.3215 16.9122V23.3144L32.9389 28.597V33.443C33.6091 32.7203 34.188 31.9237 34.6668 31.0703L32.9674 28.588ZM35.7016 21.3405C35.1361 19.5132 34.1851 17.9106 32.9674 16.5943V22.1859L36.1273 26.8006C36.3881 25.0266 36.2675 23.1678 35.7016 21.3405Z" fill="#186DBF"/>
<path d="M9.42145 29.4628L10.0338 30.7663L9.03745 32.6489C8.88783 32.9286 8.75826 33.1579 8.75826 33.1579L8.77115 33.1823C8.77115 33.1823 9.03452 33.1988 9.3506 33.2257L11.4726 33.4166L12.2325 34.6403L7.64825 37.3175L6.91459 36.1431L8.83358 35.0231C9.2809 34.7644 9.61843 34.5815 9.61843 34.5815L9.60503 34.5565C9.60503 34.5565 9.37307 34.5396 8.88937 34.4683L6.93604 34.1777L6.92314 34.1533L7.744 32.3584C7.94736 31.9138 8.05958 31.7104 8.05958 31.7104L8.04617 31.6854C8.04617 31.6854 7.70851 31.8689 7.24778 32.1032L5.26305 33.1L4.67709 31.8454L9.42145 29.4628Z" fill="white"/>
<path d="M12.9352 35.2489L13.9918 36.1875L11.8695 38.7117C11.5213 39.1308 11.5388 39.571 12.0654 39.9857C12.5925 40.4004 13.0249 40.3142 13.351 39.8781L15.3088 37.2238L16.4692 38.0308L14.4596 40.7504C13.5385 41.9985 12.3453 41.7522 11.3134 40.9403C10.2816 40.1278 9.76307 39.0262 10.7609 37.8388L12.9352 35.2489ZM15.049 36.9665L13.7449 37.8773L13.723 37.8598L14.3029 36.3789L15.049 36.9665Z" fill="white"/>
<path d="M17.2866 38.4904L18.6664 38.9938L19.4464 41.6565C19.6154 42.2323 19.6842 42.5372 19.6842 42.5372L19.724 42.5492C19.724 42.5492 19.8143 42.1535 19.946 41.6685L20.5119 39.5495L21.8604 39.8685L20.4886 44.9967L19.0603 44.6537L18.1707 41.8699C17.9987 41.3296 17.9263 40.9871 17.9263 40.9871L17.8865 40.9751C17.8865 40.9751 17.7683 41.3914 17.6176 41.8419L16.8935 44.0007L15.5941 43.5217L17.2866 38.4904Z" fill="white"/>
<path d="M27.619 43.0831C27.6485 44.3407 26.8596 45.206 25.3546 45.3082C23.9468 45.4034 22.6288 44.7648 22.553 42.7123C22.4747 40.6322 23.6262 39.8541 24.9785 39.7629C26.4421 39.6637 27.2884 40.4806 27.4341 41.5907L26.0118 41.6874C25.8817 41.2065 25.6238 40.9228 24.997 40.9652C24.4116 41.0051 24.0001 41.5438 24.044 42.6115C24.0919 43.7277 24.5552 44.1583 25.2105 44.1139C25.8658 44.0695 26.1525 43.756 26.1834 43.1802L27.619 43.0831Z" fill="white"/>
<path d="M27.9342 39.415L29.2532 38.906L30.0012 40.6985L31.6474 39.9483L30.7846 38.2088L32.0338 37.5473L34.388 42.306L33.1388 42.9675L32.2069 41.0748L30.4844 41.8594L31.3023 43.8038L29.9833 44.3123L27.9372 39.4214L27.9342 39.415Z" fill="white"/>
<path d="M32.868 36.9242L35.4103 34.4892L36.2282 35.2917L34.6343 36.8185L35.2423 37.4929L36.7857 36.015L37.5841 36.7971L35.9902 38.3239L36.6515 39.0641L38.4467 37.3439L39.2646 38.1469L36.4201 40.8715L32.868 36.9242Z" fill="white"/>
<path d="M36.0451 33.7361L36.7747 32.4615L39.5328 32.1435C40.1292 32.0742 40.4414 32.0583 40.4414 32.0583L40.4604 32.0209C40.4604 32.0209 40.0853 31.8654 39.6291 31.6535L37.6354 30.7374L38.1774 29.4628L43.0026 31.6814L42.4232 33.0307L39.5278 33.436C38.9659 33.5147 38.6158 33.5277 38.6158 33.5277L38.5968 33.5651C38.5968 33.5651 38.9878 33.7521 39.4067 33.9764L41.4128 35.055L40.7207 36.2543L36.0451 33.7361Z" fill="white"/>
<path d="M5.67539 16.1646L6.74059 16.5857L5.88986 18.9429L6.88472 19.2719L7.68106 17.0658L8.71983 17.478L7.94736 19.6183L9.80801 20.2224L9.40805 21.5773L4.31951 19.9199L5.67539 16.1646Z" fill="white"/>
<path d="M12.1806 12.6605C13.0987 13.4923 13.2573 14.6313 12.3393 15.7928C11.4995 16.8555 10.2069 17.3649 8.53485 16.1247C6.88472 14.9015 7.10263 13.4544 7.97736 12.3478C8.90379 11.1755 10.0857 11.0769 11.0028 11.7299L10.1196 12.8474C9.68775 12.6046 9.28332 12.632 8.88094 13.1414C8.47396 13.6563 8.56728 14.2819 9.46141 14.9524C10.3171 15.5923 10.9853 15.569 11.3578 15.0978C11.7562 14.5939 11.6785 14.1857 11.2885 13.7889L12.1806 12.6605Z" fill="white"/>
<path d="M15.6713 6.65209C16.6099 6.21837 17.5284 6.1247 17.9333 7.08378C18.2655 7.8688 18.055 8.21218 17.6441 8.55569L17.6591 8.58709C18.0963 8.48487 18.6833 8.50631 19.0564 9.38014C19.5051 10.4338 18.818 11.044 17.8795 11.4771L15.8947 12.3938L13.5155 7.64753L15.6713 6.65209ZM16.4687 8.5756C16.8362 8.40563 16.9414 8.23413 16.7933 7.87977C16.6507 7.53779 16.4079 7.51189 16.0524 7.67535L15.26 8.0417L15.7077 8.92702L16.4687 8.5756ZM17.3654 10.5151C17.7708 10.3272 17.8825 10.1686 17.7104 9.76347C17.5498 9.38359 17.2691 9.37517 16.8632 9.56249L16.1785 9.87857L16.6612 10.8401L17.3654 10.5151Z" fill="white"/>
<path d="M25.3326 10.1398L23.8251 10.1358L23.3928 9.18516L21.5691 9.34174L21.3059 10.3526L19.8208 10.6133L21.2923 5.06304L22.9345 4.9219L25.3326 10.1398ZM22.9824 8.16242L22.5286 7.12908C22.3725 6.77816 22.2544 6.46566 22.2544 6.46566L22.2264 6.46809C22.2264 6.46809 22.1636 6.79616 22.0693 7.16851L21.799 8.26412L22.9824 8.16242Z" fill="white"/>
<path d="M26.6736 8.58159L25.4409 4.81382L27.0331 5.11637L27.5154 6.71384C27.606 7.01946 27.6858 7.34396 27.6858 7.34396L27.7133 7.34996C27.7133 7.34996 27.9202 7.08773 28.1297 6.84745L29.2313 5.59284L30.8061 5.9777L28.1207 8.89563L27.7098 10.6567L26.3175 10.3545L26.6736 8.58159Z" fill="white"/>
<path d="M31.8637 6.43529L35.2064 8.2696L34.6244 9.25649L32.5614 8.12452L32.1485 8.93302L34.0529 9.97822L33.4844 10.9402L31.6414 9.92884L31.1891 10.8116L33.1966 11.9132L32.6148 12.9002L29.4557 11.1666L31.8637 6.43529Z" fill="white"/>
<path d="M37.0544 9.70706L38.6761 11.4412C39.5059 12.3284 39.7039 13.1848 38.7165 14.0501C38.0851 14.602 37.6249 14.7544 37.0688 14.5382L36.2212 16.6775L35.2198 15.4532L35.9952 13.7062L35.533 13.2117L34.2853 14.4538L33.2605 13.4803L37.0544 9.70706ZM36.3253 12.4236L36.8739 13.0098C37.1791 13.3364 37.4355 13.3453 37.777 13.0452C38.1131 12.7507 38.1076 12.4691 37.8025 12.1425L37.2255 11.5254L36.3253 12.4236Z" fill="white"/>
<path d="M38.3938 21.5669L37.9092 20.1806L39.4765 17.8907C39.8116 17.4042 40.0081 17.149 40.0081 17.149L39.9921 17.1102C39.9921 17.1102 39.6285 17.2911 39.1693 17.4964L37.1706 18.4006L36.5633 17.156L41.4019 14.9688L42.0412 16.2907L40.4499 18.7416C40.1442 19.2081 39.9213 19.4897 39.9213 19.4897L39.9372 19.5287C39.9372 19.5287 40.3343 19.3561 40.7785 19.1872L42.9079 18.3797L43.3607 19.6887L38.3938 21.5669Z" fill="white"/>
<path d="M14.7233 56.5514H13.5818V54.8736C13.5818 54.8466 13.5793 54.7972 13.5748 54.7255C13.5704 54.6542 13.5549 54.5825 13.528 54.5106C13.501 54.4394 13.4542 54.3746 13.3869 54.3163C13.32 54.258 13.2193 54.229 13.0846 54.229C12.9326 54.229 12.8164 54.258 12.7356 54.3163C12.6548 54.3746 12.5945 54.4504 12.5541 54.5446C12.5142 54.6382 12.4892 54.744 12.4808 54.8602C12.4713 54.9763 12.4669 55.0884 12.4669 55.1956C12.4669 55.3925 12.4808 55.5714 12.5072 55.7325C12.5341 55.8939 12.5745 56.0479 12.6284 56.1959C12.6817 56.3436 12.7466 56.489 12.8229 56.6321C12.8986 56.7751 12.9909 56.9277 13.0981 57.0888C13.1874 57.2318 13.2771 57.3704 13.3669 57.5049C13.4562 57.639 13.5504 57.7781 13.6491 57.9211C13.7833 58.1091 13.9219 58.3149 14.065 58.5387C14.2267 58.7979 14.3562 59.0377 14.455 59.257C14.5532 59.4762 14.6296 59.6796 14.6834 59.8676C14.7368 60.0556 14.7706 60.23 14.7841 60.3909C14.7972 60.5525 14.8041 60.7 14.8041 60.8341C14.8041 60.8879 14.7996 61.004 14.7907 61.1829C14.7816 61.3625 14.7438 61.5613 14.6764 61.7806C14.6091 62 14.5064 62.2194 14.3672 62.4386C14.2286 62.6579 14.0252 62.8259 13.7564 62.9421C13.6755 62.9774 13.5684 63.0114 13.4343 63.0428C13.2996 63.0742 13.1295 63.0896 12.9236 63.0896C12.5386 63.0896 12.2364 63.0268 12.017 62.9017C11.7975 62.7766 11.6385 62.6509 11.5403 62.5259C11.3433 62.302 11.2266 62.0648 11.1912 61.8141C11.1553 61.5638 11.1328 61.2997 11.1239 61.022V59.4514H12.2788V61.1829C12.2788 61.4163 12.2992 61.5882 12.3392 61.6999C12.3795 61.812 12.4489 61.9038 12.5475 61.9755C12.5745 61.9935 12.6194 62.0179 12.6817 62.0494C12.7445 62.0808 12.8248 62.0962 12.9236 62.0962C13.0757 62.0962 13.1944 62.0583 13.2797 61.982C13.3644 61.9062 13.4252 61.812 13.4612 61.6999C13.4966 61.5882 13.5165 61.4676 13.5215 61.3375C13.5259 61.208 13.528 61.0893 13.528 60.9816C13.528 60.6416 13.4945 60.3556 13.4272 60.1228C13.3605 59.8901 13.2412 59.6258 13.0712 59.3308C12.8922 59.0172 12.7021 58.7197 12.5007 58.438C12.2992 58.1559 12.1088 57.8628 11.9298 57.5582C11.8759 57.478 11.809 57.3683 11.7282 57.2293C11.6475 57.0907 11.5692 56.9277 11.4935 56.7393C11.4171 56.5514 11.3498 56.3391 11.2919 56.1017C11.2335 55.865 11.2047 55.6073 11.2047 55.3296C11.2047 54.8108 11.296 54.406 11.4799 54.1149C11.6635 53.8243 11.8535 53.6205 12.0509 53.5038C12.1491 53.4414 12.2858 53.3831 12.4603 53.3294C12.6349 53.2761 12.8562 53.2491 13.1251 53.2491C13.1874 53.2491 13.2881 53.2536 13.4272 53.2625C13.5664 53.2715 13.7115 53.3025 13.8641 53.3563C14.0161 53.4101 14.1638 53.4999 14.307 53.6249C14.4501 53.7505 14.5578 53.929 14.6296 54.1618C14.6565 54.2515 14.6764 54.3453 14.6899 54.4439C14.7033 54.5425 14.7143 54.6856 14.7233 54.8736V56.5514Z" fill="white"/>
<path d="M19.4722 53.4809L17.8789 58.2446L19.7584 63.0896H18.4783L17.0486 59.3198C17.0033 59.2016 16.9623 59.084 16.9259 58.9658C16.8895 58.8483 16.8487 58.7257 16.8037 58.5986V63.0896H15.5645V53.4809H16.8173V57.6594C16.8173 57.7681 16.8128 57.8817 16.8037 57.9993C16.8397 57.8633 16.8761 57.7253 16.9125 57.5841C16.9489 57.4441 16.9892 57.3011 17.0352 57.156L18.1786 53.4809H19.4722Z" fill="white"/>
<path d="M23.6246 53.4809V54.6787H21.7322V57.4959H23.4206V58.6938H21.7456V61.8784H23.6246V63.0896H20.452V53.4809H23.6246Z" fill="white"/>
<path d="M28.4244 53.4809V54.6243H26.9263V63.0896H25.6327V54.6243H24.1761V53.4809H28.4244Z" fill="white"/>
<path d="M39.8953 61.9058H41.9922V63.0896H38.6287V53.4809H39.8953V61.9058Z" fill="white"/>
<path d="M43.9934 61.9058H46.0903V63.0896H42.7273V53.4809H43.9934V61.9058Z" fill="white"/>
<path d="M4.17087 59.9832C4.17482 60.2688 4.17482 60.555 4.16486 60.8391C4.15644 61.0908 4.17482 61.3704 4.07512 61.6072C3.97593 61.8424 3.79784 61.9017 3.55759 61.9093C3.50563 61.9108 2.85137 61.9202 2.85137 61.9023C2.85137 60.7883 2.85137 59.6682 2.85188 58.5542C3.09826 58.5552 3.34503 58.5557 3.59142 58.5566C3.79593 58.5571 3.98537 58.5916 4.08214 58.7959C4.14495 58.9284 4.14993 59.08 4.15389 59.2265C4.1604 59.4773 4.16742 59.73 4.17087 59.9832ZM2.86784 54.6243C3.01746 54.6243 3.17358 54.6228 3.3232 54.6218C3.4109 54.6214 3.49222 54.6223 3.57941 54.6238C3.66724 54.6259 3.75801 54.6278 3.83971 54.6627C4.09555 54.7718 4.14546 55.1078 4.14099 55.351C4.13755 55.5634 4.14099 55.7275 4.14099 55.8541V56.7732C4.14099 56.985 4.11648 57.2472 3.95346 57.4037C3.85223 57.5009 3.73401 57.4994 3.60393 57.4994H2.86784V54.6243ZM4.23125 57.9954C4.50955 57.9779 5.34023 57.8434 5.34023 56.854V54.6159C5.34023 53.427 4.14099 53.4719 4.14099 53.4719H1.61523V57.9974H1.6197V63.0896H4.07461C4.07461 63.0896 5.34483 63.1399 5.34483 61.8011V59.2809C5.34483 58.1609 4.50546 58.0134 4.23125 57.9954Z" fill="white"/>
<path d="M31.6204 59.9832C31.6238 60.2688 31.6238 60.555 31.6139 60.8391C31.6054 61.0908 31.6238 61.3704 31.5246 61.6072C31.4249 61.8424 31.2473 61.9017 31.007 61.9093C30.9551 61.9108 30.3009 61.9202 30.3009 61.9023C30.3009 60.7883 30.3009 59.6682 30.3009 58.5542C30.5476 58.5552 30.794 58.5557 31.0404 58.5566C31.2453 58.5571 31.4349 58.5916 31.5315 58.7959C31.5939 58.9284 31.5989 59.08 31.6029 59.2265C31.6099 59.4773 31.6164 59.73 31.6204 59.9832ZM30.3168 54.6243C30.4664 54.6243 30.6224 54.6228 30.7726 54.6218C30.8599 54.6214 30.9411 54.6223 31.0289 54.6238C31.1162 54.6259 31.2069 54.6278 31.2887 54.6627C31.545 54.7718 31.5945 55.1078 31.5904 55.351C31.5864 55.5634 31.5904 55.7275 31.5904 55.8541V56.7732C31.5904 56.985 31.5655 57.2472 31.4024 57.4037C31.3017 57.5009 31.183 57.4994 31.0528 57.4994H30.3168V54.6243ZM31.6802 57.9954C31.9589 57.9779 32.7897 57.8434 32.7897 56.854V54.6159C32.7897 53.427 31.5904 53.4719 31.5904 53.4719H29.0641V57.9974H29.0686V63.0896H31.5241C31.5241 63.0896 32.7942 63.1399 32.7942 61.8011V59.2809C32.7942 58.1609 31.9544 58.0134 31.6802 57.9954Z" fill="white"/>
<path d="M8.18718 55.8565L8.06552 56.833L7.65714 60.1772H8.8011L8.18718 55.8565ZM10.4482 63.0896H9.20948L8.96412 61.3206H7.52092L7.30301 63.0896H6.06432L7.42569 53.4809H8.96412L10.4482 63.0896Z" fill="white"/>
<path d="M35.5972 55.8565L35.4761 56.833L35.0672 60.1772H36.2112L35.5972 55.8565ZM37.8587 63.0896H36.6195L36.3747 61.3206H34.931L34.7131 63.0896H33.4744L34.8357 53.4809H36.3747L37.8587 63.0896Z" fill="white"/>
<path d="M150.486 23.8528C150.486 36.1693 140.502 46.1541 128.185 46.1541C115.867 46.1541 105.883 36.1693 105.883 23.8528C105.883 11.5356 115.867 1.55152 128.185 1.55152C140.502 1.55152 150.486 11.5356 150.486 23.8528ZM128.185 0C115.011 0 104.332 10.6791 104.332 23.8528C104.332 37.026 115.011 47.7056 128.185 47.7056C141.358 47.7056 152.037 37.026 152.037 23.8528C152.037 10.6791 141.358 0 128.185 0Z" fill="white"/>
<path d="M139.744 13.7333C140.068 14.0815 140.535 14.6427 140.797 14.983L145.628 11.9166C145.386 11.6007 145.002 11.1216 144.715 10.784L141.656 12.8069L141.448 12.9866L141.603 12.759L142.953 10.0633L141.999 9.10847L139.303 10.4593L139.075 10.6146L139.256 10.4056L141.281 7.3479C140.924 7.0446 140.583 6.76718 140.145 6.43025L137.079 11.2568C137.467 11.5561 137.979 11.9942 138.305 12.2932L141.192 10.7953L141.377 10.6595L141.241 10.8446L139.744 13.7333Z" fill="white"/>
<path d="M128.786 7.61745L130.105 4.66144L130.19 4.39964L130.165 4.67306L130.305 8.62301C130.767 8.66751 131.245 8.7314 131.718 8.80954L131.503 2.95852C130.843 2.88575 130.186 2.83349 129.53 2.80561L128.231 6.0323L128.185 6.27209L128.138 6.0323L126.839 2.80561C126.183 2.83349 125.527 2.88575 124.866 2.95852L124.651 8.80954C125.124 8.7314 125.602 8.66751 126.064 8.62301L126.204 4.67306L126.179 4.39964L126.264 4.66144L127.583 7.61745H128.786Z" fill="white"/>
<path d="M114.346 12.8542C114.346 12.8542 115.915 11.1972 116.425 10.6669C116.629 10.4558 116.759 10.3289 116.9 10.2595C117.08 10.1706 117.278 10.1535 117.455 10.2713C117.629 10.3871 117.709 10.5887 117.665 10.7875C117.613 11.0238 117.42 11.2495 117.259 11.4224C117.044 11.6538 115.184 13.6439 115.181 13.6464L114.346 12.8542ZM112.733 11.3237C113.563 10.3084 114.446 9.38739 114.846 9.02208C114.972 8.90681 115.11 8.79304 115.276 8.74665C115.547 8.67239 115.826 8.8648 115.89 9.1426C115.954 9.42152 115.777 9.68619 115.584 9.90497C115.144 10.3997 113.535 12.0841 113.535 12.0841L112.733 11.3237ZM118.11 12.2794C118.873 11.4761 119.306 10.5472 118.542 9.66081C118.127 9.17885 117.43 9.07384 116.851 9.31213L116.794 9.33513L116.813 9.28425C116.899 9.0562 116.953 8.32708 116.331 7.82311C116.029 7.57794 115.649 7.48705 115.264 7.52619C114.547 7.59845 113.996 8.08779 112.494 9.76245C112.042 10.2669 111.383 11.0639 110.987 11.5801C110.987 11.5805 115.109 15.4905 115.109 15.4905C116.478 13.9766 117.034 13.414 118.11 12.2794Z" fill="white"/>
<path d="M142.329 23.8528H128.185V9.70769C136.002 9.70769 142.329 16.0354 142.329 23.8528Z" fill="white"/>
<path d="M128.185 23.8528L128.185 37.9973C120.367 37.9973 114.04 31.6705 114.04 23.8528H128.185Z" fill="white"/>
<path d="M128.185 9.7082L128.185 23.8528H114.04C114.04 16.0354 120.367 9.7082 128.185 9.7082Z" fill="#186DBF"/>
<path d="M142.329 23.8528C142.329 31.6705 136.002 37.9973 128.185 37.9973L128.185 23.8528H142.329Z" fill="#186DBF"/>
<path d="M90.3691 62.0006V54.9085H92.7789C93.3384 54.9085 93.7957 55.0089 94.1509 55.2098C94.5085 55.4083 94.7731 55.6773 94.9449 56.0167C95.1167 56.356 95.2026 56.7346 95.2026 57.1525C95.2026 57.5704 95.1167 57.9501 94.9449 58.2918C94.7754 58.6335 94.5131 58.9059 94.1579 59.1091C93.8027 59.3099 93.3477 59.4104 92.7928 59.4104H91.2116V58.6485H92.765C93.148 58.6485 93.4556 58.5827 93.6878 58.4511C93.92 58.3195 94.0883 58.1418 94.1927 57.9178C94.2995 57.6916 94.3529 57.4365 94.3529 57.1525C94.3529 56.8685 94.2995 56.6146 94.1927 56.3907C94.0883 56.1667 93.9188 55.9913 93.6843 55.8643C93.4498 55.735 93.1387 55.6704 92.751 55.6704H91.2328V62.0006H90.3691Z" fill="white"/>
<path d="M96.4824 62.0006V56.6815H97.2763V57.485H97.332C97.4296 57.2218 97.606 57.0082 97.8614 56.8443C98.1167 56.6804 98.4046 56.5984 98.725 56.5984C98.7853 56.5984 98.8608 56.5996 98.9513 56.6019C99.0419 56.6042 99.1104 56.6077 99.1568 56.6123V57.4434C99.1289 57.4365 99.0651 57.4261 98.9653 57.4122C98.8678 57.3961 98.7644 57.388 98.6553 57.388C98.3953 57.388 98.1632 57.4422 97.9589 57.5508C97.7569 57.6569 97.5967 57.8047 97.4783 57.994C97.3622 58.181 97.3042 58.3946 97.3042 58.6347V62.0006H96.4824Z" fill="white"/>
<path d="M100.131 62.0006V56.6815H100.953V62.0006H100.131ZM100.549 55.795C100.389 55.795 100.251 55.7408 100.134 55.6323C100.021 55.5238 99.9638 55.3933 99.9638 55.241C99.9638 55.0886 100.021 54.9582 100.134 54.8496C100.251 54.7411 100.389 54.6869 100.549 54.6869C100.709 54.6869 100.846 54.7411 100.96 54.8496C101.076 54.9582 101.134 55.0886 101.134 55.241C101.134 55.3933 101.076 55.5238 100.96 55.6323C100.846 55.7408 100.709 55.795 100.549 55.795Z" fill="white"/>
<path d="M103.28 58.8009V62.0006H102.458V56.6815H103.252V57.5127H103.322C103.447 57.2425 103.637 57.0255 103.893 56.8616C104.148 56.6954 104.478 56.6123 104.882 56.6123C105.244 56.6123 105.561 56.6862 105.832 56.8339C106.104 56.9794 106.315 57.201 106.466 57.4988C106.617 57.7943 106.693 58.1683 106.693 58.6208V62.0006H105.871V58.6762C105.871 58.2583 105.762 57.9328 105.543 57.6997C105.325 57.4642 105.026 57.3464 104.645 57.3464C104.383 57.3464 104.148 57.403 103.941 57.5161C103.737 57.6292 103.576 57.7943 103.457 58.0113C103.339 58.2283 103.28 58.4915 103.28 58.8009Z" fill="white"/>
<path d="M110.367 62.1115C109.866 62.1115 109.434 61.9937 109.072 61.7582C108.71 61.5228 108.431 61.1984 108.236 60.7851C108.041 60.3719 107.944 59.8998 107.944 59.3688C107.944 58.8286 108.043 58.3518 108.243 57.9386C108.445 57.523 108.726 57.1987 109.086 56.9655C109.448 56.73 109.87 56.6123 110.353 56.6123C110.729 56.6123 111.068 56.6815 111.37 56.8201C111.672 56.9586 111.919 57.1525 112.112 57.4018C112.305 57.6512 112.424 57.9421 112.471 58.2745H111.649C111.586 58.0321 111.447 57.8174 111.231 57.6304C111.017 57.4411 110.729 57.3464 110.367 57.3464C110.047 57.3464 109.766 57.4295 109.525 57.5958C109.285 57.7597 109.099 57.9917 108.964 58.2918C108.832 58.5896 108.765 58.9394 108.765 59.3411C108.765 59.752 108.83 60.1099 108.96 60.4146C109.093 60.7193 109.278 60.956 109.518 61.1245C109.759 61.293 110.042 61.3773 110.367 61.3773C110.581 61.3773 110.775 61.3404 110.949 61.2665C111.123 61.1926 111.27 61.0864 111.391 60.9479C111.512 60.8094 111.598 60.6432 111.649 60.4492H112.471C112.424 60.7632 112.309 61.046 112.126 61.2977C111.945 61.547 111.704 61.7455 111.405 61.8933C111.108 62.0387 110.762 62.1115 110.367 62.1115Z" fill="white"/>
<path d="M113.672 62.0006V56.6815H114.494V62.0006H113.672ZM114.09 55.795C113.93 55.795 113.792 55.7408 113.675 55.6323C113.562 55.5238 113.505 55.3933 113.505 55.241C113.505 55.0886 113.562 54.9582 113.675 54.8496C113.792 54.7411 113.93 54.6869 114.09 54.6869C114.25 54.6869 114.387 54.7411 114.501 54.8496C114.617 54.9582 114.675 55.0886 114.675 55.241C114.675 55.3933 114.617 55.5238 114.501 55.6323C114.387 55.7408 114.25 55.795 114.09 55.795Z" fill="white"/>
<path d="M115.999 63.9953V56.6815H116.793V57.5265H116.891C116.951 57.4342 117.034 57.3164 117.141 57.1733C117.25 57.0278 117.406 56.8986 117.608 56.7854C117.812 56.67 118.088 56.6123 118.437 56.6123C118.887 56.6123 119.284 56.7243 119.628 56.9482C119.971 57.1721 120.239 57.4896 120.432 57.9005C120.625 58.3114 120.721 58.7963 120.721 59.3549C120.721 59.9183 120.625 60.4065 120.432 60.8198C120.239 61.2307 119.972 61.5493 119.631 61.7756C119.29 61.9995 118.896 62.1115 118.451 62.1115C118.107 62.1115 117.832 62.0549 117.625 61.9418C117.419 61.8263 117.26 61.6959 117.148 61.5505C117.037 61.4027 116.951 61.2803 116.891 61.1834H116.821V63.9953H115.999ZM116.807 59.3411C116.807 59.7428 116.866 60.0972 116.985 60.4042C117.103 60.709 117.276 60.9479 117.503 61.1211C117.731 61.2919 118.01 61.3773 118.339 61.3773C118.683 61.3773 118.969 61.2873 119.199 61.1072C119.431 60.9248 119.606 60.6801 119.722 60.3731C119.84 60.0637 119.899 59.7197 119.899 59.3411C119.899 58.9671 119.841 58.63 119.725 58.3299C119.611 58.0275 119.438 57.7885 119.206 57.6131C118.976 57.4353 118.687 57.3464 118.339 57.3464C118.005 57.3464 117.724 57.4307 117.496 57.5992C117.269 57.7655 117.097 57.9986 116.981 58.2987C116.865 58.5966 116.807 58.944 116.807 59.3411Z" fill="white"/>
<path d="M123.549 62.1253C123.21 62.1253 122.902 62.0618 122.626 61.9348C122.35 61.8056 122.13 61.6197 121.968 61.3773C121.805 61.1326 121.724 60.8371 121.724 60.4908C121.724 60.1861 121.784 59.939 121.905 59.7497C122.026 59.5581 122.187 59.408 122.389 59.2995C122.591 59.191 122.814 59.1102 123.058 59.0571C123.304 59.0017 123.551 58.9579 123.799 58.9255C124.124 58.884 124.388 58.8528 124.59 58.832C124.794 58.809 124.943 58.7709 125.036 58.7178C125.131 58.6647 125.178 58.5723 125.178 58.4407V58.413C125.178 58.0713 125.084 57.8059 124.896 57.6165C124.711 57.4272 124.429 57.3326 124.05 57.3326C123.658 57.3326 123.35 57.418 123.127 57.5888C122.904 57.7597 122.748 57.9421 122.657 58.136L121.877 57.859C122.017 57.5357 122.202 57.2841 122.434 57.104C122.669 56.9216 122.924 56.7947 123.2 56.7231C123.479 56.6492 123.753 56.6123 124.022 56.6123C124.194 56.6123 124.391 56.6331 124.614 56.6746C124.84 56.7139 125.057 56.7958 125.266 56.9205C125.477 57.0452 125.652 57.2333 125.791 57.485C125.931 57.7366 126 58.0737 126 58.4961V62.0006H125.178V61.2803H125.137C125.081 61.3958 124.988 61.5193 124.858 61.6509C124.728 61.7825 124.555 61.8944 124.339 61.9868C124.123 62.0791 123.86 62.1253 123.549 62.1253ZM123.674 61.3912C123.999 61.3912 124.273 61.3277 124.496 61.2007C124.721 61.0737 124.891 60.9098 125.004 60.709C125.12 60.5081 125.178 60.2969 125.178 60.0752V59.3272C125.144 59.3688 125.067 59.4069 124.949 59.4415C124.833 59.4738 124.698 59.5027 124.545 59.5281C124.394 59.5512 124.246 59.572 124.102 59.5904C123.961 59.6066 123.846 59.6204 123.758 59.632C123.544 59.6597 123.344 59.7047 123.159 59.767C122.975 59.8271 122.827 59.9183 122.713 60.0406C122.602 60.1607 122.546 60.3246 122.546 60.5324C122.546 60.8163 122.651 61.031 122.863 61.1765C123.076 61.3196 123.347 61.3912 123.674 61.3912Z" fill="white"/>
<path d="M128.322 54.9085V62.0006H127.5V54.9085H128.322Z" fill="white"/>
<path d="M132.697 62.0006V54.9085H135.107C135.666 54.9085 136.123 55.0089 136.479 55.2098C136.836 55.4083 137.101 55.6773 137.273 56.0167C137.444 56.356 137.53 56.7346 137.53 57.1525C137.53 57.5704 137.444 57.9501 137.273 58.2918C137.103 58.6335 136.841 58.9059 136.486 59.1091C136.13 59.3099 135.675 59.4104 135.12 59.4104H133.56V58.6485H135.093C135.476 58.6485 135.783 58.5827 136.015 58.4511C136.248 58.3195 136.416 58.1418 136.52 57.9178C136.627 57.6916 136.681 57.4365 136.681 57.1525C136.681 56.8685 136.627 56.6146 136.52 56.3907C136.416 56.1667 136.246 55.9913 136.012 55.8643C135.777 55.735 135.466 55.6704 135.079 55.6704H133.56V62.0006H132.697Z" fill="white"/>
<path d="M140.384 62.1253C140.045 62.1253 139.737 62.0618 139.461 61.9348C139.185 61.8056 138.966 61.6197 138.803 61.3773C138.641 61.1326 138.559 60.8371 138.559 60.4908C138.559 60.1861 138.62 59.939 138.74 59.7497C138.861 59.5581 139.022 59.408 139.224 59.2995C139.426 59.191 139.649 59.1102 139.893 59.0571C140.139 59.0017 140.386 58.9579 140.635 58.9255C140.96 58.884 141.223 58.8528 141.425 58.832C141.63 58.809 141.778 58.7709 141.871 58.7178C141.966 58.6647 142.014 58.5723 142.014 58.4407V58.413C142.014 58.0713 141.92 57.8059 141.732 57.6165C141.546 57.4272 141.264 57.3326 140.885 57.3326C140.493 57.3326 140.186 57.418 139.963 57.5888C139.74 57.7597 139.583 57.9421 139.493 58.136L138.712 57.859C138.852 57.5357 139.038 57.2841 139.27 57.104C139.504 56.9216 139.76 56.7947 140.036 56.7231C140.314 56.6492 140.588 56.6123 140.858 56.6123C141.029 56.6123 141.227 56.6331 141.45 56.6746C141.675 56.7139 141.892 56.7958 142.101 56.9205C142.312 57.0452 142.487 57.2333 142.627 57.485C142.766 57.7366 142.836 58.0737 142.836 58.4961V62.0006H142.014V61.2803H141.972C141.916 61.3958 141.823 61.5193 141.693 61.6509C141.563 61.7825 141.39 61.8944 141.174 61.9868C140.959 62.0791 140.695 62.1253 140.384 62.1253ZM140.509 61.3912C140.834 61.3912 141.108 61.3277 141.331 61.2007C141.556 61.0737 141.726 60.9098 141.84 60.709C141.956 60.5081 142.014 60.2969 142.014 60.0752V59.3272C141.979 59.3688 141.902 59.4069 141.784 59.4415C141.668 59.4738 141.533 59.5027 141.38 59.5281C141.229 59.5512 141.082 59.572 140.938 59.5904C140.796 59.6066 140.681 59.6204 140.593 59.632C140.379 59.6597 140.18 59.7047 139.994 59.767C139.811 59.8271 139.662 59.9183 139.548 60.0406C139.437 60.1607 139.381 60.3246 139.381 60.5324C139.381 60.8163 139.487 61.031 139.698 61.1765C139.912 61.3196 140.182 61.3912 140.509 61.3912Z" fill="white"/>
<path d="M144.336 62.0006V56.6815H145.13V57.485H145.185C145.283 57.2218 145.459 57.0082 145.715 56.8443C145.97 56.6804 146.258 56.5984 146.578 56.5984C146.639 56.5984 146.714 56.5996 146.805 56.6019C146.895 56.6042 146.964 56.6077 147.01 56.6123V57.4434C146.982 57.4365 146.918 57.4261 146.818 57.4122C146.721 57.3961 146.618 57.388 146.509 57.388C146.249 57.388 146.016 57.4422 145.812 57.5508C145.61 57.6569 145.45 57.8047 145.332 57.994C145.215 58.181 145.157 58.3946 145.157 58.6347V62.0006H144.336Z" fill="white"/>
<path d="M150.646 56.6815V57.3741H147.874V56.6815H150.646ZM148.682 55.4072H149.503V60.4769C149.503 60.7078 149.537 60.881 149.604 60.9964C149.674 61.1095 149.762 61.1857 149.869 61.2249C149.978 61.2619 150.093 61.2803 150.214 61.2803C150.304 61.2803 150.379 61.2757 150.437 61.2665C150.495 61.255 150.541 61.2457 150.576 61.2388L150.743 61.9729C150.687 61.9937 150.61 62.0145 150.51 62.0353C150.41 62.0584 150.283 62.0699 150.13 62.0699C149.898 62.0699 149.671 62.0203 149.448 61.921C149.227 61.8217 149.044 61.6705 148.897 61.4673C148.753 61.2642 148.682 61.0079 148.682 60.6986V55.4072Z" fill="white"/>
<path d="M152.704 58.8009V62.0006H151.882V56.6815H152.676V57.5127H152.745C152.871 57.2425 153.061 57.0255 153.316 56.8616C153.572 56.6954 153.902 56.6123 154.305 56.6123C154.668 56.6123 154.985 56.6862 155.256 56.8339C155.528 56.9794 155.739 57.201 155.89 57.4988C156.041 57.7943 156.116 58.1683 156.116 58.6208V62.0006H155.294V58.6762C155.294 58.2583 155.185 57.9328 154.967 57.6997C154.749 57.4642 154.449 57.3464 154.069 57.3464C153.806 57.3464 153.572 57.403 153.365 57.5161C153.161 57.6292 153 57.7943 152.881 58.0113C152.763 58.2283 152.704 58.4915 152.704 58.8009Z" fill="white"/>
<path d="M159.861 62.1115C159.345 62.1115 158.901 61.9983 158.527 61.7721C158.155 61.5435 157.869 61.2249 157.667 60.8163C157.467 60.4054 157.367 59.9275 157.367 59.3827C157.367 58.8378 157.467 58.3576 157.667 57.9421C157.869 57.5242 158.15 57.1987 158.51 56.9655C158.872 56.73 159.294 56.6123 159.777 56.6123C160.056 56.6123 160.331 56.6585 160.602 56.7508C160.874 56.8432 161.121 56.9932 161.344 57.201C161.567 57.4065 161.745 57.6789 161.877 58.0182C162.009 58.3576 162.075 58.7755 162.075 59.2718V59.6181H157.952V58.9117H161.24C161.24 58.6116 161.179 58.3438 161.059 58.1083C160.94 57.8728 160.771 57.687 160.55 57.5508C160.332 57.4145 160.074 57.3464 159.777 57.3464C159.45 57.3464 159.167 57.4272 158.927 57.5888C158.691 57.7481 158.508 57.9559 158.381 58.2122C158.253 58.4684 158.189 58.7432 158.189 59.0364V59.5073C158.189 59.909 158.259 60.2495 158.398 60.5289C158.54 60.8059 158.736 61.0172 158.987 61.1626C159.237 61.3057 159.529 61.3773 159.861 61.3773C160.077 61.3773 160.272 61.3473 160.446 61.2873C160.622 61.2249 160.774 61.1326 160.902 61.0102C161.03 60.8856 161.128 60.7309 161.198 60.5462L161.992 60.7678C161.908 61.0356 161.768 61.2711 161.57 61.4743C161.373 61.6751 161.129 61.8321 160.839 61.9452C160.549 62.056 160.223 62.1115 159.861 62.1115Z" fill="white"/>
<path d="M163.326 62.0006V56.6815H164.12V57.485H164.175C164.273 57.2218 164.449 57.0082 164.705 56.8443C164.96 56.6804 165.248 56.5984 165.568 56.5984C165.629 56.5984 165.704 56.5996 165.795 56.6019C165.885 56.6042 165.954 56.6077 166 56.6123V57.4434C165.972 57.4365 165.908 57.4261 165.808 57.4122C165.711 57.3961 165.608 57.388 165.499 57.388C165.239 57.388 165.006 57.4422 164.802 57.5508C164.6 57.6569 164.44 57.8047 164.322 57.994C164.205 58.181 164.147 58.3946 164.147 58.6347V62.0006H163.326Z" fill="white"/>
<rect x="70" y="0.497681" width="1" height="63" fill="#D9D9D9"/>
</svg>
